<?xml version="1.0" ?>
<svg height="400" width="400" xmlns="http://www.w3.org/2000/svg" xmlns:cc="http://web.resource.org/cc/" xmlns:dc="http://purl.org/dc/elements/1.1/" xmlns:inkscape="http://www.inkscape.org/namespaces/inkscape" xmlns:memaker="http://launchpad.net/memaker" xmlns:rdf="http://www.w3.org/1999/02/22-rdf-syntax-ns#" xmlns:sodipodi="http://sodipodi.sourceforge.net/DTD/sodipodi-0.dtd" xmlns:xlink="http://www.w3.org/1999/xlink">
	
        
	<g memaker:file="head">
		
  
		<defs id="defs2755head"/>
		
  
		<sodipodi:namedview bordercolor="#666666" borderopacity="1.0" gridtolerance="10000" guidetolerance="10" height="400px" id="basehead" inkscape:current-layer="svg2753" inkscape:cx="200" inkscape:cy="200" inkscape:document-units="px" inkscape:pageopacity="0.0" inkscape:pageshadow="2" inkscape:window-height="619" inkscape:window-width="872" inkscape:window-x="138" inkscape:window-y="175" inkscape:zoom="1.0175" objecttolerance="10" pagecolor="#ffffff" width="400px"/>
		
  
		<metadata id="metadata2758head">
			
    
			<rdf:RDF>
				
      
				<cc:Work rdf:about="">
					
        
					<dc:format>
						image/svg+xml
					</dc:format>
					
        
					<dc:type rdf:resource="http://purl.org/dc/dcmitype/StillImage"/>
					
      
				</cc:Work>
				
    
			</rdf:RDF>
			
  
		</metadata>
		
  
		<path d="M 300.26784,222.77401 C 296.02052,260.6716 291.6575,279.67484 279.14988,298.0583 C 266.64226,316.44176 249.17926,332.3753 241.0865,339.25286 C 232.99374,346.13041 214.40572,355.94943 200.98519,355.39506 C 187.56467,354.84068 176.84659,346.89134 165.49649,339.5487 C 154.14639,332.20607 135.83308,316.69963 123.39146,297.75378 C 110.94983,278.80791 106.17522,250.25169 103.91867,211.85398 C 101.66046,173.4282 107.44711,144.50034 126.06286,120.69344 C 144.6786,96.886522 179.24843,87.789362 206.08948,88.898132 C 232.93054,90.006882 260.85905,95.420422 279.22159,121.46612 C 297.405,147.25775 304.50797,184.94056 300.26784,222.77401 z " id="path3499head" sodipodi:nodetypes="czzsszzzzzz" style="fill:#deaa87;fill-opacity:1;stroke:#000000;stroke-width:2.92761993;stroke-linecap:round;stroke-linejoin:round;stroke-miterlimit:4;stroke-dashoffset:0;stroke-opacity:1;display:inline"/>
		

	</g>
	<g memaker:file="mouth">
		
  
		<defs id="defs2755mouth"/>
		
  
		<sodipodi:namedview bordercolor="#666666" borderopacity="1.0" gridtolerance="10000" guidetolerance="10" height="400px" id="basemouth" inkscape:current-layer="svg2753" inkscape:cx="200" inkscape:cy="200" inkscape:document-units="px" inkscape:pageopacity="0.0" inkscape:pageshadow="2" inkscape:window-height="732" inkscape:window-width="1090" inkscape:window-x="91" inkscape:window-y="146" inkscape:zoom="1.3" objecttolerance="10" pagecolor="#ffffff" width="400px"/>
		
  
		<metadata id="metadata2758mouth">
			
    
			<rdf:RDF>
				
      
				<cc:Work rdf:about="">
					
        
					<dc:format>
						image/svg+xml
					</dc:format>
					
        
					<dc:type rdf:resource="http://purl.org/dc/dcmitype/StillImage"/>
					
      
				</cc:Work>
				
    
			</rdf:RDF>
			
  
		</metadata>
		
  
		<g id="g4275mouth" style="display:inline" transform="translate(1.2307662,-12.799828)">
			
    
			<path d="M 244.52794,297.37941 C 239.00951,318.40789 220.50629,324.4031 199.8148,324.52642 C 182.06609,324.63218 164.53804,319.25268 155.47206,297.37941 C 162.5128,300.49962 183.87402,300.53981 198.09709,302.3226 C 213.4317,300.02656 234.06196,301.79619 244.52794,297.37941 z " id="path4268mouth" sodipodi:nodetypes="csccc" style="fill:#ff8080;fill-opacity:1;fill-rule:evenodd;stroke:#000000;stroke-width:0.94412702;stroke-linecap:round;stroke-linejoin:round;stroke-miterlimit:4;stroke-dasharray:none;stroke-dashoffset:0;stroke-opacity:1"/>
			
    
			<path d="M 240.68084,299.11534 C 220.02886,314.86651 213.83107,314.9949 199.84668,314.93069 C 187.11982,314.87228 180.01426,312.09324 159.86412,298.78911 C 192.75811,308.31488 207.26896,308.5847 240.68084,299.11534 z " id="path4271mouth" sodipodi:nodetypes="cscc" style="opacity:1;fill:#f4e3d7;fill-opacity:1;fill-rule:evenodd;stroke:#000000;stroke-width:1.00891173;stroke-linecap:round;stroke-linejoin:round;stroke-miterlimit:4;stroke-dasharray:none;stroke-dashoffset:0;stroke-opacity:1"/>
			
  
		</g>
		

	</g>
	<g memaker:file="nose">
		
  
		<defs id="defs2755nose"/>
		
  
		<sodipodi:namedview bordercolor="#666666" borderopacity="1.0" gridtolerance="10000" guidetolerance="10" height="400px" id="basenose" inkscape:current-layer="svg2753" inkscape:cx="205.87754" inkscape:cy="132.54617" inkscape:document-units="px" inkscape:pageopacity="0.0" inkscape:pageshadow="2" inkscape:window-height="732" inkscape:window-width="1090" inkscape:window-x="91" inkscape:window-y="146" inkscape:zoom="8" objecttolerance="10" pagecolor="#ffffff" showgrid="true" width="400px"/>
		
  
		<metadata id="metadata2758nose">
			
    
			<rdf:RDF>
				
      
				<cc:Work rdf:about="">
					
        
					<dc:format>
						image/svg+xml
					</dc:format>
					
        
					<dc:type rdf:resource="http://purl.org/dc/dcmitype/StillImage"/>
					
      
				</cc:Work>
				
    
			</rdf:RDF>
			
  
		</metadata>
		
  
		<path d="M 187.01845,267.89622 C 190.45332,262.79788 196.22319,270.39306 201.11176,270.43352 C 206.17712,270.47399 211.95433,262.57452 215.37356,267.78933" id="path2234nose" sodipodi:nodetypes="czc" style="fill:none;fill-rule:evenodd;stroke:#000000;stroke-width:2;stroke-linecap:round;stroke-linejoin:round;stroke-miterlimit:4;stroke-dasharray:none;stroke-opacity:1;display:inline"/>
		
  
		<path d="M 184.65949,252.49065 C 182.9622,255.35605 181.83624,259.61262 182.09186,263.46084 C 182.25386,266.00407 183.5933,273.02834 188.60363,268.71084" id="path2157nose" sodipodi:nodetypes="ccc" style="fill:none;fill-rule:evenodd;stroke:#000000;stroke-width:1px;stroke-linecap:round;stroke-linejoin:round;stroke-opacity:1"/>
		
  
		<path d="M 217.23594,252.31388 C 219.28679,256.41672 219.70563,259.43584 219.62679,263.46084 C 219.46479,266.00407 219.37535,273.65334 213.49002,268.58584" id="path3146nose" sodipodi:nodetypes="ccc" style="fill:none;fill-rule:evenodd;stroke:#000000;stroke-width:1px;stroke-linecap:round;stroke-linejoin:round;stroke-opacity:1"/>
		

	</g>
	<g memaker:file="eye">
		
  
		<defs id="defs2755eye"/>
		
  
		<sodipodi:namedview bordercolor="#666666" borderopacity="1.0" gridtolerance="10000" guidetolerance="10" height="400px" id="baseeye" inkscape:current-layer="svg2753" inkscape:cx="202.87117" inkscape:cy="175.60855" inkscape:document-units="px" inkscape:pageopacity="0.0" inkscape:pageshadow="2" inkscape:window-height="946" inkscape:window-width="1272" inkscape:window-x="0" inkscape:window-y="25" inkscape:zoom="4" objecttolerance="10" pagecolor="#ffffff" showgrid="false" width="400px"/>
		
  
		<metadata id="metadata2758eye">
			
    
			<rdf:RDF>
				
      
				<cc:Work rdf:about="">
					
        
					<dc:format>
						image/svg+xml
					</dc:format>
					
        
					<dc:type rdf:resource="http://purl.org/dc/dcmitype/StillImage"/>
					
      
				</cc:Work>
				
    
			</rdf:RDF>
			
  
		</metadata>
		
  
		<path d="M 246.52452,205.21945 C 238.38716,204.63872 231.06482,204.84156 225.97026,207.021 C 218.33812,211.96891 222.10526,216.81993 218.60761,216.69018 C 218.07764,218.09321 219.71545,218.48956 221.3168,218.47344 C 230.23944,221.14752 239.29803,221.48509 250.91939,219.26961 C 253.71558,218.42434 257.967,217.30516 260.54456,215.99248 C 262.86474,214.81088 265.40831,215.4899 261.01051,211.20078 C 256.65823,206.95605 254.66188,205.80017 246.52452,205.21945 z " id="path4177eye" sodipodi:nodetypes="cccccszz" style="fill:#f1f1f1;fill-opacity:1;fill-rule:evenodd;stroke:#000000;stroke-width:0.91605157;stroke-linecap:round;stroke-linejoin:round;stroke-miterlimit:4;stroke-dasharray:none;stroke-dashoffset:0;stroke-opacity:1"/>
		
  
		<path d="M 157.12347,204.47762 A 8.955224,8.2767973 0 1 1 146.54046,196.3387" id="path4179eye" sodipodi:cx="148.16824" sodipodi:cy="204.47762" sodipodi:end="4.5296038" sodipodi:open="true" sodipodi:rx="8.955224" sodipodi:ry="8.2767973" sodipodi:start="0" sodipodi:type="arc" style="fill:#676c53;fill-opacity:1;fill-rule:evenodd;stroke:#000000;stroke-width:2;stroke-linecap:round;stroke-linejoin:round;stroke-miterlimit:4;stroke-dasharray:none;stroke-dashoffset:0;stroke-opacity:0.39181285" transform="matrix(-0.7566534,-0.6133438,-0.6250158,0.7536149,480.29607,147.58374)"/>
		
  
		<path d="M 167.97829 200.9498 A 2.1709633 2.0352781 0 1 1  163.63636,200.9498 A 2.1709633 2.0352781 0 1 1  167.97829 200.9498 z" id="path4181eye" sodipodi:cx="165.80733" sodipodi:cy="200.9498" sodipodi:rx="2.1709633" sodipodi:ry="2.0352781" sodipodi:type="arc" style="fill:#000000;fill-opacity:1;fill-rule:evenodd;stroke:none;stroke-width:2;stroke-linecap:round;stroke-linejoin:round;stroke-miterlimit:4;stroke-dasharray:none;stroke-dashoffset:0;stroke-opacity:1" transform="matrix(-1.9666302,-0.1490717,-0.1539709,2.0312628,597.51627,-172.50039)"/>
		
  
		<path d="M 167.97829 200.9498 A 2.1709633 2.0352781 0 1 1  163.63636,200.9498 A 2.1709633 2.0352781 0 1 1  167.97829 200.9498 z" id="path4183eye" sodipodi:cx="165.80733" sodipodi:cy="200.9498" sodipodi:rx="2.1709633" sodipodi:ry="2.0352781" sodipodi:type="arc" style="fill:#ffffff;fill-opacity:1;fill-rule:evenodd;stroke:none;stroke-width:2;stroke-linecap:round;stroke-linejoin:round;stroke-miterlimit:4;stroke-dasharray:none;stroke-dashoffset:0;stroke-opacity:1" transform="matrix(-0.8253964,-7.3530663e-2,-5.761404e-2,0.9047315,385.22429,38.881143)"/>
		
  
		<path d="M 249.50472,206.45739 C 239.86533,205.80616 230.12158,205.90829 225.41276,207.90215 C 219.08833,210.15066 221.67259,215.60997 217.85898,216.51959 C 217.88677,218.68236 219.42433,219.91472 222.12987,218.76787 C 230.45483,221.41459 242.25472,222.57002 252.19925,219.94787 C 257.37663,218.42295 263.74326,214.45816 260.97993,211.77457 C 257.88692,209.66449 255.17063,207.20537 249.50472,206.45739 z " id="path4185eye" sodipodi:nodetypes="ccccccc" style="fill:none;fill-opacity:1;fill-rule:evenodd;stroke:#000000;stroke-width:1.71794236;stroke-linecap:round;stroke-linejoin:round;stroke-miterlimit:4;stroke-dasharray:none;stroke-dashoffset:0;stroke-opacity:0.13450293"/>
		
  
		<path d="M 250.61091,206.32601 C 240.63349,205.75835 230.54641,205.86912 225.66749,207.67319 C 219.11553,209.70961 221.77909,214.61937 217.82924,215.44562 C 217.85336,217.3926 219.44242,218.49906 222.24569,217.46138 C 230.85812,219.82802 243.07103,220.84541 253.37136,218.46562 C 258.73433,217.08281 265.33366,213.50122 262.47878,211.09065 C 259.28138,209.19702 256.47473,206.98845 250.61091,206.32601 z " id="path4187eye" sodipodi:nodetypes="ccccccc" style="fill:none;fill-opacity:1;fill-rule:evenodd;stroke:#000000;stroke-width:1.65845644;stroke-linecap:round;stroke-linejoin:round;stroke-miterlimit:4;stroke-dasharray:none;stroke-dashoffset:0;stroke-opacity:0.13450293"/>
		
  
		<path d="M 265.55545,210.63736 C 261.1639,204.71908 253.27272,203.78484 246.47002,203.1458 C 238.51963,202.31917 229.77058,201.59121 222.58297,205.77359 C 220.74185,207.07089 219.37204,208.92021 218.25624,210.85099" id="path4189eye" style="fill:none;fill-rule:evenodd;stroke:#000000;stroke-width:1.02140999px;stroke-linecap:round;stroke-linejoin:round;stroke-opacity:1"/>
		
  
		<path d="M 152.54163,205.21945 C 160.67899,204.63872 168.00133,204.84156 173.09589,207.021 C 180.72803,211.96891 176.96089,216.81993 180.45854,216.69018 C 180.98851,218.09321 179.3507,218.48956 177.74935,218.47344 C 168.82671,221.14752 159.76812,221.48509 148.14676,219.26961 C 145.35057,218.42434 141.09915,217.30516 138.52159,215.99248 C 136.20141,214.81088 133.65784,215.4899 138.05564,211.20078 C 142.40792,206.95605 144.40427,205.80017 152.54163,205.21945 z " id="path3157eye" sodipodi:nodetypes="cccccszz" style="fill:#f1f1f1;fill-opacity:1;fill-rule:evenodd;stroke:#000000;stroke-width:0.91605157;stroke-linecap:round;stroke-linejoin:round;stroke-miterlimit:4;stroke-dasharray:none;stroke-dashoffset:0;stroke-opacity:1"/>
		
  
		<path d="M 157.12347,204.47762 A 8.955224,8.2767973 0 1 1 146.54046,196.3387" id="path2227eye" sodipodi:cx="148.16824" sodipodi:cy="204.47762" sodipodi:end="4.5296038" sodipodi:open="true" sodipodi:rx="8.955224" sodipodi:ry="8.2767973" sodipodi:start="0" sodipodi:type="arc" style="fill:#676c53;fill-opacity:1;fill-rule:evenodd;stroke:#000000;stroke-width:2;stroke-linecap:round;stroke-linejoin:round;stroke-miterlimit:4;stroke-dasharray:none;stroke-dashoffset:0;stroke-opacity:0.39181285" transform="matrix(-0.7566534,-0.6133438,-0.6250158,0.7536149,398.57411,147.58374)"/>
		
  
		<path d="M 167.97829 200.9498 A 2.1709633 2.0352781 0 1 1  163.63636,200.9498 A 2.1709633 2.0352781 0 1 1  167.97829 200.9498 z" id="path2229eye" sodipodi:cx="165.80733" sodipodi:cy="200.9498" sodipodi:rx="2.1709633" sodipodi:ry="2.0352781" sodipodi:type="arc" style="fill:#000000;fill-opacity:1;fill-rule:evenodd;stroke:none;stroke-width:2;stroke-linecap:round;stroke-linejoin:round;stroke-miterlimit:4;stroke-dasharray:none;stroke-dashoffset:0;stroke-opacity:1" transform="matrix(1.9666302,-0.1490717,0.1539709,2.0312628,-198.45012,-172.50039)"/>
		
  
		<path d="M 167.97829 200.9498 A 2.1709633 2.0352781 0 1 1  163.63636,200.9498 A 2.1709633 2.0352781 0 1 1  167.97829 200.9498 z" id="path2231eye" sodipodi:cx="165.80733" sodipodi:cy="200.9498" sodipodi:rx="2.1709633" sodipodi:ry="2.0352781" sodipodi:type="arc" style="fill:#ffffff;fill-opacity:1;fill-rule:evenodd;stroke:none;stroke-width:2;stroke-linecap:round;stroke-linejoin:round;stroke-miterlimit:4;stroke-dasharray:none;stroke-dashoffset:0;stroke-opacity:1" transform="matrix(0.8253964,-7.3530663e-2,5.761404e-2,0.9047315,6.5151528,39.250097)"/>
		
  
		<path d="M 149.56143,206.45739 C 159.20082,205.80616 168.94457,205.90829 173.65339,207.90215 C 179.97782,210.15066 177.39356,215.60997 181.20717,216.51959 C 181.17938,218.68236 179.64182,219.91472 176.93628,218.76787 C 168.61132,221.41459 156.81143,222.57002 146.8669,219.94787 C 141.68952,218.42295 135.32289,214.45816 138.08622,211.77457 C 141.17923,209.66449 143.89552,207.20537 149.56143,206.45739 z " id="path2181eye" sodipodi:nodetypes="ccccccc" style="fill:none;fill-opacity:1;fill-rule:evenodd;stroke:#000000;stroke-width:1.71794236;stroke-linecap:round;stroke-linejoin:round;stroke-miterlimit:4;stroke-dasharray:none;stroke-dashoffset:0;stroke-opacity:0.13450293"/>
		
  
		<path d="M 148.45743,206.3346 C 158.43269,205.76007 168.51758,205.87218 173.39544,207.69807 C 179.94599,209.75914 177.283,214.7283 181.232,215.56454 C 181.20788,217.53508 179.61917,218.65493 176.8165,217.60469 C 168.20594,219.99996 155.99567,221.02966 145.69758,218.62108 C 140.33577,217.22154 133.73787,213.59661 136.59213,211.15688 C 139.78884,209.24035 142.59488,207.00506 148.45743,206.3346 z " id="path3155eye" sodipodi:nodetypes="ccccccc" style="fill:none;fill-opacity:1;fill-rule:evenodd;stroke:#000000;stroke-width:1.66827786;stroke-linecap:round;stroke-linejoin:round;stroke-miterlimit:4;stroke-dasharray:none;stroke-dashoffset:0;stroke-opacity:0.13450293"/>
		
  
		<path d="M 133.51071,210.63736 C 138.13861,204.5028 146.3849,203.6824 153.4679,203.07005 C 160.86674,202.38178 168.91947,201.6889 175.6974,205.34429 C 177.86641,206.66332 179.63915,208.60251 180.80991,210.85099" id="path3164eye" style="fill:none;fill-rule:evenodd;stroke:#000000;stroke-width:1.02140999px;stroke-linecap:round;stroke-linejoin:round;stroke-opacity:1"/>
		

	</g>
	<g memaker:file="hair">
		
  
		<defs id="defs2755hair"/>
		
  
		<sodipodi:namedview bordercolor="#666666" borderopacity="1.0" gridtolerance="10000" guidetolerance="10" height="400px" id="basehair" inkscape:current-layer="svg2753" inkscape:cx="200" inkscape:cy="200" inkscape:document-units="px" inkscape:pageopacity="0.0" inkscape:pageshadow="2" inkscape:window-height="732" inkscape:window-width="1090" inkscape:window-x="91" inkscape:window-y="146" inkscape:zoom="1.3" objecttolerance="10" pagecolor="#ffffff" width="400px"/>
		
  
		<metadata id="metadata2758hair">
			
    
			<rdf:RDF>
				
      
				<cc:Work rdf:about="">
					
        
					<dc:format>
						image/svg+xml
					</dc:format>
					
        
					<dc:type rdf:resource="http://purl.org/dc/dcmitype/StillImage"/>
					
      
				</cc:Work>
				
    
			</rdf:RDF>
			
  
		</metadata>
		
  
		<path d="M 73.32834,175.1697 C 67.24832,262.75435 90.379445,345.78717 117.17674,361.26256 C 125.2947,365.95067 156.8493,333.44733 136.16257,287.17679 C 122.39891,254.75241 105.54903,180.31337 121.51644,156.23098 C 137.48385,132.14859 156.83241,111.08419 198.94057,116.03762 C 219.15611,159.28501 261.58928,146.88064 272.4577,164.82179 C 284.84122,185.26402 278.85006,252.8012 260.60897,286.8847 C 253.81477,308.38265 261.23801,377.61385 295.47991,357.22785 C 329.72181,336.84184 326.73798,227.97446 325.98108,187.99232 C 325.2239,147.99454 318.4574,124.63465 297.1847,96.525355 C 275.91202,68.416055 237.9965,50.339596 196.9779,64.27286 C 124.78311,49.749365 79.40629,87.614905 73.32834,175.1697 z " id="path2263hair" sodipodi:nodetypes="csczcscczzcz" style="opacity:1;fill:#e9ddaf;fill-opacity:1;fill-rule:evenodd;stroke:#766f43;stroke-width:2.93124795;stroke-linecap:round;stroke-linejoin:round;stroke-miterlimit:4;stroke-dasharray:none;stroke-dashoffset:0;stroke-opacity:1;display:inline"/>
		

	</g>
</svg>
