<?xml version="1.0" ?>
<svg height="400" width="400" xmlns="http://www.w3.org/2000/svg" xmlns:cc="http://web.resource.org/cc/" xmlns:dc="http://purl.org/dc/elements/1.1/" xmlns:inkscape="http://www.inkscape.org/namespaces/inkscape" xmlns:memaker="http://launchpad.net/memaker" xmlns:rdf="http://www.w3.org/1999/02/22-rdf-syntax-ns#" xmlns:sodipodi="http://sodipodi.sourceforge.net/DTD/sodipodi-0.dtd" xmlns:xlink="http://www.w3.org/1999/xlink">
	
        
	<g memaker:file="ear">
		
  
		<sodipodi:namedview bordercolor="#666666" borderopacity="1.0" gridtolerance="10.0" guidetolerance="10.0" height="400px" id="baseear" inkscape:current-layer="svg2" inkscape:cx="132.07474" inkscape:cy="278.44949" inkscape:guide-bbox="true" inkscape:pageopacity="0.0" inkscape:pageshadow="2" inkscape:window-height="711" inkscape:window-width="1024" inkscape:window-x="0" inkscape:window-y="0" inkscape:zoom="0.85746605" objecttolerance="10.0" pagecolor="#ffffff" showgrid="false" showguides="true" width="400px"/>
		
  
		<metadata id="metadata7ear">
			
    
			<rdf:RDF>
				
      
				<cc:Work rdf:about="">
					
        
					<dc:format>
						image/svg+xml
					</dc:format>
					
        
					<dc:type rdf:resource="http://purl.org/dc/dcmitype/StillImage"/>
					
      
				</cc:Work>
				
    
			</rdf:RDF>
			
  
		</metadata>
		
  
		<defs id="defs5ear"/>
		
  
		<g id="g32699ear" transform="matrix(0.8125957,0,0,1,37.489352,21.894113)">
			
    
			<path d="M 158.38386,102.51889 C 161.12193,102.49973 162.7393,102.26927 162.82826,102.09136 C 162.82826,102.09136 139.46598,81.051607 101.33117,81.46068 C 89.657243,81.585907 76.610526,83.717213 62.416312,89.081022 C 61.84866,96.783975 112.92674,100.85692 142.42485,102.09553 C 142.40666,102.16106 139.50477,114.50554 141.19856,115.47343 C 142.89237,116.44131 154.02304,107.96925 154.02304,107.96925 C 151.84529,106.27544 158.38386,102.51889 158.38386,102.51889 z " id="path2171ear" sodipodi:nodetypes="ccccccsc" style="fill:#8ae234;fill-rule:evenodd;stroke:#000000;stroke-width:0.83254731px;stroke-linecap:butt;stroke-linejoin:miter;stroke-opacity:1"/>
			
    
			<path d="M 241.70688,102.51889 C 238.96881,102.49973 237.35144,102.26927 237.26248,102.09136 C 237.26248,102.09136 260.62476,81.051607 298.75957,81.46068 C 310.4335,81.585907 323.48021,83.717213 337.67442,89.081022 C 338.24208,96.783975 287.164,100.85692 257.66589,102.09553 C 257.68408,102.16106 260.58597,114.50554 258.89218,115.47343 C 257.19837,116.44131 246.0677,107.96925 246.0677,107.96925 C 248.24545,106.27544 241.70688,102.51889 241.70688,102.51889 z " id="path2183ear" sodipodi:nodetypes="ccccccsc" style="fill:#8ae234;fill-rule:evenodd;stroke:#000000;stroke-width:0.83254731px;stroke-linecap:butt;stroke-linejoin:miter;stroke-opacity:1"/>
			
    
			<path d="M 99.22889,85.082797 C 89.677527,85.406843 78.395221,87.223601 70.458194,90.301149 C 87.16706,95.367798 105.01394,95.620471 122.38691,97.391539 C 130.54029,97.944303 138.70088,98.375039 146.86379,98.756552 C 146.19315,102.56184 144.92423,106.38739 144.49181,110.14205 C 148.04944,108.97343 151.40046,107.21947 153.11961,104.09149 C 161.37984,106.04566 155.99476,100.19916 152.3891,99.007703 C 136.56172,89.269897 117.83522,84.451047 99.22889,85.082797 z " id="path16066ear" sodipodi:nodetypes="cccccccc" style="opacity:0.82258061;fill:#4e9a06;fill-opacity:1;fill-rule:evenodd;stroke:none;stroke-width:0.83254731px;stroke-linecap:butt;stroke-linejoin:miter;stroke-opacity:1"/>
			
    
			<use height="442" id="use23949ear" style="opacity:0.82258061;fill:#729fcf" transform="matrix(-1,0,0,1,399.08595,0)" width="450" x="0" xlink:href="#path16066ear" y="0"/>
			
  
		</g>
		
  
		<g id="layer1ear" inkscape:groupmode="layer" inkscape:label="hi" style="opacity:1;display:inline"/>
		

	</g>
	<g memaker:file="head">
		
  
		<sodipodi:namedview bordercolor="#666666" borderopacity="1.0" gridtolerance="10.0" guidetolerance="10.0" height="400px" id="basehead" inkscape:current-layer="svg2" inkscape:cx="291.41057" inkscape:cy="552.0208" inkscape:guide-bbox="true" inkscape:pageopacity="0.0" inkscape:pageshadow="2" inkscape:window-height="711" inkscape:window-width="1024" inkscape:window-x="0" inkscape:window-y="0" inkscape:zoom="1.0289593" objecttolerance="10.0" pagecolor="#ffffff" showgrid="false" showguides="true" width="400px"/>
		
  
		<metadata id="metadata7head">
			
    
			<rdf:RDF>
				
      
				<cc:Work rdf:about="">
					
        
					<dc:format>
						image/svg+xml
					</dc:format>
					
        
					<dc:type rdf:resource="http://purl.org/dc/dcmitype/StillImage"/>
					
      
				</cc:Work>
				
    
			</rdf:RDF>
			
  
		</metadata>
		
  
		<defs id="defs5head"/>
		
  
		<g id="layer1head" inkscape:groupmode="layer" inkscape:label="hi" style="opacity:1;display:inline">
			
    
			<path d="M 199.23687,305.96963 C 139.79601,305.96963 68.087376,257.97982 74.895651,185.21801 C 75.721838,173.91728 138.06469,93.176564 199.23687,93.176564 C 260.40905,93.176564 322.75189,173.91728 323.57808,185.21801 C 330.38636,257.97982 258.67773,305.96963 199.23687,305.96963 z " id="path3282head" sodipodi:nodetypes="ccscs" style="fill:#8ae234;fill-rule:evenodd;stroke:#000000;stroke-width:0.861642px;stroke-linecap:butt;stroke-linejoin:miter;stroke-opacity:1"/>
			
  
		</g>
		

	</g>
	<g memaker:file="mouth">
		
  
		<sodipodi:namedview bordercolor="#666666" borderopacity="1.0" gridtolerance="10.0" guidetolerance="10.0" height="400px" id="basemouth" inkscape:current-layer="layer1" inkscape:cx="264.6965" inkscape:cy="152.05549" inkscape:guide-bbox="true" inkscape:pageopacity="0.0" inkscape:pageshadow="2" inkscape:window-height="711" inkscape:window-width="1024" inkscape:window-x="0" inkscape:window-y="0" inkscape:zoom="1.7780416" objecttolerance="10.0" pagecolor="#ffffff" showgrid="false" showguides="true" width="400px"/>
		
  
		<metadata id="metadata7mouth">
			
    
			<rdf:RDF>
				
      
				<cc:Work rdf:about="">
					
        
					<dc:format>
						image/svg+xml
					</dc:format>
					
        
					<dc:type rdf:resource="http://purl.org/dc/dcmitype/StillImage"/>
					
      
				</cc:Work>
				
    
			</rdf:RDF>
			
  
		</metadata>
		
  
		<defs id="defs5mouth"/>
		
  
		<g id="layer1mouth" inkscape:groupmode="layer" inkscape:label="hi" style="opacity:1;display:inline"/>
		
  
		<g id="g4259mouth" transform="matrix(1.700983,0,0,1.2979948,-871.25469,28.044485)">
			
    
			<path d="M 615.68554,158.60787 C 621.93344,187.34573 642.08413,176.69003 643.89316,158.06541" id="path4253mouth" sodipodi:nodetypes="cc" style="fill:#ef2929;fill-rule:evenodd;stroke:#000000;stroke-width:1px;stroke-linecap:butt;stroke-linejoin:miter;stroke-opacity:1"/>
			
    
			<path d="M 619.60099,158.23592 C 624.11437,176.8433 638.67089,169.94388 639.97771,157.88469 L 640.02026,157.99849 C 635.15685,156.2052 631.75813,152.94722 630.31076,147.73789 L 628.83434,147.64562 C 627.64772,151.23673 625.99909,154.81293 619.60099,158.23592 z " id="path4255mouth" sodipodi:nodetypes="cccccc" style="fill:#eeeeec;fill-rule:evenodd;stroke:#000000;stroke-width:0.68391043px;stroke-linecap:butt;stroke-linejoin:miter;stroke-opacity:1"/>
			
    
			<path d="M 655.01347,149.38615 C 649.98163,164.72919 631.28918,159.26879 629.51813,144.77529 C 627.74707,159.26879 609.05462,164.72919 604.02278,149.38615" id="path4246mouth" sodipodi:nodetypes="ccc" style="fill:none;fill-rule:evenodd;stroke:#000000;stroke-width:1px;stroke-linecap:butt;stroke-linejoin:miter;stroke-opacity:1"/>
			
    
			<path d="M 629.4947,147.14472 L 629.4947,170.26092" id="path4257mouth" style="fill:none;fill-rule:evenodd;stroke:#000000;stroke-width:1.02463496px;stroke-linecap:butt;stroke-linejoin:miter;stroke-opacity:1"/>
			
  
		</g>
		

	</g>
	<g memaker:file="nose">
		
  
		<sodipodi:namedview bordercolor="#666666" borderopacity="1.0" gridtolerance="10.0" guidetolerance="10.0" height="400px" id="basenose" inkscape:current-layer="svg2" inkscape:cx="213.88132" inkscape:cy="209.47645" inkscape:guide-bbox="true" inkscape:pageopacity="0.0" inkscape:pageshadow="2" inkscape:window-height="711" inkscape:window-width="1024" inkscape:window-x="0" inkscape:window-y="0" inkscape:zoom="4.4243365" objecttolerance="10.0" pagecolor="#ffffff" showgrid="false" showguides="true" width="400px"/>
		
  
		<metadata id="metadata7nose">
			
    
			<rdf:RDF>
				
      
				<cc:Work rdf:about="">
					
        
					<dc:format>
						image/svg+xml
					</dc:format>
					
        
					<dc:type rdf:resource="http://purl.org/dc/dcmitype/StillImage"/>
					
      
				</cc:Work>
				
    
			</rdf:RDF>
			
  
		</metadata>
		
  
		<defs id="defs5nose"/>
		
  
		<g id="layer1nose" inkscape:groupmode="layer" inkscape:label="hi" style="opacity:1;display:inline"/>
		
  
		<path d="M 177.42774 176.68968 A 4.8594856 9.7189713 0 1 1  167.70877,176.68968 A 4.8594856 9.7189713 0 1 1  177.42774 176.68968 z" id="path2542nose" sodipodi:cx="172.56825" sodipodi:cy="176.68968" sodipodi:rx="4.8594856" sodipodi:ry="9.7189713" sodipodi:type="arc" style="opacity:0.92473118;fill:#2e3436;fill-opacity:1;stroke:none;stroke-width:0.82200003;stroke-linecap:square;stroke-linejoin:round;stroke-miterlimit:4;stroke-dasharray:none;stroke-dashoffset:0;stroke-opacity:1" transform="matrix(0.7654234,0.264755,-0.2523935,0.5168553,103.38363,55.160934)"/>
		
  
		<path d="M 177.42774 176.68968 A 4.8594856 9.7189713 0 1 1  167.70877,176.68968 A 4.8594856 9.7189713 0 1 1  177.42774 176.68968 z" id="path2544nose" sodipodi:cx="172.56825" sodipodi:cy="176.68968" sodipodi:rx="4.8594856" sodipodi:ry="9.7189713" sodipodi:type="arc" style="opacity:0.92473118;fill:#2e3436;fill-opacity:1;stroke:none;stroke-width:0.82200003;stroke-linecap:square;stroke-linejoin:round;stroke-miterlimit:4;stroke-dasharray:none;stroke-dashoffset:0;stroke-opacity:1" transform="matrix(-0.7654235,0.264755,0.2523935,0.5168553,299.84068,55.160934)"/>
		

	</g>
	<g memaker:file="eye">
		
  
		<sodipodi:namedview bordercolor="#666666" borderopacity="1.0" gridtolerance="10.0" guidetolerance="10.0" height="400px" id="baseeye" inkscape:current-layer="svg2" inkscape:cx="222.26391" inkscape:cy="258.9658" inkscape:guide-bbox="true" inkscape:pageopacity="0.0" inkscape:pageshadow="2" inkscape:window-height="711" inkscape:window-width="1024" inkscape:window-x="0" inkscape:window-y="0" inkscape:zoom="3.0724559" objecttolerance="10.0" pagecolor="#ffffff" showgrid="false" showguides="true" width="400px"/>
		
  
		<metadata id="metadata7eye">
			
    
			<rdf:RDF>
				
      
				<cc:Work rdf:about="">
					
        
					<dc:format>
						image/svg+xml
					</dc:format>
					
        
					<dc:type rdf:resource="http://purl.org/dc/dcmitype/StillImage"/>
					
      
				</cc:Work>
				
    
			</rdf:RDF>
			
  
		</metadata>
		
  
		<defs id="defs5eye"/>
		
  
		<g id="g8030eye" transform="matrix(1.0402223,0,0,0.8955862,-35.808646,27.815295)">
			
    
			<path d="M 664.91131 146.39388 A 11.338317 23.486515 0 1 1  642.23468,146.39388 A 11.338317 23.486515 0 1 1  664.91131 146.39388 z" id="path2197eye" sodipodi:cx="653.573" sodipodi:cy="146.39388" sodipodi:rx="11.338317" sodipodi:ry="23.486515" sodipodi:type="arc" style="opacity:1;fill:#ffffff;fill-opacity:1;stroke:#000000;stroke-width:0.7436893;stroke-linecap:square;stroke-linejoin:miter;stroke-miterlimit:4;stroke-dasharray:none;stroke-dashoffset:0;stroke-opacity:1" transform="matrix(0.9916505,-0.1289545,0.1289545,0.9916505,-414.31165,86.313405)"/>
			
    
			<path d="M 664.91131 146.39388 A 11.338317 23.486515 0 1 1  642.23468,146.39388 A 11.338317 23.486515 0 1 1  664.91131 146.39388 z" id="path6086eye" sodipodi:cx="653.573" sodipodi:cy="146.39388" sodipodi:rx="11.338317" sodipodi:ry="23.486515" sodipodi:type="arc" style="opacity:1;fill:#8ae234;fill-opacity:1;stroke:none;stroke-width:0.80000001;stroke-linecap:square;stroke-linejoin:miter;stroke-miterlimit:4;stroke-dasharray:none;stroke-dashoffset:0;stroke-opacity:1" transform="matrix(0.6644964,-8.6411297e-2,8.6411297e-2,0.6644964,-194.26453,106.40167)"/>
			
    
			<path d="M 664.91131 146.39388 A 11.338317 23.486515 0 1 1  642.23468,146.39388 A 11.338317 23.486515 0 1 1  664.91131 146.39388 z" id="path6088eye" sodipodi:cx="653.573" sodipodi:cy="146.39388" sodipodi:rx="11.338317" sodipodi:ry="23.486515" sodipodi:type="arc" style="opacity:1;fill:#2e3436;fill-opacity:1;stroke:none;stroke-width:0.80000001;stroke-linecap:square;stroke-linejoin:miter;stroke-miterlimit:4;stroke-dasharray:none;stroke-dashoffset:0;stroke-opacity:1" transform="matrix(0.3950754,-5.1375717e-2,5.1375717e-2,0.3950754,-13.049252,122.94494)"/>
			
    
			<path d="M 250.82229 139.38087 A 2.2759218 1.8835216 0 1 1  246.27045,139.38087 A 2.2759218 1.8835216 0 1 1  250.82229 139.38087 z" id="path6090eye" sodipodi:cx="248.54637" sodipodi:cy="139.38087" sodipodi:rx="2.2759218" sodipodi:ry="1.8835216" sodipodi:type="arc" style="opacity:0.39784947;fill:#ffffff;fill-opacity:1;stroke:none;stroke-width:0.80000001;stroke-linecap:square;stroke-linejoin:miter;stroke-miterlimit:4;stroke-dasharray:none;stroke-dashoffset:0;stroke-opacity:1" transform="translate(-0.3139203,0.6278405)"/>
			
  
		</g>
		
  
		<use height="442" id="use8046eye" transform="matrix(-1,0,0,1,400.63795,0)" width="450" x="0" xlink:href="#g8030eye" y="0"/>
		
  
		<g id="layer1eye" inkscape:groupmode="layer" inkscape:label="hi" style="opacity:1;display:inline"/>
		

	</g>
	<g memaker:file="hair">
		
  
		<sodipodi:namedview bordercolor="#666666" borderopacity="1.0" gridtolerance="10.0" guidetolerance="10.0" height="400px" id="basehair" inkscape:current-layer="svg2" inkscape:cx="274.92579" inkscape:cy="251.01073" inkscape:guide-bbox="true" inkscape:pageopacity="0.0" inkscape:pageshadow="2" inkscape:window-height="711" inkscape:window-width="1024" inkscape:window-x="0" inkscape:window-y="0" inkscape:zoom="0.71455504" objecttolerance="10.0" pagecolor="#ffffff" showgrid="false" showguides="true" width="400px"/>
		
  
		<metadata id="metadata7hair">
			
    
			<rdf:RDF>
				
      
				<cc:Work rdf:about="">
					
        
					<dc:format>
						image/svg+xml
					</dc:format>
					
        
					<dc:type rdf:resource="http://purl.org/dc/dcmitype/StillImage"/>
					
      
				</cc:Work>
				
    
			</rdf:RDF>
			
  
		</metadata>
		
  
		<defs id="defs5hair"/>
		
  
		<g id="layer1hair" inkscape:groupmode="layer" inkscape:label="hi" style="opacity:1;display:inline"/>
		
  
		<g id="g5414hair" transform="matrix(1.2303572,0,0,0.7186329,-187.46765,-280.65826)">
			
    
			<path d="M 304.22455,535.74167 L 322.39712,536.29236 C 322.39712,536.29236 323.9115,526.51772 327.90395,514.81569 C 331.89641,503.11366 338.36694,489.48424 338.36694,489.48424 L 327.90395,501.59928 C 327.90395,501.59928 330.45087,487.96987 333.96148,474.34044 C 337.47208,460.71101 341.94639,447.0816 341.94639,447.0816 C 341.94639,447.0816 338.0916,445.49838 334.51216,442.40078 C 330.93272,439.30318 327.62861,434.69121 327.62861,434.69121 L 321.57109,449.83502 L 319.91904,437.99531 C 319.91904,437.99531 311.03926,438.54599 304.77524,437.99531 C 298.51121,437.44462 294.86293,435.79258 294.86293,435.79258 L 299.2684,458.92129 L 290.18212,440.47339 C 290.18212,440.47339 295.9643,464.01512 299.54374,483.15138 C 303.12318,502.28764 304.49989,517.01843 304.49989,517.01843 L 293.76156,503.25133 C 293.76156,503.25133 297.75402,513.57666 300.36977,521.69924 C 302.98552,529.82182 304.22455,535.74167 304.22455,535.74167 z " id="path32360hair" sodipodi:nodetypes="ccsccscscccscccsccsc" style="fill:#729fcf;fill-opacity:1;fill-rule:evenodd;stroke:#000000;stroke-width:1.08393347;stroke-linecap:butt;stroke-linejoin:miter;stroke-miterlimit:4;stroke-dasharray:none;stroke-opacity:1"/>
			
    
			<path d="M 309.09104,479.43806 C 309.20423,481.60429 312.70954,519.64215 313.07459,523.31043 C 313.46226,526.1585 315.35311,534.77056 315.8794,535.91461 L 313.52391,535.67126 C 313.0198,534.50112 311.44074,526.56573 311.08057,523.69213 L 309.09104,479.43806 z " id="path3133hair" sodipodi:nodetypes="cccccc" style="fill:#000000;fill-opacity:1;stroke:none;stroke-width:2;stroke-miterlimit:4;stroke-dasharray:none;stroke-opacity:1"/>
			
    
			<path d="M 310.9827,460.1293 C 311.09589,457.96308 309.09437,450.7635 309.45942,447.09522 C 309.84709,444.24714 308.43384,438.66385 308.96013,437.5198 L 306.60464,437.76314 C 306.10053,438.93329 307.82557,443.56458 307.4654,446.43818 L 310.9827,460.1293 z " id="path2640hair" sodipodi:nodetypes="cccccc" style="fill:#000000;fill-opacity:1;stroke:none;stroke-width:2;stroke-miterlimit:4;stroke-dasharray:none;stroke-opacity:1"/>
			
    
			<path d="M 312.69432,449.25329 C 312.58113,447.08706 313.48128,446.22035 313.11623,442.55207 C 312.72857,439.70399 313.59113,439.07685 313.06484,437.93281 L 315.42033,438.17615 C 315.92444,439.3463 314.75009,440.1228 315.11025,442.9964 L 312.69432,449.25329 z " id="path3137hair" sodipodi:nodetypes="cccccc" style="fill:#000000;fill-opacity:1;stroke:none;stroke-width:2;stroke-miterlimit:4;stroke-dasharray:none;stroke-opacity:1"/>
			
    
			<path d="M 317.71151,518.33263 C 317.8247,520.49886 319.12728,523.29297 319.49233,526.96125 C 319.88,529.80933 318.46675,535.39262 318.99304,536.53667 L 316.63754,536.29332 C 316.13343,535.12318 317.85848,530.49189 317.49831,527.61829 L 317.71151,518.33263 z " id="path3139hair" sodipodi:nodetypes="cccccc" style="fill:#000000;fill-opacity:1;stroke:none;stroke-width:2;stroke-miterlimit:4;stroke-dasharray:none;stroke-opacity:1"/>
			
    
			<path d="M 308.70467,522.76748 C 308.62248,524.34045 307.67664,526.36933 307.41156,529.03298 C 307.13007,531.10105 308.15627,535.15525 307.77411,535.98598 L 309.48451,535.80928 C 309.85056,534.9596 308.59795,531.59668 308.85948,529.51008 L 308.70467,522.76748 z " id="path3141hair" sodipodi:nodetypes="cccccc" style="fill:#000000;fill-opacity:1;stroke:none;stroke-width:2;stroke-miterlimit:4;stroke-dasharray:none;stroke-opacity:1"/>
			
  
		</g>
		

	</g>
	<g memaker:file="accessory">
		
  
		<sodipodi:namedview bordercolor="#666666" borderopacity="1.0" gridtolerance="10.0" guidetolerance="10.0" height="400px" id="baseaccessory" inkscape:current-layer="svg2" inkscape:cx="309.68146" inkscape:cy="197.83192" inkscape:guide-bbox="true" inkscape:pageopacity="0.0" inkscape:pageshadow="2" inkscape:window-height="711" inkscape:window-width="1024" inkscape:window-x="0" inkscape:window-y="0" inkscape:zoom="1.0289593" objecttolerance="10.0" pagecolor="#ffffff" showgrid="false" showguides="true" width="400px"/>
		
  
		<metadata id="metadata7accessory">
			
    
			<rdf:RDF>
				
      
				<cc:Work rdf:about="">
					
        
					<dc:format>
						image/svg+xml
					</dc:format>
					
        
					<dc:type rdf:resource="http://purl.org/dc/dcmitype/StillImage"/>
					
      
				</cc:Work>
				
    
			</rdf:RDF>
			
  
		</metadata>
		
  
		<defs id="defs5accessory"/>
		
  
		<g id="g27841accessory" transform="matrix(0.8929799,0,0,-0.8929799,0.6662338,355.79388)">
			
    
			<path d="M 328.38345,177.50152 C 361.2328,160.60569 383.39947,174.94699 401.40533,199.46543 C 401.40533,199.46543 399.85988,200.97599 398.76852,203.02841 L 406.66278,211.33183 L 395.56148,220.97454 L 388.654,213.20681 C 387.50266,213.94021 386.24322,214.32146 385.29215,215.70719 C 374.77376,198.94314 361.77391,189.44551 344.00209,193.92143" id="path9027accessory" sodipodi:nodetypes="cccccccc" style="fill:#d3d7cf;fill-opacity:1;fill-rule:evenodd;stroke:#000000;stroke-width:1.06133819px;stroke-linecap:butt;stroke-linejoin:miter;stroke-opacity:1"/>
			
    
			<path d="M 396.91946,196.07328 C 401.75161,195.39099 406.28119,197.68015 409.52055,201.08141 C 412.53916,204.36254 415.49956,207.69768 418.69071,210.80735 C 422.59583,213.60914 427.44062,214.07152 432.00774,215.12772 C 435.58431,215.80556 438.83169,219.79452 436.67997,223.32266 C 433.77475,227.41352 428.59583,223.96509 425.81132,221.55753 C 424.04191,219.87377 418.07048,215.67988 417.26436,218.46775 C 416.81446,221.07737 422.41686,223.68783 425.32727,225.32134 C 429.52342,227.8988 436.71995,227.68946 436.7302,234.19071 C 437.37534,238.58769 431.72472,241.14289 428.35063,238.76099 C 424.37759,236.26869 422.70067,231.53001 419.27663,228.42398 C 418.04397,225.8444 409.79752,220.91284 412.43294,226.90587 C 416.14019,232.97424 424.45184,235.74418 425.84943,243.22929 C 426.92403,246.15754 425.61501,251.85608 420.71847,251.72945 C 414.89919,250.93927 412.86142,244.42223 411.66561,239.51728 C 410.59662,235.64351 409.9488,231.11779 406.75367,228.36415 C 396.89375,232.2745 405.79446,241.6859 405.77738,248.95706 C 404.57141,253.39093 398.17284,254.33142 395.52455,250.66278 C 391.21037,246.21779 392.46048,239.70744 391.84639,234.1404 C 390.86822,230.01287 393.97985,227.50822 390.57319,225.1529 C 386.43339,224.23286 386.61809,230.68911 384.99647,233.27399 C 383.37232,237.62883 376.56897,240.10644 373.45739,235.9887 C 370.97691,232.21024 372.53589,226.63094 377.21725,225.58933 C 382.02084,223.7856 381.42632,217.82585 380.59442,213.76335 C 379.15113,209.84212 380.97753,205.46322 385.01372,204.10171 C 388.6232,202.86123 391.65602,200.43822 393.74238,197.29772 C 394.6479,196.5807 395.78201,196.20252 396.91946,196.07328 z " id="path14122accessory" sodipodi:nodetypes="ccccccccccccccccccccccccccc" style="fill:#d3d7cf;stroke:#000000;stroke-width:0.86664319;stroke-opacity:1"/>
			
    
			<path d="M 398.57191,199.96875 C 406.41974,200.85855 411.3215,209.78173 415.85316,214.125 C 413.55548,215.20579 413.03199,218.42968 412.94691,220.21875 C 408.87539,218.89009 408.87074,224.94116 405.82191,224.28125 C 398.71623,226.0176 396.01658,234.58686 399.04066,240.75 C 399.25838,243.08013 403.2403,247.07984 400.54066,248.84375 C 395.85685,248.61 395.92239,241.89465 395.79066,238.46875 C 394.40306,233.05812 398.65373,224.66351 392.13441,221.6875 C 389.37266,220.38319 385.66094,221.83465 384.07191,223.71875 C 386.35157,219.00175 383.05897,213.51468 384.60316,209.03125 C 388.44359,206.27381 393.50582,205.10911 395.97816,200.6875 C 396.57262,200.06372 397.63614,199.72309 398.57191,199.96875 z M 428.16566,218.15625 C 429.29316,218.11145 434.29813,220.17268 432.41566,221 C 430.85499,220.93731 427.2225,218.25288 428.16566,218.15625 z M 382.97816,225.875 C 382.61489,229.01735 380.71178,235.31664 376.60316,233.65625 C 374.62057,230.91808 378.38773,228.50345 380.66566,228.125 C 381.60941,227.57543 382.45738,226.48973 382.97816,225.875 z M 376.72816,233.78125 C 376.77109,233.83891 376.62452,233.81376 376.72816,233.78125 z M 426.38441,230.15625 C 427.99489,231.18947 434.42577,232.36123 432.04066,235.125 C 428.28102,236.81788 427.25086,231.60492 425.29066,229.6875 L 426.20981,230.08142 L 426.38441,230.15625 z M 414.88441,235.5 C 418.09963,237.91686 424.55362,243.9037 420.63441,247.65625 C 415.7998,245.73179 415.97156,239.34033 414.47816,235.15625 L 414.88441,235.5 z " id="path27839accessory" style="opacity:0.3010753;fill:#ffffff;fill-opacity:1;stroke:none;stroke-width:0.77389497;stroke-opacity:1"/>
			
  
		</g>
		
  
		<g id="g27846accessory" transform="matrix(0.8929799,0,0,-0.8929799,0.6662338,355.79361)">
			
    
			<path d="M 115.59904,177.50152 C 82.749683,160.60569 60.583013,174.94699 42.577153,199.46543 C 42.577153,199.46543 44.122603,200.97599 45.213963,203.02841 L 37.319703,211.33183 L 48.421003,220.97454 L 55.328483,213.20681 C 56.479823,213.94021 57.739263,214.32146 58.690333,215.70719 C 69.208723,198.94314 82.208573,189.44551 99.980393,193.92143" id="path18086accessory" sodipodi:nodetypes="cccccccc" style="fill:#d3d7cf;fill-opacity:1;fill-rule:evenodd;stroke:#000000;stroke-width:1.06133819px;stroke-linecap:butt;stroke-linejoin:miter;stroke-opacity:1"/>
			
    
			<path d="M 47.063023,196.07328 C 42.230873,195.39099 37.701293,197.68015 34.461933,201.08141 C 31.443323,204.36254 28.482923,207.69768 25.291773,210.80735 C 21.386653,213.60914 16.541863,214.07152 11.974743,215.12772 C 8.3981732,215.80556 5.1507932,219.79452 7.3025132,223.32266 C 10.207733,227.41352 15.386653,223.96509 18.171163,221.55753 C 19.940573,219.87377 25.912003,215.67988 26.718123,218.46775 C 27.168023,221.07737 21.565623,223.68783 18.655213,225.32134 C 14.459063,227.8988 7.2625332,227.68946 7.2522832,234.19071 C 6.6071432,238.58769 12.257763,241.14289 15.631853,238.76099 C 19.604893,236.26869 21.281813,231.53001 24.705853,228.42398 C 25.938513,225.8444 34.184963,220.91284 31.549543,226.90587 C 27.842293,232.97424 19.530643,235.74418 18.133053,243.22929 C 17.058453,246.15754 18.367473,251.85608 23.264013,251.72945 C 29.083293,250.93927 31.121063,244.42223 32.316873,239.51728 C 33.385863,235.64351 34.033683,231.11779 37.228813,228.36415 C 47.088733,232.2745 38.188023,241.6859 38.205103,248.95706 C 39.411073,253.39093 45.809643,254.33142 48.457933,250.66278 C 52.772113,246.21779 51.522003,239.70744 52.136093,234.1404 C 53.114263,230.01287 50.002633,227.50822 53.409293,225.1529 C 57.549093,224.23286 57.364393,230.68911 58.986013,233.27399 C 60.610163,237.62883 67.413513,240.10644 70.525093,235.9887 C 73.005573,232.21024 71.446593,226.63094 66.765233,225.58933 C 61.961643,223.7856 62.556163,217.82585 63.388063,213.76335 C 64.831353,209.84212 63.004953,205.46322 58.968763,204.10171 C 55.359283,202.86123 52.326463,200.43822 50.240103,197.29772 C 49.334583,196.5807 48.200473,196.20252 47.063023,196.07328 z " id="path18088accessory" sodipodi:nodetypes="ccccccccccccccccccccccccccc" style="fill:#d3d7cf;stroke:#000000;stroke-width:0.86664319;stroke-opacity:1"/>
			
    
			<path d="M 45.1875,199.96875 C 37.339676,200.85855 32.437912,209.78173 27.90625,214.125 C 30.203932,215.20579 30.727424,218.42968 30.8125,220.21875 C 34.884018,218.89009 34.888674,224.94116 37.9375,224.28125 C 45.043184,226.0176 47.742828,234.58686 44.71875,240.75 C 44.501034,243.08013 40.519116,247.07984 43.21875,248.84375 C 47.902565,248.61 47.837026,241.89465 47.96875,238.46875 C 49.35635,233.05812 45.105681,224.66351 51.625,221.6875 C 54.386755,220.38319 58.098473,221.83465 59.6875,223.71875 C 57.407846,219.00175 60.700444,213.51468 59.15625,209.03125 C 55.315824,206.27381 50.253592,205.10911 47.78125,200.6875 C 47.186793,200.06372 46.123276,199.72309 45.1875,199.96875 z M 15.59375,218.15625 C 14.466249,218.11145 9.4612772,220.17268 11.34375,221 C 12.904425,220.93731 16.536912,218.25288 15.59375,218.15625 z M 60.78125,225.875 C 61.144523,229.01735 63.047634,235.31664 67.15625,233.65625 C 69.138842,230.91808 65.371682,228.50345 63.09375,228.125 C 62.15,227.57543 61.302036,226.48973 60.78125,225.875 z M 67.03125,233.78125 C 66.98832,233.83891 67.134893,233.81376 67.03125,233.78125 z M 17.375,230.15625 C 15.764526,231.18947 9.3336422,232.36123 11.71875,235.125 C 15.478395,236.81788 16.508547,231.60492 18.46875,229.6875 L 17.549605,230.08142 L 17.375,230.15625 z M 28.875,235.5 C 25.659777,237.91686 19.205793,243.9037 23.125,247.65625 C 27.959612,245.73179 27.787848,239.34033 29.28125,235.15625 L 28.875,235.5 z " id="path26864accessory" style="opacity:0.3010753;fill:#ffffff;fill-opacity:1;stroke:none;stroke-width:0.77389497;stroke-opacity:1"/>
			
  
		</g>
		
  
		<g id="layer1accessory" inkscape:groupmode="layer" inkscape:label="hi" style="opacity:1;display:inline">
			
    
			<g id="g3262accessory" transform="matrix(0.8929799,0,0,-0.8929799,0.6662338,355.79388)">
				
      
				<path d="M 328.38345,177.50152 C 361.2328,160.60569 383.39947,174.94699 401.40533,199.46543 C 401.40533,199.46543 399.85988,200.97599 398.76852,203.02841 L 406.66278,211.33183 L 395.56148,220.97454 L 388.654,213.20681 C 387.50266,213.94021 386.24322,214.32146 385.29215,215.70719 C 374.77376,198.94314 361.77391,189.44551 344.00209,193.92143" id="path3264accessory" sodipodi:nodetypes="cccccccc" style="fill:#8ae234;fill-opacity:1;fill-rule:evenodd;stroke:#000000;stroke-width:1.06133819px;stroke-linecap:butt;stroke-linejoin:miter;stroke-opacity:1"/>
				
      
				<path d="M 396.91946,196.07328 C 401.75161,195.39099 406.28119,197.68015 409.52055,201.08141 C 412.53916,204.36254 415.49956,207.69768 418.69071,210.80735 C 422.59583,213.60914 427.44062,214.07152 432.00774,215.12772 C 435.58431,215.80556 438.83169,219.79452 436.67997,223.32266 C 433.77475,227.41352 428.59583,223.96509 425.81132,221.55753 C 424.04191,219.87377 418.07048,215.67988 417.26436,218.46775 C 416.81446,221.07737 422.41686,223.68783 425.32727,225.32134 C 429.52342,227.8988 436.71995,227.68946 436.7302,234.19071 C 437.37534,238.58769 431.72472,241.14289 428.35063,238.76099 C 424.37759,236.26869 422.70067,231.53001 419.27663,228.42398 C 418.04397,225.8444 409.79752,220.91284 412.43294,226.90587 C 416.14019,232.97424 424.45184,235.74418 425.84943,243.22929 C 426.92403,246.15754 425.61501,251.85608 420.71847,251.72945 C 414.89919,250.93927 412.86142,244.42223 411.66561,239.51728 C 410.59662,235.64351 409.9488,231.11779 406.75367,228.36415 C 396.89375,232.2745 405.79446,241.6859 405.77738,248.95706 C 404.57141,253.39093 398.17284,254.33142 395.52455,250.66278 C 391.21037,246.21779 392.46048,239.70744 391.84639,234.1404 C 390.86822,230.01287 393.97985,227.50822 390.57319,225.1529 C 386.43339,224.23286 386.61809,230.68911 384.99647,233.27399 C 383.37232,237.62883 376.56897,240.10644 373.45739,235.9887 C 370.97691,232.21024 372.53589,226.63094 377.21725,225.58933 C 382.02084,223.7856 381.42632,217.82585 380.59442,213.76335 C 379.15113,209.84212 380.97753,205.46322 385.01372,204.10171 C 388.6232,202.86123 391.65602,200.43822 393.74238,197.29772 C 394.6479,196.5807 395.78201,196.20252 396.91946,196.07328 z " id="path3266accessory" sodipodi:nodetypes="ccccccccccccccccccccccccccc" style="fill:#8ae234;stroke:#000000;stroke-width:0.86664319;stroke-opacity:1"/>
				
      
				<path d="M 398.57191,199.96875 C 406.41974,200.85855 411.3215,209.78173 415.85316,214.125 C 413.55548,215.20579 413.03199,218.42968 412.94691,220.21875 C 408.87539,218.89009 408.87074,224.94116 405.82191,224.28125 C 398.71623,226.0176 396.01658,234.58686 399.04066,240.75 C 399.25838,243.08013 403.2403,247.07984 400.54066,248.84375 C 395.85685,248.61 395.92239,241.89465 395.79066,238.46875 C 394.40306,233.05812 398.65373,224.66351 392.13441,221.6875 C 389.37266,220.38319 385.66094,221.83465 384.07191,223.71875 C 386.35157,219.00175 383.05897,213.51468 384.60316,209.03125 C 388.44359,206.27381 393.50582,205.10911 395.97816,200.6875 C 396.57262,200.06372 397.63614,199.72309 398.57191,199.96875 z M 428.16566,218.15625 C 429.29316,218.11145 434.29813,220.17268 432.41566,221 C 430.85499,220.93731 427.2225,218.25288 428.16566,218.15625 z M 382.97816,225.875 C 382.61489,229.01735 380.71178,235.31664 376.60316,233.65625 C 374.62057,230.91808 378.38773,228.50345 380.66566,228.125 C 381.60941,227.57543 382.45738,226.48973 382.97816,225.875 z M 376.72816,233.78125 C 376.77109,233.83891 376.62452,233.81376 376.72816,233.78125 z M 426.38441,230.15625 C 427.99489,231.18947 434.42577,232.36123 432.04066,235.125 C 428.28102,236.81788 427.25086,231.60492 425.29066,229.6875 L 426.20981,230.08142 L 426.38441,230.15625 z M 414.88441,235.5 C 418.09963,237.91686 424.55362,243.9037 420.63441,247.65625 C 415.7998,245.73179 415.97156,239.34033 414.47816,235.15625 L 414.88441,235.5 z " id="path3268accessory" style="opacity:0.3010753;fill:#ffffff;fill-opacity:1;stroke:none;stroke-width:0.77389497;stroke-opacity:1"/>
				
    
			</g>
			
    
			<g id="g3270accessory" transform="matrix(0.8929799,0,0,-0.8929799,0.6662338,355.79361)">
				
      
				<path d="M 115.59904,177.50152 C 82.749683,160.60569 60.583013,174.94699 42.577153,199.46543 C 42.577153,199.46543 44.122603,200.97599 45.213963,203.02841 L 37.319703,211.33183 L 48.421003,220.97454 L 55.328483,213.20681 C 56.479823,213.94021 57.739263,214.32146 58.690333,215.70719 C 69.208723,198.94314 82.208573,189.44551 99.980393,193.92143" id="path3272accessory" sodipodi:nodetypes="cccccccc" style="fill:#8ae234;fill-opacity:1;fill-rule:evenodd;stroke:#000000;stroke-width:1.06133819px;stroke-linecap:butt;stroke-linejoin:miter;stroke-opacity:1"/>
				
      
				<path d="M 47.063023,196.07328 C 42.230873,195.39099 37.701293,197.68015 34.461933,201.08141 C 31.443323,204.36254 28.482923,207.69768 25.291773,210.80735 C 21.386653,213.60914 16.541863,214.07152 11.974743,215.12772 C 8.3981732,215.80556 5.1507932,219.79452 7.3025132,223.32266 C 10.207733,227.41352 15.386653,223.96509 18.171163,221.55753 C 19.940573,219.87377 25.912003,215.67988 26.718123,218.46775 C 27.168023,221.07737 21.565623,223.68783 18.655213,225.32134 C 14.459063,227.8988 7.2625332,227.68946 7.2522832,234.19071 C 6.6071432,238.58769 12.257763,241.14289 15.631853,238.76099 C 19.604893,236.26869 21.281813,231.53001 24.705853,228.42398 C 25.938513,225.8444 34.184963,220.91284 31.549543,226.90587 C 27.842293,232.97424 19.530643,235.74418 18.133053,243.22929 C 17.058453,246.15754 18.367473,251.85608 23.264013,251.72945 C 29.083293,250.93927 31.121063,244.42223 32.316873,239.51728 C 33.385863,235.64351 34.033683,231.11779 37.228813,228.36415 C 47.088733,232.2745 38.188023,241.6859 38.205103,248.95706 C 39.411073,253.39093 45.809643,254.33142 48.457933,250.66278 C 52.772113,246.21779 51.522003,239.70744 52.136093,234.1404 C 53.114263,230.01287 50.002633,227.50822 53.409293,225.1529 C 57.549093,224.23286 57.364393,230.68911 58.986013,233.27399 C 60.610163,237.62883 67.413513,240.10644 70.525093,235.9887 C 73.005573,232.21024 71.446593,226.63094 66.765233,225.58933 C 61.961643,223.7856 62.556163,217.82585 63.388063,213.76335 C 64.831353,209.84212 63.004953,205.46322 58.968763,204.10171 C 55.359283,202.86123 52.326463,200.43822 50.240103,197.29772 C 49.334583,196.5807 48.200473,196.20252 47.063023,196.07328 z " id="path3274accessory" sodipodi:nodetypes="ccccccccccccccccccccccccccc" style="fill:#8ae234;stroke:#000000;stroke-width:0.86664319;stroke-opacity:1"/>
				
      
				<path d="M 45.1875,199.96875 C 37.339676,200.85855 32.437912,209.78173 27.90625,214.125 C 30.203932,215.20579 30.727424,218.42968 30.8125,220.21875 C 34.884018,218.89009 34.888674,224.94116 37.9375,224.28125 C 45.043184,226.0176 47.742828,234.58686 44.71875,240.75 C 44.501034,243.08013 40.519116,247.07984 43.21875,248.84375 C 47.902565,248.61 47.837026,241.89465 47.96875,238.46875 C 49.35635,233.05812 45.105681,224.66351 51.625,221.6875 C 54.386755,220.38319 58.098473,221.83465 59.6875,223.71875 C 57.407846,219.00175 60.700444,213.51468 59.15625,209.03125 C 55.315824,206.27381 50.253592,205.10911 47.78125,200.6875 C 47.186793,200.06372 46.123276,199.72309 45.1875,199.96875 z M 15.59375,218.15625 C 14.466249,218.11145 9.4612772,220.17268 11.34375,221 C 12.904425,220.93731 16.536912,218.25288 15.59375,218.15625 z M 60.78125,225.875 C 61.144523,229.01735 63.047634,235.31664 67.15625,233.65625 C 69.138842,230.91808 65.371682,228.50345 63.09375,228.125 C 62.15,227.57543 61.302036,226.48973 60.78125,225.875 z M 67.03125,233.78125 C 66.98832,233.83891 67.134893,233.81376 67.03125,233.78125 z M 17.375,230.15625 C 15.764526,231.18947 9.3336422,232.36123 11.71875,235.125 C 15.478395,236.81788 16.508547,231.60492 18.46875,229.6875 L 17.549605,230.08142 L 17.375,230.15625 z M 28.875,235.5 C 25.659777,237.91686 19.205793,243.9037 23.125,247.65625 C 27.959612,245.73179 27.787848,239.34033 29.28125,235.15625 L 28.875,235.5 z " id="path3276accessory" style="opacity:0.3010753;fill:#ffffff;fill-opacity:1;stroke:none;stroke-width:0.77389497;stroke-opacity:1"/>
				
    
			</g>
			
    
			<path d="M 161.57096,298.23821 C 164.30903,298.25736 165.9264,298.48782 166.01536,298.66573 C 166.01536,298.66573 117.19299,342.02667 104.51827,338.1299 C 95.28573,332.42439 79.79762,317.03987 65.60341,311.67606 C 65.03576,303.97311 116.11383,299.90017 145.61195,298.66156 C 145.59377,298.59603 142.69187,286.25155 144.38566,285.28367 C 146.07948,284.31577 157.21015,292.78784 157.21015,292.78784 C 155.03239,294.48165 161.57096,298.23821 161.57096,298.23821 z " id="use3278accessory" sodipodi:nodetypes="ccccccsc" style="fill:#8ae234;fill-rule:evenodd;stroke:#000000;stroke-width:0.83254731px;stroke-linecap:butt;stroke-linejoin:miter;stroke-opacity:1"/>
			
    
			<path d="M 237.45201,298.23821 C 234.71394,298.25736 233.09657,298.48782 233.00761,298.66573 C 233.00761,298.66573 281.82998,342.02667 294.5047,338.1299 C 303.73724,332.42439 319.22535,317.03987 333.41956,311.67606 C 333.98721,303.97311 282.90914,299.90017 253.41102,298.66156 C 253.4292,298.59603 256.3311,286.25155 254.63731,285.28367 C 252.94349,284.31577 241.81282,292.78784 241.81282,292.78784 C 243.99058,294.48165 237.45201,298.23821 237.45201,298.23821 z " id="path3280accessory" sodipodi:nodetypes="ccccccsc" style="fill:#8ae234;fill-rule:evenodd;stroke:#000000;stroke-width:0.83254731px;stroke-linecap:butt;stroke-linejoin:miter;stroke-opacity:1"/>
			
    
			<path d="M 248.49606,294.29124 C 247.13575,296.42474 244.897,298.7448 244.00326,300.70954 C 246.65088,304.85368 247.50198,301.12411 248.16119,297.94688 C 248.26624,297.29762 249.22128,293.72989 248.49606,294.29124 z M 248.63559,304.95119 C 261.39964,314.29129 273.37687,325.90017 288.4011,331.46153 C 294.0998,334.75743 298.55201,328.15226 302.7725,325.29439 C 308.59155,319.78191 315.43829,315.7873 322.02738,311.34158 C 297.5979,305.67225 272.26955,305.34858 247.26821,303.75125 C 247.72401,304.15123 248.17979,304.55121 248.63559,304.95119 z " id="path3304accessory" style="opacity:0.20967742;fill:#000000;fill-opacity:1;fill-rule:evenodd;stroke:none;stroke-width:0.83254731px;stroke-linecap:butt;stroke-linejoin:miter;stroke-opacity:1"/>
			
    
			<path d="M 150.96273,294.29124 C 152.32304,296.42474 154.56178,298.7448 155.45553,300.70954 C 152.80791,304.85368 151.95681,301.12411 151.29759,297.94688 C 151.19255,297.29762 150.23751,293.72989 150.96273,294.29124 z M 150.8232,304.95119 C 138.05915,314.29129 126.08192,325.90017 111.05769,331.46153 C 105.35898,334.75743 100.90677,328.15226 96.686291,325.29439 C 90.867241,319.78191 84.020498,315.7873 77.431416,311.34158 C 101.86089,305.67225 127.18923,305.34858 152.19057,303.75125 C 151.73478,304.15123 151.27899,304.55121 150.8232,304.95119 z " id="path3306accessory" style="opacity:0.20967742;fill:#000000;fill-opacity:1;fill-rule:evenodd;stroke:none;stroke-width:0.83254731px;stroke-linecap:butt;stroke-linejoin:miter;stroke-opacity:1"/>
			
  
		</g>
		

	</g>
</svg>
