<?xml version="1.0" ?>
<svg height="400" width="400" xmlns="http://www.w3.org/2000/svg" xmlns:cc="http://web.resource.org/cc/" xmlns:dc="http://purl.org/dc/elements/1.1/" xmlns:inkscape="http://www.inkscape.org/namespaces/inkscape" xmlns:memaker="http://launchpad.net/memaker" xmlns:rdf="http://www.w3.org/1999/02/22-rdf-syntax-ns#" xmlns:sodipodi="http://sodipodi.sourceforge.net/DTD/sodipodi-0.dtd" xmlns:xlink="http://www.w3.org/1999/xlink">
	
        
	<g memaker:file="ear">
		
  
		<defs id="defs4ear">
			
    
			<linearGradient id="linearGradient2642ear">
				
      
				<stop id="stop2644ear" offset="0" style="stop-color:#f0dad4;stop-opacity:1;"/>
				
      
				<stop id="stop2646ear" offset="1" style="stop-color:#e4b8ad;stop-opacity:1;"/>
				
    
			</linearGradient>
			
    
			<linearGradient gradientTransform="matrix(0.3351016,0,0,0.3351016,62.807614,530.96949)" gradientUnits="userSpaceOnUse" id="linearGradient5298ear" inkscape:collect="always" x1="65.700233" x2="95.596695" xlink:href="#linearGradient2642ear" y1="596.83783" y2="596.83783"/>
			
    
			<linearGradient gradientTransform="matrix(0.3351016,0,0,0.3351016,62.807614,530.96949)" gradientUnits="userSpaceOnUse" id="linearGradient2182ear" inkscape:collect="always" x1="95.099686" x2="78.839409" xlink:href="#linearGradient2642ear" y1="138.7863" y2="155.67285"/>
			
  
		</defs>
		
  
		<sodipodi:namedview bordercolor="#666666" borderlayer="false" borderopacity="1.0" gridtolerance="10000" guidetolerance="10" height="400px" id="baseear" inkscape:current-layer="g2174" inkscape:cx="194.32073" inkscape:cy="204.20106" inkscape:document-units="px" inkscape:pageopacity="0.0" inkscape:pageshadow="2" inkscape:window-height="692" inkscape:window-width="1016" inkscape:window-x="0" inkscape:window-y="0" inkscape:zoom="1.895" objecttolerance="10" pagecolor="#ffffff" width="400px"/>
		
  
		<metadata id="metadata7ear">
			
    
			<rdf:RDF>
				
      
				<cc:Work rdf:about="">
					
        
					<dc:format>
						image/svg+xml
					</dc:format>
					
        
					<dc:type rdf:resource="http://purl.org/dc/dcmitype/StillImage"/>
					
      
				</cc:Work>
				
    
			</rdf:RDF>
			
  
		</metadata>
		
  
		<g id="layer1ear" inkscape:groupmode="layer" inkscape:label="Layer 1">
			
    
			<g id="g5422ear" transform="matrix(2.9841692,0,0,2.9841692,-179.53074,-1584.5028)">
				
      
				<g id="g2174ear" transform="matrix(-1,0,0,1,253.01297,0)">
					
        
					<path d="M 89.854398,582.33281 C 70.069119,568.87819 68.29822,620.42227 94.340568,611.34336 L 89.854398,582.33281 z " id="path2176ear" sodipodi:nodetypes="ccc" style="fill:url(#linearGradient2182ear);fill-opacity:1.0;fill-rule:evenodd;stroke:#000000;stroke-width:0.67020321;stroke-linecap:butt;stroke-linejoin:miter;stroke-miterlimit:4;stroke-dasharray:none;stroke-opacity:1"/>
					
        
					<path d="M 80.0351,590.40791 L 85.119424,602.37103" id="path2178ear" style="fill:none;fill-opacity:0.75;fill-rule:evenodd;stroke:#000000;stroke-width:0.67020321;stroke-linecap:butt;stroke-linejoin:miter;stroke-miterlimit:4;stroke-dasharray:none;stroke-opacity:1"/>
					
        
					<path d="M 80.932334,601.17471 L 85.119424,591.60422" id="path2180ear" style="fill:none;fill-opacity:0.75;fill-rule:evenodd;stroke:#000000;stroke-width:0.67020321;stroke-linecap:butt;stroke-linejoin:miter;stroke-miterlimit:4;stroke-dasharray:none;stroke-opacity:1"/>
					
      
				</g>
				
      
				<g id="g2169ear">
					
        
					<path d="M 89.854398,582.33281 C 70.069119,568.87819 68.29822,620.42227 94.340568,611.34336 L 89.854398,582.33281 z " id="path3810ear" sodipodi:nodetypes="ccc" style="fill:url(#linearGradient5298ear);fill-opacity:1;fill-rule:evenodd;stroke:#000000;stroke-width:0.67020321;stroke-linecap:butt;stroke-linejoin:miter;stroke-miterlimit:4;stroke-dasharray:none;stroke-opacity:1"/>
					
        
					<path d="M 80.0351,590.40791 L 85.119424,602.37103" id="path3814ear" style="fill:none;fill-opacity:0.75;fill-rule:evenodd;stroke:#000000;stroke-width:0.67020321;stroke-linecap:butt;stroke-linejoin:miter;stroke-miterlimit:4;stroke-dasharray:none;stroke-opacity:1"/>
					
        
					<path d="M 80.932334,601.17471 L 85.119424,591.60422" id="path3816ear" style="fill:none;fill-opacity:0.75;fill-rule:evenodd;stroke:#000000;stroke-width:0.67020321;stroke-linecap:butt;stroke-linejoin:miter;stroke-miterlimit:4;stroke-dasharray:none;stroke-opacity:1"/>
					
      
				</g>
				
    
			</g>
			
  
		</g>
		

	</g>
	<g memaker:file="head">
		
  
		<metadata id="metadata22head">
			
    
			<rdf:RDF>
				
      
				<cc:Work rdf:about="">
					
        
					<dc:format>
						image/svg+xml
					</dc:format>
					
        
					<dc:type rdf:resource="http://purl.org/dc/dcmitype/StillImage"/>
					
      
				</cc:Work>
				
    
			</rdf:RDF>
			
  
		</metadata>
		
  
		<sodipodi:namedview bordercolor="#666666" borderopacity="1.0" gridtolerance="10.0" guidetolerance="10.0" id="basehead" inkscape:current-layer="svg2" inkscape:cx="200" inkscape:cy="200" inkscape:pageopacity="0.0" inkscape:pageshadow="2" inkscape:window-height="627" inkscape:window-width="910" inkscape:window-x="94" inkscape:window-y="44" inkscape:zoom="1.0175" objecttolerance="10.0" pagecolor="#ffffff"/>
		
  
		<defs id="defs4head">
			
    
			<linearGradient id="linearGradient2642head">
				
      
				<stop id="stop2644head" offset="0" style="stop-color:#f0dad4;stop-opacity:1"/>
				
      
				<stop id="stop2646head" offset="1" style="stop-color:#e4b8ad;stop-opacity:1"/>
				
    
			</linearGradient>
			
    
			<linearGradient gradientTransform="matrix(1.253778,0,0,1.253778,-168.59424,-184.04738)" gradientUnits="userSpaceOnUse" id="linearGradient9165head" x1="225.89772" x2="351.57788" xlink:href="#linearGradient2642head" y1="255.1237" y2="393.51462"/>
			
  
		</defs>
		
  
		<g id="layer1head">
			
    
			<path d="M 71.40884,203.86529 C 71.40884,254.52554 62.54329,259.59157 118.26961,303.91932 C 173.99593,348.24708 174.62918,341.28129 198.05957,341.91454 C 221.48995,342.54779 260.75167,319.11741 282.91555,303.28607 C 305.07942,287.45473 330.40954,277.32267 328.50978,207.66478 C 326.61005,138.00691 336.10885,68.982258 206.29186,68.982258 C 76.474869,68.982258 73.941854,120.27581 71.40884,203.86529 z " id="path9293head" style="fill:url(#linearGradient9165head);fill-opacity:1;fill-rule:evenodd;stroke:#000000;stroke-width:2;stroke-linecap:butt;stroke-linejoin:miter;stroke-miterlimit:4;stroke-dasharray:none;stroke-opacity:1"/>
			
  
		</g>
		

	</g>
	<g memaker:file="mouth">
		
  
		<defs id="defs4mouth"/>
		
  
		<sodipodi:namedview bordercolor="#666666" borderlayer="false" borderopacity="1.0" gridtolerance="10000" guidetolerance="10" height="400px" id="basemouth" inkscape:current-layer="layer1" inkscape:cx="249.98504" inkscape:cy="215.03765" inkscape:document-units="px" inkscape:guide-bbox="true" inkscape:pageopacity="0.0" inkscape:pageshadow="2" inkscape:window-height="581" inkscape:window-width="842" inkscape:window-x="173" inkscape:window-y="110" inkscape:zoom="1.3399673" objecttolerance="10" pagecolor="#ffffff" showguides="true" width="400px">
			
    
			<sodipodi:guide id="guide12103mouth" orientation="vertical" position="215.0239"/>
			
    
			<sodipodi:guide id="guide12105mouth" orientation="vertical" position="185.26571"/>
			
  
		</sodipodi:namedview>
		
  
		<metadata id="metadata7mouth">
			
    
			<rdf:RDF>
				
      
				<cc:Work rdf:about="">
					
        
					<dc:format>
						image/svg+xml
					</dc:format>
					
        
					<dc:type rdf:resource="http://purl.org/dc/dcmitype/StillImage"/>
					
      
				</cc:Work>
				
    
			</rdf:RDF>
			
  
		</metadata>
		
  
		<g id="layer1mouth" inkscape:groupmode="layer" inkscape:label="Layer 1">
			
    
			<g id="g12329mouth" inkscape:label="Layer 1" transform="matrix(1.1949249,0,0,1.1949249,-366.1807,-403.78893)">
				
      
				<g id="g17855mouth" transform="matrix(0.4374225,0,0,0.4374225,245.71621,309.88148)">
					
        
					<path d="M 436.63844,580.11587 C 492.02847,582.63526 547.4185,584.11103 602.80853,577.33795 C 594.9145,601.21876 583.53404,623.70499 532.60293,630.37096 C 480.86467,622.39709 458.80921,601.23085 436.63844,580.11587 z " id="path16884mouth" sodipodi:nodetypes="cccc" style="fill:#eeeeec;fill-opacity:1;fill-rule:evenodd;stroke:none;stroke-width:1px;stroke-linecap:butt;stroke-linejoin:miter;stroke-opacity:1"/>
					
        
					<path d="M 406.09375,567.5 C 454.70176,594.88596 463.77745,647.0396 531.875,640.40625 C 588.74802,634.91546 605.36581,608.47478 611.15625,568.5 L 605.59375,569.75 C 582.09763,575.96474 494.21089,583.60033 443.40625,574.03125 C 443.23322,573.4566 437.21826,573.10846 406.09375,567.5 z M 599,579.625 C 572.93911,632.81776 476.39516,625.3667 439.68052,582.50666 C 466.71769,587.25581 571.94317,585.78922 599,579.625 z " id="path12031mouth" sodipodi:nodetypes="ccccccccc" style="fill:#cc0000;fill-opacity:1;fill-rule:evenodd;stroke:#000000;stroke-width:5;stroke-linecap:round;stroke-linejoin:round;stroke-miterlimit:4;stroke-dasharray:none;stroke-opacity:1"/>
					
        
					<path d="M 494.46967,599.5613 C 516.02085,603.65635 540.38095,603.41693 569.97858,596.78338" id="path15913mouth" sodipodi:nodetypes="cc" style="fill:none;fill-rule:evenodd;stroke:#000000;stroke-width:1.60000002;stroke-linecap:round;stroke-linejoin:round;stroke-miterlimit:4;stroke-dasharray:none;stroke-opacity:1"/>
					
      
				</g>
				
    
			</g>
			
  
		</g>
		

	</g>
	<g memaker:file="nose">
		
  
		<defs id="defs4nose"/>
		
  
		<sodipodi:namedview bordercolor="#666666" borderlayer="false" borderopacity="1.0" gridtolerance="10000" guidetolerance="10" height="400px" id="basenose" inkscape:current-layer="layer1" inkscape:cx="248.4351" inkscape:cy="163.19796" inkscape:document-units="px" inkscape:guide-bbox="true" inkscape:pageopacity="0.0" inkscape:pageshadow="2" inkscape:window-height="581" inkscape:window-width="842" inkscape:window-x="139" inkscape:window-y="110" inkscape:zoom="1.3399673" objecttolerance="10" pagecolor="#ffffff" showguides="true" width="400px">
			
    
			<sodipodi:guide id="guide12103nose" orientation="vertical" position="215.0239"/>
			
    
			<sodipodi:guide id="guide12105nose" orientation="vertical" position="185.26571"/>
			
    
			<sodipodi:guide id="guide12569nose" orientation="horizontal" position="167.16825"/>
			
  
		</sodipodi:namedview>
		
  
		<metadata id="metadata7nose">
			
    
			<rdf:RDF>
				
      
				<cc:Work rdf:about="">
					
        
					<dc:format>
						image/svg+xml
					</dc:format>
					
        
					<dc:type rdf:resource="http://purl.org/dc/dcmitype/StillImage"/>
					
      
				</cc:Work>
				
    
			</rdf:RDF>
			
  
		</metadata>
		
  
		<g id="layer1nose" inkscape:groupmode="layer" inkscape:label="Layer 1">
			
    
			<g id="g12790nose" inkscape:label="Layer 1" transform="matrix(0.729972,0,0,0.729972,-118.2922,-335.82317)">
				
      
				<g id="g17918nose" style="stroke-width:6.85835791;stroke-linecap:round;stroke-linejoin:round;stroke-miterlimit:4;stroke-dasharray:none" transform="matrix(0.4374225,0,0,0.4374225,202.2879,128.44415)">
					
        
					<path d="M 480,1495.505 C 498.6052,1508.3486 515.19387,1521.9989 542.85714,1531.2193 C 572.00013,1520.3051 592.34595,1505.872 612.14286,1491.2193" id="path17914nose" sodipodi:nodetypes="ccc" style="fill:none;fill-rule:evenodd;stroke:#000000;stroke-width:6.85835791;stroke-linecap:round;stroke-linejoin:round;stroke-miterlimit:4;stroke-dasharray:none;stroke-opacity:1"/>
					
        
					<path d="M 557.42857,1331.505 C 568.14041,1378.6479 568.68085,1425.7907 568.14286,1472.9336" id="path17916nose" sodipodi:nodetypes="cc" style="fill:none;fill-rule:evenodd;stroke:#000000;stroke-width:6.85835791;stroke-linecap:round;stroke-linejoin:round;stroke-miterlimit:4;stroke-dasharray:none;stroke-opacity:1"/>
					
      
				</g>
				
    
			</g>
			
  
		</g>
		

	</g>
	<g memaker:file="eye">
		
  
		<defs id="defs4eye"/>
		
  
		<sodipodi:namedview bordercolor="#666666" borderlayer="false" borderopacity="1.0" gridtolerance="10000" guidetolerance="10" height="400px" id="baseeye" inkscape:current-layer="layer1" inkscape:cx="-41.169729" inkscape:cy="8.726079" inkscape:document-units="px" inkscape:pageopacity="0.0" inkscape:pageshadow="2" inkscape:window-height="627" inkscape:window-width="910" inkscape:window-x="182" inkscape:window-y="212" inkscape:zoom="0.78715281" objecttolerance="10" pagecolor="#ffffff" width="400px"/>
		
  
		<metadata id="metadata7eye">
			
    
			<rdf:RDF>
				
      
				<cc:Work rdf:about="">
					
        
					<dc:format>
						image/svg+xml
					</dc:format>
					
        
					<dc:type rdf:resource="http://purl.org/dc/dcmitype/StillImage"/>
					
      
				</cc:Work>
				
    
			</rdf:RDF>
			
  
		</metadata>
		
  
		<g id="layer1eye" inkscape:groupmode="layer" inkscape:label="Layer 1">
			
    
			<g id="g5300eye" transform="matrix(2.9475414,0,0,2.9475414,-1803.4613,-1697.0495)">
				
      
				<g id="g3253eye" style="stroke-width:2;stroke-miterlimit:4;stroke-dasharray:none" transform="translate(578.57628,520.74206)">
					
        
					<path d="M 130.33995,105.45183 C 130.16416,106.07881 129.92633,106.71627 129.64569,107.35331 C 129.55799,107.5524 129.46303,107.79191 129.36773,107.98521 C 127.59521,111.58042 124.54,114.15628 121.63237,114.74223 C 121.62543,114.74364 121.61195,114.72573 121.60502,114.72712 C 121.65956,114.22044 121.68295,113.70759 121.62621,113.20336 C 124.88827,112.41278 128.29121,109.48779 130.33995,105.45183 z " id="path3255eye" style="opacity:1;fill:#000000;fill-opacity:1;stroke:#000000;stroke-width:0.67853159;stroke-linecap:butt;stroke-linejoin:round;stroke-miterlimit:4;stroke-dasharray:none;stroke-opacity:1"/>
					
        
					<path d="M 71.869425,105.45183 C 72.045218,106.07881 72.283045,106.71627 72.563684,107.35331 C 72.651385,107.5524 72.746342,107.79191 72.841649,107.98521 C 74.614169,111.58042 77.669376,114.15628 80.577011,114.74223 C 80.583946,114.74364 80.597424,114.72573 80.60436,114.72712 C 80.549821,114.22044 80.526431,113.70759 80.583165,113.20336 C 77.321105,112.41278 73.918165,109.48779 71.869425,105.45183 z " id="path3257eye" style="opacity:1;fill:#000000;fill-opacity:1;stroke:#000000;stroke-width:0.67853159;stroke-linecap:butt;stroke-linejoin:round;stroke-miterlimit:4;stroke-dasharray:none;stroke-opacity:1"/>
					
        
					<path d="M 68.980016,110.65941 C 69.195424,111.27391 69.473409,111.89492 69.794091,112.51277 C 69.894306,112.70586 70.00434,112.93883 70.111778,113.12566 C 72.109903,116.60054 75.323118,118.97638 78.262196,119.37577 C 78.269206,119.37673 78.281516,119.358 78.288525,119.35894 C 78.201794,118.85677 78.145755,118.34646 78.170226,117.83963 C 74.864399,117.25863 71.2819,114.55655 68.980016,110.65941 z " id="path3259eye" style="opacity:1;fill:#000000;fill-opacity:1;stroke:#000000;stroke-width:0.67853159;stroke-linecap:butt;stroke-linejoin:round;stroke-miterlimit:4;stroke-dasharray:none;stroke-opacity:1"/>
					
        
					<path d="M 133.22936,110.65941 C 133.01395,111.27391 132.73597,111.89492 132.41529,112.51277 C 132.31507,112.70586 132.20504,112.93883 132.0976,113.12566 C 130.09947,116.60054 126.88626,118.97638 123.94718,119.37577 C 123.94017,119.37673 123.92786,119.358 123.92085,119.35894 C 124.00758,118.85677 124.06362,118.34646 124.03915,117.83963 C 127.34498,117.25863 130.92748,114.55655 133.22936,110.65941 z " id="path3261eye" style="opacity:1;fill:#000000;fill-opacity:1;stroke:#000000;stroke-width:0.67853159;stroke-linecap:butt;stroke-linejoin:round;stroke-miterlimit:4;stroke-dasharray:none;stroke-opacity:1"/>
					
      
				</g>
				
      
				<g id="g3263eye" inkscape:label="#g2437" style="stroke-width:4.77658701;stroke-miterlimit:4;stroke-dasharray:none" transform="matrix(0.418709,0,0,0.418709,557.82641,517.91057)">
					
        
					<g id="g3265eye" inkscape:label="#g2401" style="stroke-width:4.77658701;stroke-miterlimit:4;stroke-dasharray:none">
						
          
						<path d="M 246.53125,265.96875 C 233.03348,266.70504 222.21876,282.65782 222.21875,302.1875 C 222.21875,306.47371 222.7642,310.5889 223.71875,314.40625 C 230.06947,311.84823 237.93387,310.3125 246.4375,310.3125 C 255.82006,310.3125 264.40927,312.1948 271.0625,315.25 C 272.15878,311.19382 272.78125,306.7965 272.78125,302.1875 C 272.78125,282.18911 261.44968,265.96875 247.5,265.96875 C 247.17305,265.96875 246.8552,265.95108 246.53125,265.96875 z " id="path3267eye" style="opacity:1;fill:#ffffff;fill-opacity:1;stroke:#000000;stroke-width:1.62053263;stroke-miterlimit:4;stroke-dasharray:none;stroke-opacity:1"/>
						
          
						<path d="M 254.28571 293.96933 A 3.0357144 3.0357144 0 1 1  248.21429,293.96933 A 3.0357144 3.0357144 0 1 1  254.28571 293.96933 z" id="path3269eye" sodipodi:cx="251.25" sodipodi:cy="293.96933" sodipodi:rx="3.0357144" sodipodi:ry="3.0357144" sodipodi:type="arc" style="opacity:1;fill:#000000;fill-opacity:1;stroke:#000000;stroke-width:1.39523983;stroke-miterlimit:4;stroke-dasharray:none;stroke-opacity:1" transform="matrix(1.10605,0,0,1.219672,-27.18064,-63.8626)"/>
						
        
					</g>
					
        
					<g id="g3271eye" inkscape:label="#g2401" style="stroke-width:4.77658701;stroke-miterlimit:4;stroke-dasharray:none" transform="matrix(-1,0,0,1,582.1428,0)">
						
          
						<path d="M 246.53125,265.96875 C 233.03348,266.70504 222.21876,282.65782 222.21875,302.1875 C 222.21875,306.47371 222.7642,310.5889 223.71875,314.40625 C 230.06947,311.84823 237.93387,310.3125 246.4375,310.3125 C 255.82006,310.3125 264.40927,312.1948 271.0625,315.25 C 272.15878,311.19382 272.78125,306.7965 272.78125,302.1875 C 272.78125,282.18911 261.44968,265.96875 247.5,265.96875 C 247.17305,265.96875 246.8552,265.95108 246.53125,265.96875 z " id="path3273eye" style="opacity:1;fill:#ffffff;fill-opacity:1;stroke:#000000;stroke-width:1.62053263;stroke-miterlimit:4;stroke-dasharray:none;stroke-opacity:1"/>
						
          
						<path d="M 254.28571 293.96933 A 3.0357144 3.0357144 0 1 1  248.21429,293.96933 A 3.0357144 3.0357144 0 1 1  254.28571 293.96933 z" id="path3275eye" sodipodi:cx="251.25" sodipodi:cy="293.96933" sodipodi:rx="3.0357144" sodipodi:ry="3.0357144" sodipodi:type="arc" style="opacity:1;fill:#000000;fill-opacity:1;stroke:#000000;stroke-width:1.39523983;stroke-miterlimit:4;stroke-dasharray:none;stroke-opacity:1" transform="matrix(1.10605,0,0,1.219672,-27.18064,-63.8626)"/>
						
        
					</g>
					
      
				</g>
				
    
			</g>
			
  
		</g>
		

	</g>
	<g memaker:file="hair">
		
  
		<defs id="defs4hair">
			
    
			<linearGradient id="linearGradientButterLightToMediumhair">
				
      
				<stop id="stop3485hair" offset="0" style="stop-color:#fce94f;stop-opacity:1;"/>
				
      
				<stop id="stop3487hair" offset="1" style="stop-color:#edd400;stop-opacity:1;"/>
				
    
			</linearGradient>
			
    
			<linearGradient gradientTransform="matrix(1.0031787,0,0,0.8017028,-0.6399247,28.27395)" gradientUnits="userSpaceOnUse" id="linearGradient4466hair" inkscape:collect="always" x1="157.54117" x2="299.28439" xlink:href="#linearGradientButterLightToMediumhair" y1="45.8447" y2="180.04282"/>
			
    
			<linearGradient gradientUnits="userSpaceOnUse" id="linearGradient5461hair" inkscape:collect="always" x1="151.07486" x2="328.53192" xlink:href="#linearGradientButterLightToMediumhair" y1="27.914259" y2="192.52946"/>
			
  
		</defs>
		
  
		<sodipodi:namedview bordercolor="#666666" borderlayer="false" borderopacity="1.0" gridtolerance="10000" guidetolerance="10" height="400px" id="basehair" inkscape:current-layer="layer1" inkscape:cx="201.6192" inkscape:cy="289.13356" inkscape:document-units="px" inkscape:pageopacity="0.0" inkscape:pageshadow="2" inkscape:window-height="692" inkscape:window-width="1016" inkscape:window-x="0" inkscape:window-y="0" inkscape:zoom="1.8003834" objecttolerance="10" pagecolor="#ffffff" width="400px"/>
		
  
		<metadata id="metadata7hair">
			
    
			<rdf:RDF>
				
      
				<cc:Work rdf:about="">
					
        
					<dc:format>
						image/svg+xml
					</dc:format>
					
        
					<dc:type rdf:resource="http://purl.org/dc/dcmitype/StillImage"/>
					
      
				</cc:Work>
				
    
			</rdf:RDF>
			
  
		</metadata>
		
  
		<g id="layer1hair" inkscape:groupmode="layer" inkscape:label="Layer 1">
			
    
			<path d="M 325.48622,174.49248 C 310.89714,132.68597 302.05385,88.370566 253.27937,86.733399 C 218.73795,79.906498 180.78404,84.348059 143.30281,83.400776 C 120.77942,85.911427 106.34509,103.31109 96.761974,122.31457 C 85.428319,144.7894 78.397724,175.11134 77.761213,174.49248 C 75.553688,176.23014 62.821655,104.65659 113.3092,62.739789 C 163.79675,20.822984 254.94971,36.936307 283.27299,56.074542 C 340.05082,94.439718 333.24221,177.04303 325.48622,174.49248 z " id="path2514hair" sodipodi:nodetypes="cccsczsc" style="fill:url(#linearGradient5461hair);fill-rule:evenodd;stroke:#000000;stroke-width:4;stroke-linecap:butt;stroke-linejoin:round;stroke-opacity:1;stroke-miterlimit:4;stroke-dasharray:none;fill-opacity:1.0"/>
			
    
			<path d="M 157.04848,70.645328 C 124.12802,110.45798 135.59866,148.24025 154.26246,172.61802 C 161.17201,151.49701 164.47617,127.94348 185.46581,111.16723 C 177.61296,138.27163 188.69819,159.70055 204.41071,179.74275 C 198.76199,154.89977 206.00128,128.58542 221.1268,101.37072 C 239.70147,136.74682 235.95972,175.09532 237.84288,212.69462 C 266.62718,180.17377 280.64315,112.82898 246.20092,72.871807" id="path2518hair" sodipodi:nodetypes="ccccccz" style="fill:url(#linearGradient4466hair);fill-opacity:1;fill-rule:evenodd;stroke:#000000;stroke-width:3.58720207;stroke-linecap:round;stroke-linejoin:round;stroke-miterlimit:4;stroke-dasharray:none;stroke-opacity:1"/>
			
  
		</g>
		

	</g>
</svg>
