<?xml version="1.0" ?>
<svg height="400" width="400" xmlns="http://www.w3.org/2000/svg" xmlns:cc="http://web.resource.org/cc/" xmlns:dc="http://purl.org/dc/elements/1.1/" xmlns:inkscape="http://www.inkscape.org/namespaces/inkscape" xmlns:memaker="http://launchpad.net/memaker" xmlns:rdf="http://www.w3.org/1999/02/22-rdf-syntax-ns#" xmlns:sodipodi="http://sodipodi.sourceforge.net/DTD/sodipodi-0.dtd" xmlns:xlink="http://www.w3.org/1999/xlink">
	
        
	<g memaker:file="head">
		
  
		<defs id="defs2755head"/>
		
  
		<sodipodi:namedview bordercolor="#666666" borderopacity="1.0" gridtolerance="10000" guidetolerance="10" height="400px" id="basehead" inkscape:current-layer="svg2753" inkscape:cx="200" inkscape:cy="200" inkscape:document-units="px" inkscape:pageopacity="0.0" inkscape:pageshadow="2" inkscape:window-height="619" inkscape:window-width="872" inkscape:window-x="138" inkscape:window-y="175" inkscape:zoom="1.0175" objecttolerance="10" pagecolor="#ffffff" width="400px"/>
		
  
		<metadata id="metadata2758head">
			
    
			<rdf:RDF>
				
      
				<cc:Work rdf:about="">
					
        
					<dc:format>
						image/svg+xml
					</dc:format>
					
        
					<dc:type rdf:resource="http://purl.org/dc/dcmitype/StillImage"/>
					
      
				</cc:Work>
				
    
			</rdf:RDF>
			
  
		</metadata>
		
  
		<path d="M 300.26784,222.77401 C 296.02052,260.6716 291.6575,279.67484 279.14988,298.0583 C 266.64226,316.44176 249.17926,332.3753 241.0865,339.25286 C 232.99374,346.13041 214.40572,355.94943 200.98519,355.39506 C 187.56467,354.84068 176.84659,346.89134 165.49649,339.5487 C 154.14639,332.20607 135.83308,316.69963 123.39146,297.75378 C 110.94983,278.80791 106.17522,250.25169 103.91867,211.85398 C 101.66046,173.4282 107.44711,144.50034 126.06286,120.69344 C 144.6786,96.886522 179.24843,87.789362 206.08948,88.898132 C 232.93054,90.006882 260.85905,95.420422 279.22159,121.46612 C 297.405,147.25775 304.50797,184.94056 300.26784,222.77401 z " id="path3499head" sodipodi:nodetypes="czzsszzzzzz" style="fill:#deaa87;fill-opacity:1;stroke:#000000;stroke-width:2.92761993;stroke-linecap:round;stroke-linejoin:round;stroke-miterlimit:4;stroke-dashoffset:0;stroke-opacity:1;display:inline"/>
		

	</g>
	<g memaker:file="mouth">
		
  
		<defs id="defs2755mouth"/>
		
  
		<sodipodi:namedview bordercolor="#666666" borderopacity="1.0" gridtolerance="10000" guidetolerance="10" height="400px" id="basemouth" inkscape:current-layer="svg2753" inkscape:cx="202.64641" inkscape:cy="121.65838" inkscape:document-units="px" inkscape:pageopacity="0.0" inkscape:pageshadow="2" inkscape:window-height="949" inkscape:window-width="1280" inkscape:window-x="0" inkscape:window-y="25" inkscape:zoom="1" objecttolerance="10" pagecolor="#ffffff" showgrid="false" width="400px"/>
		
  
		<metadata id="metadata2758mouth">
			
    
			<rdf:RDF>
				
      
				<cc:Work rdf:about="">
					
        
					<dc:format>
						image/svg+xml
					</dc:format>
					
        
					<dc:type rdf:resource="http://purl.org/dc/dcmitype/StillImage"/>
					
      
				</cc:Work>
				
    
			</rdf:RDF>
			
  
		</metadata>
		
  
		<path d="M 160.65116,296.11022 C 170.83107,295.60968 183.54184,288.58907 190.61788,288.54619 C 197.82961,288.50332 197.46362,290.59456 200.38059,291.0445 C 203.53016,290.45403 204.17719,287.66236 211.07696,288.04731 C 217.98559,288.43276 229.91614,295.36701 239.57644,294.73509 C 219.63133,313.59011 212.19665,308.76003 200.55652,307.92604 C 190.95428,308.99159 180.84912,313.2166 160.65116,296.11022 z " id="path2270mouth" sodipodi:nodetypes="czczccc" style="fill:#cb6262;fill-opacity:1;fill-rule:evenodd;stroke:#000000;stroke-width:0.80000001;stroke-linecap:round;stroke-linejoin:miter;stroke-miterlimit:4;stroke-dasharray:none;stroke-opacity:0.74853803"/>
		
  
		<path d="M 160.54503,295.97825 C 172.3463,298.81169 182.01237,292.89495 192.2048,295.91606 C 199.68606,298.13356 200.86461,298.28682 207.78332,296.17495 C 214.57801,294.10093 227.35489,299.46044 238.21892,295.30221" id="path2272mouth" sodipodi:nodetypes="cszc" style="fill:#cb6262;fill-opacity:1;fill-rule:evenodd;stroke:#000000;stroke-width:0.80000001;stroke-linecap:round;stroke-linejoin:miter;stroke-miterlimit:4;stroke-dasharray:none;stroke-opacity:0.74853803"/>
		
  
		<path d="M 238.78125 295.4375 C 238.20808 295.5578 237.63592 295.67243 237.0625 295.8125 C 235.24834 296.25565 233.40648 296.71342 231.53125 296.6875 C 229.47107 296.92976 227.4351 296.92356 225.375 296.8125 C 223.3149 296.70144 221.24555 296.4748 219.1875 296.28125 C 217.12945 296.0877 215.05402 295.91145 213 295.90625 C 210.94598 295.90105 208.92302 296.07727 206.875 296.53125 C 205.91712 296.86403 204.92795 297.09256 203.9375 297.25 C 202.94705 297.40744 201.94041 297.50287 200.9375 297.5 C 198.93167 297.49426 196.93507 297.18181 195 296.625 C 193.8385 296.19003 192.64 295.85556 191.4375 295.625 C 190.235 295.39444 189.00529 295.24264 187.78125 295.1875 C 185.33317 295.07723 182.88614 295.30121 180.46875 295.71875 C 178.59499 296.12483 176.68158 296.43075 174.78125 296.625 C 172.88092 296.81925 170.97261 296.90957 169.0625 296.90625 C 167.15239 296.90293 165.24685 296.81161 163.34375 296.625 C 162.49679 296.54195 161.65567 296.36731 160.8125 296.25 C 180.89802 313.19015 190.98705 309.00009 200.5625 307.9375 C 212.03712 308.75963 219.46711 313.36598 238.78125 295.4375 z " id="path4119mouth" style="fill:#df4e4e;fill-opacity:1;fill-rule:evenodd;stroke:#000000;stroke-width:0.80000001;stroke-linecap:round;stroke-linejoin:miter;stroke-miterlimit:4;stroke-dasharray:none;stroke-opacity:0.74853803;opacity:0.83425414"/>
		
  
		<path d="M 211.0625,288.0625 C 204.16273,287.67755 203.52458,290.44079 200.375,291.03125 C 197.45803,290.58131 197.83674,288.48837 190.625,288.53125 C 183.54896,288.57413 170.83617,295.62445 160.65625,296.125 C 160.7126,296.17273 160.75631,296.20261 160.8125,296.25 C 161.65567,296.36731 162.49679,296.54195 163.34375,296.625 C 165.24685,296.81161 167.15239,296.90293 169.0625,296.90625 C 170.97261,296.90957 172.88092,296.81925 174.78125,296.625 C 176.68158,296.43075 178.59499,296.12483 180.46875,295.71875 C 182.88614,295.30121 185.33317,295.07723 187.78125,295.1875 C 189.00529,295.24264 190.235,295.39444 191.4375,295.625 C 192.64,295.85556 193.8385,296.19003 195,296.625 C 196.93507,297.18181 198.93167,297.49426 200.9375,297.5 C 201.94041,297.50287 202.94705,297.40744 203.9375,297.25 C 204.92795,297.09256 205.91712,296.86403 206.875,296.53125 C 208.92302,296.07727 210.94598,295.90105 213,295.90625 C 215.05402,295.91145 217.12945,296.0877 219.1875,296.28125 C 221.24555,296.4748 223.3149,296.70144 225.375,296.8125 C 227.4351,296.92356 229.47107,296.92976 231.53125,296.6875 C 233.40648,296.71342 235.24834,296.25565 237.0625,295.8125 C 237.63592,295.67243 238.20808,295.5578 238.78125,295.4375 C 239.05984,295.1789 239.2789,295.0181 239.5625,294.75 C 229.9022,295.38192 217.97112,288.44796 211.0625,288.0625 z " id="path3134mouth" style="opacity:0.83425413;fill:#c03737;fill-opacity:1;fill-rule:evenodd;stroke:#000000;stroke-width:0.80000001;stroke-linecap:round;stroke-linejoin:miter;stroke-miterlimit:4;stroke-dasharray:none;stroke-opacity:0.74853803"/>
		

	</g>
	<g memaker:file="nose">
		
  
		<defs id="defs2755nose"/>
		
  
		<sodipodi:namedview bordercolor="#666666" borderopacity="1.0" gridtolerance="10000" guidetolerance="10" height="400px" id="basenose" inkscape:current-layer="svg2753" inkscape:cx="205.87754" inkscape:cy="132.54617" inkscape:document-units="px" inkscape:pageopacity="0.0" inkscape:pageshadow="2" inkscape:window-height="732" inkscape:window-width="1090" inkscape:window-x="91" inkscape:window-y="146" inkscape:zoom="8" objecttolerance="10" pagecolor="#ffffff" showgrid="true" width="400px"/>
		
  
		<metadata id="metadata2758nose">
			
    
			<rdf:RDF>
				
      
				<cc:Work rdf:about="">
					
        
					<dc:format>
						image/svg+xml
					</dc:format>
					
        
					<dc:type rdf:resource="http://purl.org/dc/dcmitype/StillImage"/>
					
      
				</cc:Work>
				
    
			</rdf:RDF>
			
  
		</metadata>
		
  
		<path d="M 187.01845,267.89622 C 190.45332,262.79788 196.22319,270.39306 201.11176,270.43352 C 206.17712,270.47399 211.95433,262.57452 215.37356,267.78933" id="path2234nose" sodipodi:nodetypes="czc" style="fill:none;fill-rule:evenodd;stroke:#000000;stroke-width:2;stroke-linecap:round;stroke-linejoin:round;stroke-miterlimit:4;stroke-dasharray:none;stroke-opacity:1;display:inline"/>
		
  
		<path d="M 184.65949,252.49065 C 182.9622,255.35605 181.83624,259.61262 182.09186,263.46084 C 182.25386,266.00407 183.5933,273.02834 188.60363,268.71084" id="path2157nose" sodipodi:nodetypes="ccc" style="fill:none;fill-rule:evenodd;stroke:#000000;stroke-width:1px;stroke-linecap:round;stroke-linejoin:round;stroke-opacity:1"/>
		
  
		<path d="M 217.23594,252.31388 C 219.28679,256.41672 219.70563,259.43584 219.62679,263.46084 C 219.46479,266.00407 219.37535,273.65334 213.49002,268.58584" id="path3146nose" sodipodi:nodetypes="ccc" style="fill:none;fill-rule:evenodd;stroke:#000000;stroke-width:1px;stroke-linecap:round;stroke-linejoin:round;stroke-opacity:1"/>
		

	</g>
	<g memaker:file="eye">
		
  
		<defs id="defs2755eye"/>
		
  
		<sodipodi:namedview bordercolor="#666666" borderopacity="1.0" gridtolerance="10000" guidetolerance="10" height="400px" id="baseeye" inkscape:current-layer="svg2753" inkscape:cx="180.09503" inkscape:cy="201.04816" inkscape:document-units="px" inkscape:pageopacity="0.0" inkscape:pageshadow="2" inkscape:window-height="732" inkscape:window-width="1090" inkscape:window-x="91" inkscape:window-y="146" inkscape:zoom="3.6769553" objecttolerance="10" pagecolor="#ffffff" width="400px"/>
		
  
		<metadata id="metadata2758eye">
			
    
			<rdf:RDF>
				
      
				<cc:Work rdf:about="">
					
        
					<dc:format>
						image/svg+xml
					</dc:format>
					
        
					<dc:type rdf:resource="http://purl.org/dc/dcmitype/StillImage"/>
					
      
				</cc:Work>
				
    
			</rdf:RDF>
			
  
		</metadata>
		
  
		<g id="g3470eye" style="display:inline" transform="translate(0.1568315,-9.1826973)">
			
    
			<g id="g3357eye">
				
      
				<g id="g3347eye">
					
        
					<path d="M 255.41192,212.72771 C 244.48935,212.99813 233.5018,214.18018 228.32809,217.07506 C 221.34919,220.45 224.64766,226.69267 220.40815,228.19452 C 220.591,230.77596 222.41229,232.08135 225.38484,230.41655 C 234.964,232.6737 248.35976,232.77074 259.39735,228.55548 C 265.13262,226.16998 272.03892,220.73954 268.73283,217.8333 C 265.09491,215.64828 261.85765,213.00516 255.41192,212.72771 z " id="path3311eye" sodipodi:nodetypes="ccccccc" style="fill:#ffffff;fill-opacity:1;fill-rule:evenodd;stroke:#000000;stroke-width:2;stroke-linecap:round;stroke-linejoin:round;stroke-miterlimit:4;stroke-dasharray:none;stroke-dashoffset:0;stroke-opacity:1"/>
					
        
					<path d="M 157.12347,204.47762 A 8.955224,8.2767973 0 1 1 146.54046,196.3387" id="path3313eye" sodipodi:cx="148.16824" sodipodi:cy="204.47762" sodipodi:end="4.5296038" sodipodi:open="true" sodipodi:rx="8.955224" sodipodi:ry="8.2767973" sodipodi:start="0" sodipodi:type="arc" style="fill:#000000;fill-opacity:1;fill-rule:evenodd;stroke:#000000;stroke-width:2;stroke-linecap:round;stroke-linejoin:round;stroke-miterlimit:4;stroke-dasharray:none;stroke-dashoffset:0;stroke-opacity:1" transform="matrix(0.7068972,-0.7297045,0.7511,0.6810506,-14.490446,188.44194)"/>
					
        
					<path d="M 167.97829 200.9498 A 2.1709633 2.0352781 0 1 1  163.63636,200.9498 A 2.1709633 2.0352781 0 1 1  167.97829 200.9498 z" id="path3317eye" sodipodi:cx="165.80733" sodipodi:cy="200.9498" sodipodi:rx="2.1709633" sodipodi:ry="2.0352781" sodipodi:type="arc" style="fill:#ffffff;fill-opacity:1;fill-rule:evenodd;stroke:none;stroke-width:2;stroke-linecap:round;stroke-linejoin:round;stroke-miterlimit:4;stroke-dasharray:none;stroke-dashoffset:0;stroke-opacity:1" transform="matrix(-1,0,0,1,407.93353,18.529525)"/>
					
      
				</g>
				
      
				<g id="g3352eye">
					
        
					<path d="M 144.58809,212.72771 C 155.51066,212.99813 166.49821,214.18018 171.67192,217.07506 C 178.65082,220.45 175.35235,226.69267 179.59186,228.19452 C 179.40901,230.77596 177.58772,232.08135 174.61517,230.41655 C 165.03601,232.6737 151.64025,232.77074 140.60266,228.55548 C 134.86739,226.16998 127.96109,220.73954 131.26718,217.8333 C 134.9051,215.64828 138.14236,213.00516 144.58809,212.72771 z " id="path3321eye" sodipodi:nodetypes="ccccccc" style="fill:#ffffff;fill-opacity:1;fill-rule:evenodd;stroke:#000000;stroke-width:2;stroke-linecap:round;stroke-linejoin:round;stroke-miterlimit:4;stroke-dasharray:none;stroke-dashoffset:0;stroke-opacity:1"/>
					
        
					<path d="M 157.12347,204.47762 A 8.955224,8.2767973 0 1 1 146.54046,196.3387" id="path3323eye" sodipodi:cx="148.16824" sodipodi:cy="204.47762" sodipodi:end="4.5296038" sodipodi:open="true" sodipodi:rx="8.955224" sodipodi:ry="8.2767973" sodipodi:start="0" sodipodi:type="arc" style="fill:#000000;fill-opacity:1;fill-rule:evenodd;stroke:#000000;stroke-width:2;stroke-linecap:round;stroke-linejoin:round;stroke-miterlimit:4;stroke-dasharray:none;stroke-dashoffset:0;stroke-opacity:1" transform="matrix(-0.7068972,-0.7297045,-0.7511,0.6810506,414.49045,188.44194)"/>
					
        
					<path d="M 167.97829 200.9498 A 2.1709633 2.0352781 0 1 1  163.63636,200.9498 A 2.1709633 2.0352781 0 1 1  167.97829 200.9498 z" id="path3327eye" sodipodi:cx="165.80733" sodipodi:cy="200.9498" sodipodi:rx="2.1709633" sodipodi:ry="2.0352781" sodipodi:type="arc" style="fill:#ffffff;fill-opacity:1;fill-rule:evenodd;stroke:none;stroke-width:2;stroke-linecap:round;stroke-linejoin:round;stroke-miterlimit:4;stroke-dasharray:none;stroke-dashoffset:0;stroke-opacity:1" transform="translate(-10.317301,18.145749)"/>
					
      
				</g>
				
    
			</g>
			
    
			<path d="M 163.15809,213.98227 C 154.61245,211.2428 142.84688,220.65924 133.87421,219.21335 C 126.97013,216.56923 129.41068,214.57753 128.00877,213.03689 C 125.42128,210.19335 131.54627,216.5522 138.45121,213.43256 C 142.74789,214.07863 162.59385,211.96139 163.15809,213.98227" id="path3399eye" sodipodi:nodetypes="ccscs" style="opacity:1;fill:#000000;fill-opacity:1;fill-rule:evenodd;stroke:none;stroke-width:4.86906338;stroke-linecap:round;stroke-linejoin:round;stroke-miterlimit:4;stroke-dasharray:none;stroke-dashoffset:0;stroke-opacity:1"/>
			
    
			<path d="M 237.4034,213.98227 C 245.94904,211.2428 257.71461,220.65924 266.68728,219.21335 C 273.59136,216.56923 271.15081,214.57753 272.55272,213.03689 C 275.14021,210.19335 269.01522,216.5522 262.11028,213.43256 C 257.8136,214.07863 237.96764,211.96139 237.4034,213.98227" id="path3468eye" sodipodi:nodetypes="ccscs" style="opacity:1;fill:#000000;fill-opacity:1;fill-rule:evenodd;stroke:none;stroke-width:4.86906338;stroke-linecap:round;stroke-linejoin:round;stroke-miterlimit:4;stroke-dasharray:none;stroke-dashoffset:0;stroke-opacity:1"/>
			
  
		</g>
		

	</g>
	<g memaker:file="eyebrow">
		
  
		<defs id="defs2755eyebrow"/>
		
  
		<sodipodi:namedview bordercolor="#666666" borderopacity="1.0" gridtolerance="10000" guidetolerance="10" height="400px" id="baseeyebrow" inkscape:current-layer="svg2753" inkscape:cx="188.83134" inkscape:cy="204.41672" inkscape:document-units="px" inkscape:pageopacity="0.0" inkscape:pageshadow="2" inkscape:window-height="732" inkscape:window-width="1090" inkscape:window-x="91" inkscape:window-y="146" inkscape:zoom="4.98" objecttolerance="10" pagecolor="#ffffff" width="400px"/>
		
  
		<metadata id="metadata2758eyebrow">
			
    
			<rdf:RDF>
				
      
				<cc:Work rdf:about="">
					
        
					<dc:format>
						image/svg+xml
					</dc:format>
					
        
					<dc:type rdf:resource="http://purl.org/dc/dcmitype/StillImage"/>
					
      
				</cc:Work>
				
    
			</rdf:RDF>
			
  
		</metadata>
		
  
		<g id="g2171eyebrow" transform="translate(0,2)">
			
    
			<path d="M 153.55624,179.31291 C 167.00736,180.58998 184.83935,185.56003 185.76741,189.54092 C 173.93949,192.82017 155.78936,182.15672 145.74624,183.10771 C 135.6823,184.06068 132.43641,186.96113 124.29746,190.64017 C 129.56591,186.13483 140.08476,178.0339 153.55624,179.31291 z " id="path3488eyebrow" sodipodi:nodetypes="cczcz" style="fill:#1a1a1a;fill-opacity:1;fill-rule:evenodd;stroke:none;stroke-width:2;stroke-linecap:round;stroke-linejoin:round;stroke-miterlimit:4;stroke-dasharray:none;stroke-dashoffset:0;stroke-opacity:1"/>
			
    
			<path d="M 248.50863,179.31291 C 235.05751,180.58998 217.22552,185.56003 216.29746,189.54092 C 228.12538,192.82017 246.27551,182.15672 256.31863,183.10771 C 266.38257,184.06068 269.62846,186.96113 277.76741,190.64017 C 272.49896,186.13483 261.98011,178.0339 248.50863,179.31291 z " id="path2169eyebrow" sodipodi:nodetypes="cczcz" style="fill:#1a1a1a;fill-opacity:1;fill-rule:evenodd;stroke:none;stroke-width:2;stroke-linecap:round;stroke-linejoin:round;stroke-miterlimit:4;stroke-dasharray:none;stroke-dashoffset:0;stroke-opacity:1"/>
			
  
		</g>
		

	</g>
	<g memaker:file="hair">
		
  
		<defs id="defs2755hair"/>
		
  
		<sodipodi:namedview bordercolor="#666666" borderopacity="1.0" gridtolerance="10000" guidetolerance="10" height="400px" id="basehair" inkscape:current-layer="svg2753" inkscape:cx="200" inkscape:cy="200" inkscape:document-units="px" inkscape:pageopacity="0.0" inkscape:pageshadow="2" inkscape:window-height="732" inkscape:window-width="1090" inkscape:window-x="91" inkscape:window-y="146" inkscape:zoom="1.3" objecttolerance="10" pagecolor="#ffffff" width="400px"/>
		
  
		<metadata id="metadata2758hair">
			
    
			<rdf:RDF>
				
      
				<cc:Work rdf:about="">
					
        
					<dc:format>
						image/svg+xml
					</dc:format>
					
        
					<dc:type rdf:resource="http://purl.org/dc/dcmitype/StillImage"/>
					
      
				</cc:Work>
				
    
			</rdf:RDF>
			
  
		</metadata>
		
  
		<path d="M 87.992134,180.16413 C 82.343606,267.5163 104.53893,277.70091 123.23294,291.47287 C 118.01951,280.10153 107.77857,239.55911 109.79936,214.71256 C 119.68516,93.161648 130.50135,293.8797 132.35944,207.64666 C 150.05315,115.2254 182.06287,120.08169 201.11668,120.42186 C 251.34171,112.15281 255.58447,147.59408 266.18445,158.97245 C 284.52189,178.65646 293.22113,238.40984 276.27457,272.40285 C 259.32799,306.39587 235.59287,270.05632 253.77929,292.26992 C 260.43209,300.39597 271.02345,307.09699 285.08767,296.52794 C 313.54083,275.14582 323.41774,232.82873 322.71456,192.95274 C 322.01111,153.06112 315.72481,129.76325 295.9618,101.72858 C 276.19879,73.693906 245.26192,54.898245 207.15434,54.217928 C 130.93915,52.857312 93.638741,92.841773 87.992134,180.16413 z " id="path2203hair" sodipodi:nodetypes="ccsccszszzzsz" style="opacity:1;fill:#782121;fill-opacity:1;fill-rule:evenodd;stroke:#000000;stroke-width:2.82156849;stroke-linecap:round;stroke-linejoin:round;stroke-miterlimit:4;stroke-dasharray:none;stroke-dashoffset:0;stroke-opacity:1;display:inline"/>
		

	</g>
	<g memaker:file="hat">
		
  
		<defs id="defs2755hat"/>
		
  
		<sodipodi:namedview bordercolor="#666666" borderopacity="1.0" gridtolerance="10000" guidetolerance="10" height="400px" id="basehat" inkscape:current-layer="svg2753" inkscape:cx="200" inkscape:cy="200" inkscape:document-units="px" inkscape:pageopacity="0.0" inkscape:pageshadow="2" inkscape:window-height="949" inkscape:window-width="1280" inkscape:window-x="0" inkscape:window-y="25" inkscape:zoom="1.8425" objecttolerance="10" pagecolor="#ffffff" width="400px"/>
		
  
		<metadata id="metadata2758hat">
			
    
			<rdf:RDF>
				
      
				<cc:Work rdf:about="">
					
        
					<dc:format>
						image/svg+xml
					</dc:format>
					
        
					<dc:type rdf:resource="http://purl.org/dc/dcmitype/StillImage"/>
					
      
				</cc:Work>
				
    
			</rdf:RDF>
			
  
		</metadata>
		
  
		<path d="M 360.92267 137.31343 A 141.65536 60.786976 0 1 1  77.611938,137.31343 A 141.65536 60.786976 0 1 1  360.92267 137.31343 z" id="path4953hat" sodipodi:cx="219.2673" sodipodi:cy="137.31343" sodipodi:rx="141.65536" sodipodi:ry="60.786976" sodipodi:type="arc" style="opacity:1;fill:#c83737;fill-opacity:1;fill-rule:evenodd;stroke:#000000;stroke-width:2;stroke-linecap:round;stroke-linejoin:round;stroke-miterlimit:4;stroke-dasharray:none;stroke-dashoffset:0;stroke-opacity:1" transform="matrix(1.3134096,0,0,0.9357136,-85.002713,0.1435369)"/>
		
  
		<path d="M 128.96812,27.343245 C 120.91115,36.615833 111.14775,73.985971 107.07942,100.73794 C 106.08054,107.30625 104.9795,112.58689 104.12446,117.3794 C 131.17528,129.07109 168.01262,136.38219 208.66193,136.58123 C 243.54309,136.75204 275.11336,129.4826 300.69874,120.81737 C 300.43763,95.101989 289.33864,14.811739 253.32091,22.65355 C 216.77178,30.611058 186.46357,29.355763 168.03616,22.523072 C 149.60875,15.690382 137.02508,18.070656 128.96812,27.343245 z " id="path5949hat" sodipodi:nodetypes="cscscszz" style="fill:#c83737;fill-rule:evenodd;stroke:#000000;stroke-width:1.10788107px;stroke-linecap:butt;stroke-linejoin:miter;stroke-opacity:1"/>
		
  
		<path d="M 155.88795,79.131854 C 157.62818,89.352228 158.52333,107.34206 153.82221,118.02738 C 150.59972,126.92523 148.47708,107.59846 145.81267,98.400425 C 145.08025,82.716711 131.05995,81.840367 122.17041,73.912613 C 117.27406,68.044216 117.29706,61.618905 123.4421,51.007563 C 137.38966,52.144345 151.05992,65.185197 155.88795,79.131854 z " id="path5966hat" sodipodi:nodetypes="cccccc" style="opacity:1;fill:#aa0000;fill-opacity:1;fill-rule:evenodd;stroke:none;stroke-width:2;stroke-linecap:round;stroke-linejoin:round;stroke-miterlimit:4;stroke-dasharray:none;stroke-dashoffset:0;stroke-opacity:1"/>
		
  
		<path d="M 247.39344,80.689689 C 244.66961,90.701569 242.09455,108.52992 245.92195,119.61536 C 248.40045,128.78077 252.35538,109.73753 255.93104,100.83123 C 258.1269,85.283755 272.56046,85.740149 282.39175,78.688818 C 287.94528,73.309551 288.51416,66.909429 283.20179,55.76079 C 268.81867,55.570618 253.62186,67.260096 247.39344,80.689689 z " id="path5987hat" sodipodi:nodetypes="cccccc" style="opacity:1;fill:#aa0000;fill-opacity:1;fill-rule:evenodd;stroke:none;stroke-width:2;stroke-linecap:round;stroke-linejoin:round;stroke-miterlimit:4;stroke-dasharray:none;stroke-dashoffset:0;stroke-opacity:1"/>
		
  
		<path d="M 104.07055,115.73949 C 100.90187,138.29425 99.835596,138.27839 106.13856,141.47817 C 112.38769,144.65062 129.27299,150.35732 155.12502,154.20527 C 180.95695,158.05023 218.01191,159.76176 252.55843,156.45137 C 267.91125,153.8771 293.26586,150.64584 300.17546,145.99117 C 303.3667,143.84139 303.20213,142.03398 300.77429,120.37888 C 292.85297,123.85696 279.69565,126.65146 266.35663,128.73311 C 245.12422,132.22054 233.00556,133.0625 209.18297,133.09055 C 182.69064,132.63125 159.70076,131.02019 132.21088,124.34077 C 123.29982,122.13738 111.67523,121.49326 104.07055,115.73949 z " id="path5989hat" sodipodi:nodetypes="czzcsccccc" style="fill:#1a1a1a;fill-rule:evenodd;stroke:#000000;stroke-width:1px;stroke-linecap:butt;stroke-linejoin:miter;stroke-opacity:1"/>
		
  
		<path d="M 251.49539,25.129245 C 264.26422,25.375083 252.11764,53.994616 213.47872,50.869781 C 125.26191,26.852756 243.13742,35.429672 251.49539,25.129245 z " id="path6004hat" sodipodi:nodetypes="ccc" style="opacity:1;fill:#ff5555;fill-opacity:1;fill-rule:evenodd;stroke:none;stroke-width:2;stroke-linecap:round;stroke-linejoin:round;stroke-miterlimit:4;stroke-dasharray:none;stroke-dashoffset:0;stroke-opacity:1"/>
		
  
		<path d="M 105.86203,184.54008 C 96.753812,215.52692 133.814,250.62596 167.97087,238.80452 C 182.81129,232.04733 200.28315,213.5788 217.32703,226.61742 C 228.70114,236.58817 243.82405,246.02477 260.2826,240.47259 C 278.06755,235.96595 289.15059,220.26586 295.3194,204.80299 C 299.77623,193.63139 296.86551,175.33169 280.96304,179.54741 C 224.27308,187.92705 166.36028,184.50715 109.72494,177.46435 C 107.54497,179.41823 108.04193,182.58616 105.86203,184.54008 z " id="path2256hat" sodipodi:nodetypes="ccccsccc" style="fill:#000000;fill-opacity:0.09941521;fill-rule:evenodd;stroke:none;stroke-width:1px;stroke-linecap:butt;stroke-linejoin:miter;stroke-opacity:1"/>
		

	</g>
</svg>
