<?xml version="1.0" ?>
<svg height="400" width="400" xmlns="http://www.w3.org/2000/svg" xmlns:cc="http://web.resource.org/cc/" xmlns:dc="http://purl.org/dc/elements/1.1/" xmlns:inkscape="http://www.inkscape.org/namespaces/inkscape" xmlns:memaker="http://launchpad.net/memaker" xmlns:rdf="http://www.w3.org/1999/02/22-rdf-syntax-ns#" xmlns:sodipodi="http://sodipodi.sourceforge.net/DTD/sodipodi-0.dtd" xmlns:xlink="http://www.w3.org/1999/xlink">
	
        
	<g memaker:file="head">
		
  
		<defs id="defs4head"/>
		
  
		<sodipodi:namedview bordercolor="#666666" borderopacity="1.0" gridtolerance="10000" guidetolerance="10" height="400px" id="basehead" inkscape:current-layer="layer2" inkscape:cx="225.37301" inkscape:cy="198.67187" inkscape:document-units="px" inkscape:pageopacity="0.0" inkscape:pageshadow="2" inkscape:window-height="711" inkscape:window-width="1024" inkscape:window-x="0" inkscape:window-y="0" inkscape:zoom="0.72576" objecttolerance="10" pagecolor="#ffffff" showgrid="false" width="400px"/>
		
  
		<metadata id="metadata7head">
			
    
			<rdf:RDF>
				
      
				<cc:Work rdf:about="">
					
        
					<dc:format>
						image/svg+xml
					</dc:format>
					
        
					<dc:type rdf:resource="http://purl.org/dc/dcmitype/StillImage"/>
					
      
				</cc:Work>
				
    
			</rdf:RDF>
			
  
		</metadata>
		
  
		<g id="layer1head" inkscape:groupmode="layer" inkscape:label="Layer 1" style="display:inline"/>
		
  
		<g id="layer2head" inkscape:groupmode="layer" inkscape:label="non" style="display:inline">
			
    
			<g id="g22421head" style="display:inline" transform="matrix(1.1508661,0,0,1.1508661,-19.379776,-26.030494)">
				
      
				<path d="M 309.46942,252.5004 C 309.46942,286.51034 255.6203,313.9762 189.27048,313.9762 C 122.92067,313.9762 69.071551,291.40675 69.071551,252.5004 C 69.071551,212.98302 122.92067,191.02463 189.27048,191.02463 C 255.6203,191.02463 309.46942,217.87887 309.46942,252.5004 z " id="path22423head" sodipodi:nodetypes="czzsz" style="fill:#ff53d9;fill-opacity:0.76737964;stroke:#76005f;stroke-width:8.67749882;stroke-linecap:butt;stroke-linejoin:miter;stroke-miterlimit:4;stroke-dasharray:none;stroke-dashoffset:0;stroke-opacity:1"/>
				
      
				<path d="M 311.13227,240.53434 C 311.89816,286.60244 262.09538,311.82077 198.9341,313.93241 C 130.73709,316.21239 65.354104,291.30593 68.864919,249.74771 C 76.027523,218.35707 59.706698,170.90951 132.77588,132.0266 C 164.01917,115.40085 175.3325,84.747073 198.75184,78.471881 C 253.25028,63.869074 246.70546,103.89304 291.47647,144.70503 C 310.70703,162.23507 310.93239,217.22427 311.13227,240.53434 z " id="path22425head" sodipodi:nodetypes="cscsssc" style="fill:#ff53d9;fill-opacity:0.76737964;fill-rule:evenodd;stroke:#76005f;stroke-width:8.67749882;stroke-linecap:butt;stroke-linejoin:miter;stroke-miterlimit:4;stroke-dasharray:none;stroke-opacity:1"/>
				
      
				<path d="M 159.35551,152.09803 C 132.14977,189.26133 148.13393,248.67609 153.81227,289.89892 C 153.81227,289.89892 153.30832,300.28639 131.63923,294.38065 C 131.63923,294.38065 80.161162,280.6279 85.277466,246.82477 C 83.747379,183.12536 102.23239,157.02281 154.31619,139.79437 C 159.37731,138.12024 163.89091,143.73154 159.35551,152.09803 z " id="path22427head" sodipodi:nodetypes="ccccsc" style="opacity:0.35483871;fill:#ffffff;fill-opacity:1;fill-rule:evenodd;stroke:none;stroke-width:1px;stroke-linecap:butt;stroke-linejoin:miter;stroke-opacity:1"/>
				
      
				<path d="M 185.89521,121.11845 C 185.89521,125.84071 181.79833,129.67327 176.75038,129.67327 C 171.70245,129.67327 167.60557,125.84071 167.60557,121.11845 C 167.60557,116.39617 171.70245,112.56361 176.75038,112.56361 C 181.79833,112.56361 185.89521,116.39617 185.89521,121.11845 z " id="path22429head" style="opacity:0.35483871;fill:#ffffff;fill-opacity:1;stroke:none;stroke-width:5.45499992;stroke-linecap:butt;stroke-linejoin:miter;stroke-miterlimit:4;stroke-dashoffset:0;stroke-opacity:1"/>
				
    
			</g>
			
  
		</g>
		

	</g>
	<g memaker:file="mouth">
		
  
		<defs id="defs4mouth"/>
		
  
		<sodipodi:namedview bordercolor="#666666" borderopacity="1.0" gridtolerance="10000" guidetolerance="10" height="400px" id="basemouth" inkscape:current-layer="layer2" inkscape:cx="265.02948" inkscape:cy="115.48633" inkscape:document-units="px" inkscape:pageopacity="0.0" inkscape:pageshadow="2" inkscape:window-height="711" inkscape:window-width="1024" inkscape:window-x="0" inkscape:window-y="0" inkscape:zoom="4.4937146" objecttolerance="10" pagecolor="#ffffff" showgrid="false" width="400px"/>
		
  
		<metadata id="metadata7mouth">
			
    
			<rdf:RDF>
				
      
				<cc:Work rdf:about="">
					
        
					<dc:format>
						image/svg+xml
					</dc:format>
					
        
					<dc:type rdf:resource="http://purl.org/dc/dcmitype/StillImage"/>
					
      
				</cc:Work>
				
    
			</rdf:RDF>
			
  
		</metadata>
		
  
		<g id="layer1mouth" inkscape:groupmode="layer" inkscape:label="Layer 1" style="display:inline"/>
		
  
		<g id="layer2mouth" inkscape:groupmode="layer" inkscape:label="non" style="display:inline">
			
    
			<path d="M 224.51576,289.73794 C 278.96211,278.9776 312.86231,244.55914 312.86231,244.55914 C 314.30814,292.46926 262.08643,309.73245 233.62836,296.03466 C 230.20107,294.385 227.11846,292.28628 224.51576,289.73794 z " id="path3046mouth" sodipodi:nodetypes="ccsc" style="opacity:1;color:#000000;fill:none;fill-opacity:1.0;fill-rule:nonzero;stroke:#f9b5b5;stroke-width:5.47627306;stroke-linecap:square;stroke-linejoin:miter;marker:none;marker-start:none;marker-mid:none;marker-end:none;stroke-miterlimit:4;stroke-dasharray:none;stroke-dashoffset:0;stroke-opacity:0.25668448;visibility:visible;display:inline;overflow:visible;enable-background:accumulate"/>
			
    
			<g id="g33869mouth" inkscape:label="Layer 1" style="display:inline" transform="translate(-0.5805613,-0.5476932)"/>
			
    
			<path d="M 213.07976,286.61455 C 280.50831,276.62925 316.68158,233.01809 316.68158,233.01809 C 332.98965,293.17713 250.45139,330.86295 213.07976,286.61455 z " id="path3042mouth" sodipodi:nodetypes="ccc" style="color:#000000;fill:none;fill-opacity:1;fill-rule:nonzero;stroke:#a40000;stroke-width:5.476;stroke-linecap:square;stroke-linejoin:round;marker:none;marker-start:none;marker-mid:none;marker-end:none;stroke-miterlimit:4;stroke-dasharray:none;stroke-dashoffset:0;stroke-opacity:1;visibility:visible;display:inline;overflow:visible;enable-background:accumulate"/>
			
    
			<path d="M 256.33911,283.13697 C 256.33911,283.13697 263.83518,294.8622 261.9659,297.5326" id="path9341mouth" sodipodi:nodetypes="cc" style="fill:none;fill-rule:evenodd;stroke:#ffffff;stroke-width:1.86;stroke-linecap:butt;stroke-linejoin:miter;stroke-opacity:0.88950276;stroke-miterlimit:4;stroke-dasharray:none;opacity:0.86111111"/>
			
    
			<path d="M 273.3697,275.46165 C 273.3697,275.46165 282.15483,289.36157 280.01482,292.38054" id="path9343mouth" sodipodi:nodetypes="cc" style="fill:none;fill-rule:evenodd;stroke:#ffffff;stroke-width:1.86;stroke-linecap:butt;stroke-linejoin:miter;stroke-opacity:0.88950276;stroke-miterlimit:4;stroke-dasharray:none;opacity:0.86111111"/>
			
    
			<path d="M 288.71974,266.75917 C 288.71974,266.75917 297.11853,280.01518 294.97852,283.03415" id="path9345mouth" sodipodi:nodetypes="cc" style="fill:none;fill-rule:evenodd;stroke:#ffffff;stroke-width:1.86;stroke-linecap:butt;stroke-linejoin:miter;stroke-opacity:0.88950276;stroke-miterlimit:4;stroke-dasharray:none;opacity:0.86111111"/>
			
    
			<path d="M 302.41067,257.06992 C 302.41067,257.06992 306.68848,262.47031 306.09383,267.42099" id="path9347mouth" sodipodi:nodetypes="cc" style="fill:none;fill-rule:evenodd;stroke:#ffffff;stroke-width:1.86;stroke-linecap:butt;stroke-linejoin:miter;stroke-opacity:0.88950276;stroke-miterlimit:4;stroke-dasharray:none;opacity:0.86111111"/>
			
    
			<path d="M 240.71503,288.57112 C 240.71503,288.57112 244.60649,292.94126 244.91332,296.8617" id="path9349mouth" sodipodi:nodetypes="cc" style="fill:none;fill-rule:evenodd;stroke:#ffffff;stroke-width:1.86;stroke-linecap:butt;stroke-linejoin:miter;stroke-opacity:0.88950276;stroke-miterlimit:4;stroke-dasharray:none;opacity:0.86111111"/>
			
  
		</g>
		

	</g>
	<g memaker:file="eye">
		
  
		<defs id="defs4eye">
			
    
			<linearGradient id="linearGradient6200eye">
				
      
				<stop id="stop6202eye" offset="0" style="stop-color:#000000;stop-opacity:1;"/>
				
      
				<stop id="stop6204eye" offset="1" style="stop-color:#000000;stop-opacity:0;"/>
				
    
			</linearGradient>
			
    
			<linearGradient id="linearGradient8157eye">
				
      
				<stop id="stop8159eye" offset="0" style="stop-color:#73d216;stop-opacity:1;"/>
				
      
				<stop id="stop8161eye" offset="1" style="stop-color:#8ae234;stop-opacity:1;"/>
				
    
			</linearGradient>
			
    
			<linearGradient id="linearGradient7177eye" inkscape:collect="always">
				
      
				<stop id="stop7179eye" offset="0" style="stop-color:#eeeeec;stop-opacity:1;"/>
				
      
				<stop id="stop7181eye" offset="1" style="stop-color:#eeeeec;stop-opacity:0;"/>
				
    
			</linearGradient>
			
    
			<radialGradient cx="2.28125" cy="40.59375" fx="2.28125" fy="40.59375" gradientTransform="matrix(1,0,0,0.4006969,0,24.327962)" gradientUnits="userSpaceOnUse" id="radialGradient11463eye" inkscape:collect="always" r="8.96875" xlink:href="#linearGradient6200eye"/>
			
    
			<radialGradient cx="-17.876543" cy="31.891224" fx="-17.876543" fy="31.891224" gradientUnits="userSpaceOnUse" id="radialGradient11465eye" inkscape:collect="always" r="5.1940498" xlink:href="#linearGradient8157eye"/>
			
    
			<radialGradient cx="2.28125" cy="40.59375" fx="2.28125" fy="40.59375" gradientTransform="matrix(1,0,0,0.4006969,0,24.327962)" gradientUnits="userSpaceOnUse" id="radialGradient11523eye" inkscape:collect="always" r="8.96875" xlink:href="#linearGradient6200eye"/>
			
    
			<radialGradient cx="-17.876543" cy="31.891224" fx="-17.876543" fy="31.891224" gradientUnits="userSpaceOnUse" id="radialGradient11525eye" inkscape:collect="always" r="5.1940498" xlink:href="#linearGradient8157eye"/>
			
    
			<linearGradient gradientTransform="matrix(19.261404,0,0,22.15695,362.94144,-1175.4804)" gradientUnits="userSpaceOnUse" id="linearGradient11573eye" inkscape:collect="always" x1="-5.0855565" x2="-3.3527772" xlink:href="#linearGradient7177eye" y1="62.024666" y2="62.106888"/>
			
    
			<linearGradient gradientTransform="matrix(19.261404,0,0,22.15695,295.16447,-1143.5854)" gradientUnits="userSpaceOnUse" id="linearGradient11581eye" inkscape:collect="always" x1="-5.0855565" x2="-3.3527772" xlink:href="#linearGradient7177eye" y1="62.024666" y2="62.106888"/>
			
  
		</defs>
		
  
		<sodipodi:namedview bordercolor="#666666" borderopacity="1.0" gridtolerance="10000" guidetolerance="10" height="400px" id="baseeye" inkscape:current-layer="layer2" inkscape:cx="270.10689" inkscape:cy="191.17891" inkscape:document-units="px" inkscape:pageopacity="0.0" inkscape:pageshadow="2" inkscape:window-height="711" inkscape:window-width="1024" inkscape:window-x="0" inkscape:window-y="0" inkscape:zoom="3.1206352" objecttolerance="10" pagecolor="#ffffff" showgrid="false" width="400px"/>
		
  
		<metadata id="metadata7eye">
			
    
			<rdf:RDF>
				
      
				<cc:Work rdf:about="">
					
        
					<dc:format>
						image/svg+xml
					</dc:format>
					
        
					<dc:type rdf:resource="http://purl.org/dc/dcmitype/StillImage"/>
					
      
				</cc:Work>
				
    
			</rdf:RDF>
			
  
		</metadata>
		
  
		<g id="layer1eye" inkscape:groupmode="layer" inkscape:label="Layer 1" style="display:inline"/>
		
  
		<g id="layer2eye" inkscape:groupmode="layer" inkscape:label="non" style="display:inline">
			
    
			<g id="g33869eye" inkscape:label="Layer 1" style="display:inline" transform="translate(-0.5805613,-0.5476932)"/>
			
    
			<path d="M 11.25 40.59375 A 8.96875 3.59375 0 1 1  -6.6875,40.59375 A 8.96875 3.59375 0 1 1  11.25 40.59375 z" id="path11471eye" sodipodi:cx="2.28125" sodipodi:cy="40.59375" sodipodi:rx="8.96875" sodipodi:ry="3.59375" sodipodi:type="arc" style="opacity:0.4;color:#000000;fill:url(#radialGradient11463eye);fill-opacity:1;fill-rule:nonzero;stroke:none;stroke-width:1.02720356;stroke-linecap:square;stroke-linejoin:round;marker:none;marker-start:none;marker-mid:none;marker-end:none;stroke-miterlimit:4;stroke-dasharray:none;stroke-dashoffset:0;stroke-opacity:1;visibility:visible;display:inline;overflow:visible;enable-background:accumulate" transform="matrix(1.0488342,0,0,0.7169085,211.3588,224.23103)"/>
			
    
			<path d="M -13.744388 31.891224 A 4.1321554 4.1321554 0 1 1  -22.008698,31.891224 A 4.1321554 4.1321554 0 1 1  -13.744388 31.891224 z" id="path11473eye" sodipodi:cx="-17.876543" sodipodi:cy="31.891224" sodipodi:rx="4.1321554" sodipodi:ry="4.1321554" sodipodi:type="arc" style="color:#000000;fill:url(#radialGradient11465eye);fill-opacity:1;fill-rule:nonzero;stroke:#eeeeec;stroke-width:2.06607747;stroke-linecap:square;stroke-linejoin:round;marker:none;marker-start:none;marker-mid:none;marker-end:none;stroke-miterlimit:4;stroke-dasharray:none;stroke-dashoffset:0;stroke-opacity:1;visibility:visible;display:inline;overflow:visible;enable-background:accumulate" transform="matrix(4.9767518,0,0,5.7954064,302.26526,45.070445)"/>
			
    
			<path d="M -3.25 62 A 1 1 0 1 1  -5.25,62 A 1 1 0 1 1  -3.25 62 z" id="path11475eye" sodipodi:cx="-4.25" sodipodi:cy="62" sodipodi:rx="1" sodipodi:ry="1" sodipodi:type="arc" style="color:#000000;fill:#000000;fill-opacity:1;fill-rule:nonzero;stroke:none;stroke-width:3;stroke-linecap:square;stroke-linejoin:round;marker:none;marker-start:none;marker-mid:none;marker-end:none;stroke-miterlimit:4;stroke-dasharray:none;stroke-dashoffset:0;stroke-opacity:1;visibility:visible;display:inline;overflow:visible;enable-background:accumulate" transform="matrix(5.1411785,0,0,5.9868803,235.14813,-141.29353)"/>
			
    
			<path d="M -3.25 62 A 1 1 0 1 1  -5.25,62 A 1 1 0 1 1  -3.25 62 z" id="path11477eye" sodipodi:cx="-4.25" sodipodi:cy="62" sodipodi:rx="1" sodipodi:ry="1" sodipodi:type="arc" style="color:#000000;fill:none;fill-opacity:1;fill-rule:nonzero;stroke:#d3d7cf;stroke-width:0.09523808;stroke-linecap:square;stroke-linejoin:round;marker:none;marker-start:none;marker-mid:none;marker-end:none;stroke-miterlimit:4;stroke-dasharray:none;stroke-dashoffset:0;stroke-opacity:1;visibility:visible;display:inline;overflow:visible;enable-background:accumulate" transform="matrix(26.991182,0,0,31.431126,328.01066,-1718.8367)"/>
			
    
			<path d="M -3.25 62 A 1 1 0 1 1  -5.25,62 A 1 1 0 1 1  -3.25 62 z" id="path11479eye" sodipodi:cx="-4.25" sodipodi:cy="62" sodipodi:rx="1" sodipodi:ry="1" sodipodi:type="arc" style="color:#000000;fill:none;fill-opacity:1;fill-rule:nonzero;stroke:#ffffff;stroke-width:0.10526312;stroke-linecap:square;stroke-linejoin:round;marker:none;marker-start:none;marker-mid:none;marker-end:none;stroke-miterlimit:4;stroke-dasharray:none;stroke-dashoffset:0;stroke-opacity:1;visibility:visible;display:inline;overflow:visible;enable-background:accumulate" transform="matrix(24.420597,0,0,28.437678,317.08569,-1533.243)"/>
			
    
			<path d="M 232.5649,230.1455 C 213.5227,205.26651 214.39698,246.76439 194.0421,230.1455 C 194.0421,217.91487 202.67121,207.98854 213.3035,207.98854 C 223.93579,207.98854 232.5649,217.91487 232.5649,230.1455 z " id="path11481eye" sodipodi:nodetypes="ccsc" style="opacity:0.4;color:#000000;fill:url(#linearGradient11581eye);fill-opacity:1;fill-rule:nonzero;stroke:none;stroke-width:0.04651162;stroke-linecap:square;stroke-linejoin:round;marker:none;marker-start:none;marker-mid:none;marker-end:none;stroke-miterlimit:4;stroke-dashoffset:0;stroke-opacity:1;visibility:visible;display:inline;overflow:visible;enable-background:accumulate"/>
			
    
			<path d="M 11.25 40.59375 A 8.96875 3.59375 0 1 1  -6.6875,40.59375 A 8.96875 3.59375 0 1 1  11.25 40.59375 z" id="path11497eye" sodipodi:cx="2.28125" sodipodi:cy="40.59375" sodipodi:rx="8.96875" sodipodi:ry="3.59375" sodipodi:type="arc" style="opacity:0.4;color:#000000;fill:url(#radialGradient11523eye);fill-opacity:1;fill-rule:nonzero;stroke:none;stroke-width:1.02720356;stroke-linecap:square;stroke-linejoin:round;marker:none;marker-start:none;marker-mid:none;marker-end:none;stroke-miterlimit:4;stroke-dasharray:none;stroke-dashoffset:0;stroke-opacity:1;visibility:visible;display:inline;overflow:visible;enable-background:accumulate" transform="matrix(1.0488342,0,0,0.7169085,279.13577,192.33598)"/>
			
    
			<path d="M -13.744388 31.891224 A 4.1321554 4.1321554 0 1 1  -22.008698,31.891224 A 4.1321554 4.1321554 0 1 1  -13.744388 31.891224 z" id="path11499eye" sodipodi:cx="-17.876543" sodipodi:cy="31.891224" sodipodi:rx="4.1321554" sodipodi:ry="4.1321554" sodipodi:type="arc" style="color:#000000;fill:url(#radialGradient11525eye);fill-opacity:1;fill-rule:nonzero;stroke:#eeeeec;stroke-width:2.06607747;stroke-linecap:square;stroke-linejoin:round;marker:none;marker-start:none;marker-mid:none;marker-end:none;stroke-miterlimit:4;stroke-dasharray:none;stroke-dashoffset:0;stroke-opacity:1;visibility:visible;display:inline;overflow:visible;enable-background:accumulate" transform="matrix(4.9767518,0,0,5.7954064,370.04223,13.175395)"/>
			
    
			<path d="M -3.25 62 A 1 1 0 1 1  -5.25,62 A 1 1 0 1 1  -3.25 62 z" id="path11501eye" sodipodi:cx="-4.25" sodipodi:cy="62" sodipodi:rx="1" sodipodi:ry="1" sodipodi:type="arc" style="color:#000000;fill:#000000;fill-opacity:1;fill-rule:nonzero;stroke:none;stroke-width:3;stroke-linecap:square;stroke-linejoin:round;marker:none;marker-start:none;marker-mid:none;marker-end:none;stroke-miterlimit:4;stroke-dasharray:none;stroke-dashoffset:0;stroke-opacity:1;visibility:visible;display:inline;overflow:visible;enable-background:accumulate" transform="matrix(5.1411785,0,0,5.9868803,302.9251,-173.18858)"/>
			
    
			<path d="M -3.25 62 A 1 1 0 1 1  -5.25,62 A 1 1 0 1 1  -3.25 62 z" id="path11503eye" sodipodi:cx="-4.25" sodipodi:cy="62" sodipodi:rx="1" sodipodi:ry="1" sodipodi:type="arc" style="color:#000000;fill:none;fill-opacity:1;fill-rule:nonzero;stroke:#d3d7cf;stroke-width:0.09523808;stroke-linecap:square;stroke-linejoin:round;marker:none;marker-start:none;marker-mid:none;marker-end:none;stroke-miterlimit:4;stroke-dasharray:none;stroke-dashoffset:0;stroke-opacity:1;visibility:visible;display:inline;overflow:visible;enable-background:accumulate" transform="matrix(26.991182,0,0,31.431126,395.78763,-1750.7318)"/>
			
    
			<path d="M -3.25 62 A 1 1 0 1 1  -5.25,62 A 1 1 0 1 1  -3.25 62 z" id="path11505eye" sodipodi:cx="-4.25" sodipodi:cy="62" sodipodi:rx="1" sodipodi:ry="1" sodipodi:type="arc" style="color:#000000;fill:none;fill-opacity:1;fill-rule:nonzero;stroke:#ffffff;stroke-width:0.10526312;stroke-linecap:square;stroke-linejoin:round;marker:none;marker-start:none;marker-mid:none;marker-end:none;stroke-miterlimit:4;stroke-dasharray:none;stroke-dashoffset:0;stroke-opacity:1;visibility:visible;display:inline;overflow:visible;enable-background:accumulate" transform="matrix(24.420597,0,0,28.437678,384.86266,-1565.138)"/>
			
    
			<path d="M 300.34187,198.25045 C 281.29967,173.37146 282.17395,214.86934 261.81907,198.25045 C 261.81907,186.01982 270.44818,176.09349 281.08047,176.09349 C 291.71276,176.09349 300.34187,186.01982 300.34187,198.25045 z " id="path11507eye" sodipodi:nodetypes="ccsc" style="opacity:0.4;color:#000000;fill:url(#linearGradient11573eye);fill-opacity:1;fill-rule:nonzero;stroke:none;stroke-width:0.04651162;stroke-linecap:square;stroke-linejoin:round;marker:none;marker-start:none;marker-mid:none;marker-end:none;stroke-miterlimit:4;stroke-dashoffset:0;stroke-opacity:1;visibility:visible;display:inline;overflow:visible;enable-background:accumulate"/>
			
  
		</g>
		

	</g>
	<g memaker:file="hair">
		
  
		<defs id="defs4hair"/>
		
  
		<sodipodi:namedview bordercolor="#666666" borderopacity="1.0" gridtolerance="10000" guidetolerance="10" height="400px" id="basehair" inkscape:current-layer="layer2" inkscape:cx="251.86205" inkscape:cy="261.58304" inkscape:document-units="px" inkscape:pageopacity="0.0" inkscape:pageshadow="2" inkscape:window-height="711" inkscape:window-width="1024" inkscape:window-x="0" inkscape:window-y="0" inkscape:zoom="1.2541133" objecttolerance="10" pagecolor="#ffffff" showgrid="false" width="400px"/>
		
  
		<metadata id="metadata7hair">
			
    
			<rdf:RDF>
				
      
				<cc:Work rdf:about="">
					
        
					<dc:format>
						image/svg+xml
					</dc:format>
					
        
					<dc:type rdf:resource="http://purl.org/dc/dcmitype/StillImage"/>
					
      
				</cc:Work>
				
    
			</rdf:RDF>
			
  
		</metadata>
		
  
		<g id="layer1hair" inkscape:groupmode="layer" inkscape:label="Layer 1" style="display:inline"/>
		
  
		<g id="layer2hair" inkscape:groupmode="layer" inkscape:label="non" style="display:inline">
			
    
			<path d="M 225.3861,121.05633 C 196.82,127.01218 205.44774,79.54722 153.71315,116.90221 C 194.2272,-0.54464402 355.40419,84.000666 225.3861,121.05633 z " id="path27472hair" sodipodi:nodetypes="ccc" style="fill:#00a900;fill-opacity:0.88235295;fill-rule:evenodd;stroke:#007000;stroke-width:3.09518766;stroke-linecap:butt;stroke-linejoin:miter;stroke-miterlimit:4;stroke-dasharray:none;stroke-opacity:1"/>
			
    
			<path d="M 225.21875,65.03125 C 206.3504,65.469714 188.66421,79.702527 174.9773,91.54918 C 173.86167,97.31716 183.38904,92.204915 186.65625,93.625 C 199.414,96.240093 208.66829,106.54351 219.78125,112.1875 C 238.69424,112.3423 257.56004,102.0037 266.78125,85.34375 C 263.36685,70.299759 246.11966,64.020837 232.00154,65.10078 C 229.74248,64.967889 227.47926,65.002712 225.21875,65.03125 z " id="path4633hair" sodipodi:nodetypes="ccccccc" style="fill:#ffffff;fill-opacity:1;fill-rule:evenodd;stroke:none;stroke-width:3.09518766;stroke-linecap:butt;stroke-linejoin:miter;stroke-miterlimit:4;stroke-dasharray:none;stroke-opacity:1;opacity:0.4"/>
			
  
		</g>
		

	</g>
	<g memaker:file="glasses">
		
  
		<defs id="defs4glasses"/>
		
  
		<sodipodi:namedview bordercolor="#666666" borderopacity="1.0" gridtolerance="10000" guidetolerance="10" height="400px" id="baseglasses" inkscape:current-layer="layer2" inkscape:cx="371.95024" inkscape:cy="200.15597" inkscape:document-units="px" inkscape:pageopacity="0.0" inkscape:pageshadow="2" inkscape:window-height="711" inkscape:window-width="1024" inkscape:window-x="0" inkscape:window-y="0" inkscape:zoom="1.8059231" objecttolerance="10" pagecolor="#ffffff" showgrid="false" width="400px"/>
		
  
		<metadata id="metadata7glasses">
			
    
			<rdf:RDF>
				
      
				<cc:Work rdf:about="">
					
        
					<dc:format>
						image/svg+xml
					</dc:format>
					
        
					<dc:type rdf:resource="http://purl.org/dc/dcmitype/StillImage"/>
					
      
				</cc:Work>
				
    
			</rdf:RDF>
			
  
		</metadata>
		
  
		<g id="layer1glasses" inkscape:groupmode="layer" inkscape:label="Layer 1" style="display:inline"/>
		
  
		<g id="layer2glasses" inkscape:groupmode="layer" inkscape:label="non" style="display:inline">
			
    
			<path d="M 205.84306,204.66544 C 208.77926,207.75618 213.1063,203.42915 212.95176,206.36535 C 212.79722,209.30155 207.2339,208.06525 208.47019,210.07423 C 209.70648,212.08321 210.1701,212.39228 210.1701,212.39228M 193.48012,216.71931 C 195.18002,218.26468 196.72539,212.54682 197.65261,214.86487 C 198.57983,217.18292 195.79817,221.81903 197.96169,221.50996 C 200.1252,221.20088 201.3615,219.96459 201.3615,219.96459M 190.85299,233.8729 C 194.09826,232.48207 195.79817,229.70041 196.10724,231.24578 C 196.41632,232.79114 196.82538,235.34883 197.65261,234.95466 C 198.25216,234.66898 199.87837,234.10542 199.34179,232.85339M 195.33456,247.31761 C 197.49807,243.60872 198.57983,239.7453 199.81613,242.52697 C 201.05242,245.30863 203.21594,248.24483 202.90686,245.92678 C 202.59779,243.60872 203.21594,241.59974 203.21594,241.59974M 216.96972,248.09029 C 212.79722,250.40834 210.94278,252.7264 213.72444,253.19001 C 216.50611,253.65362 219.59684,253.96269 218.05147,254.73538 C 216.50611,255.50806 215.57888,256.74435 215.57888,256.74435M 222.06943,244.07233 C 224.07841,246.39039 229.02359,243.45419 228.09637,245.6177 C 227.16915,247.78122 222.37851,248.39937 224.38748,249.63566 C 226.39646,250.87195 227.47822,251.18103 227.47822,251.18103M 228.09637,231.55485 C 228.09637,231.55485 232.11433,227.53689 232.26886,229.39133 C 232.4234,231.24578 231.49618,236.03642 233.50516,235.1092 C 235.51414,234.18198 236.44136,230.9367 236.44136,230.9367M 224.38748,217.492 C 226.39646,215.32848 226.551,212.70136 225.62378,211.46506 C 224.69656,210.22877 228.86905,209.76516 228.86905,209.76516" id="path2194glasses" style="fill:none;fill-rule:evenodd;stroke:#a40000;stroke-width:1px;stroke-linecap:butt;stroke-linejoin:miter;stroke-opacity:1;opacity:0.58064516"/>
			
    
			<path d="M 273.34475,172.39815 C 276.28095,175.48889 280.60799,171.16186 280.45345,174.09806 C 280.29891,177.03426 274.73559,175.79796 275.97188,177.80694 C 277.20817,179.81592 277.67179,180.12499 277.67179,180.12499 M 260.98181,184.45202 C 262.68171,185.99739 264.22708,180.27953 265.1543,182.59758 C 266.08152,184.91563 263.29986,189.55174 265.46338,189.24267 C 267.62689,188.93359 268.86319,187.6973 268.86319,187.6973 M 258.35468,201.60561 C 261.59995,200.21478 263.29986,197.43312 263.60893,198.97849 C 263.91801,200.52385 264.32707,203.08154 265.1543,202.68737 C 265.75385,202.40169 267.38006,201.83813 266.84348,200.5861 M 262.83625,215.05032 C 264.99976,211.34143 266.08152,207.47801 267.31782,210.25968 C 268.55411,213.04134 270.71763,215.97754 270.40855,213.65949 C 270.09948,211.34143 270.71763,209.33245 270.71763,209.33245 M 284.47141,215.823 C 280.29891,218.14105 278.44447,220.45911 281.22613,220.92272 C 284.0078,221.38633 287.09853,221.6954 285.55316,222.46809 C 284.0078,223.24077 283.08057,224.47706 283.08057,224.47706 M 289.57112,211.80504 C 291.5801,214.1231 296.52528,211.1869 295.59806,213.35041 C 294.67084,215.51393 289.8802,216.13208 291.88917,217.36837 C 293.89815,218.60466 294.97991,218.91374 294.97991,218.91374 M 295.59806,199.28756 C 295.59806,199.28756 299.61602,195.2696 299.77055,197.12404 C 299.92509,198.97849 298.99787,203.76913 301.00685,202.84191 C 303.01583,201.91469 303.94305,198.66941 303.94305,198.66941 M 291.88917,185.22471 C 293.89815,183.06119 294.05269,180.43407 293.12547,179.19777 C 292.19825,177.96148 296.37074,177.49787 296.37074,177.49787" id="path4162glasses" style="opacity:0.58064515;fill:none;fill-rule:evenodd;stroke:#a40000;stroke-width:1px;stroke-linecap:butt;stroke-linejoin:miter;stroke-opacity:1"/>
			
  
		</g>
		

	</g>
	<g memaker:file="accessory">
		
  
		<defs id="defs4accessory"/>
		
  
		<sodipodi:namedview bordercolor="#666666" borderopacity="1.0" gridtolerance="10000" guidetolerance="10" height="400px" id="baseaccessory" inkscape:current-layer="layer2" inkscape:cx="180.86782" inkscape:cy="218.36742" inkscape:document-units="px" inkscape:pageopacity="0.0" inkscape:pageshadow="2" inkscape:window-height="711" inkscape:window-width="1024" inkscape:window-x="0" inkscape:window-y="0" inkscape:zoom="1.8059231" objecttolerance="10" pagecolor="#ffffff" showgrid="false" width="400px"/>
		
  
		<metadata id="metadata7accessory">
			
    
			<rdf:RDF>
				
      
				<cc:Work rdf:about="">
					
        
					<dc:format>
						image/svg+xml
					</dc:format>
					
        
					<dc:type rdf:resource="http://purl.org/dc/dcmitype/StillImage"/>
					
      
				</cc:Work>
				
    
			</rdf:RDF>
			
  
		</metadata>
		
  
		<g id="layer1accessory" inkscape:groupmode="layer" inkscape:label="Layer 1" style="display:inline"/>
		
  
		<g id="layer2accessory" inkscape:groupmode="layer" inkscape:label="non" style="display:inline">
			
    
			<g id="g6822accessory" transform="matrix(0.3506231,-0.9365167,-0.9365167,-0.3506231,270.46638,286.11787)">
				
      
				<path d="M 87.023721,264.64346 C 87.286641,270.01244 83.408611,273.8431 79.325721,277.00815 C 75.502321,280.27451 70.881301,282.86524 68.130621,287.24152 C 65.792731,291.38849 67.144861,297.2427 71.453481,298.93421 C 74.404831,300.32249 78.074241,298.38985 79.424771,295.34438 C 80.902161,292.64967 80.562371,289.31205 82.655041,286.86602 C 84.859241,283.68047 89.514351,281.17448 92.844871,283.51571 C 94.847611,285.16554 95.783931,288.35318 94.962161,290.92949 C 93.328571,296.17627 94.847041,302.23156 98.612411,305.80185 C 100.5008,307.71203 103.83419,307.44038 105.63737,305.23175 C 109.16352,301.66431 110.14524,296.17839 108.60689,291.67742 C 107.02294,285.89698 103.08285,280.4717 104.37788,274.0529 C 104.9083,270.36101 108.38522,267.10683 112.03708,267.30055 C 116.54957,267.96752 119.22821,272.10733 122.61764,274.70052 C 124.54939,276.08591 127.46834,278.64822 129.78908,276.32567 C 133.49273,273.6208 133.87837,268.30062 132.01344,264.61927 C 129.44651,259.09339 123.7965,254.46403 117.40802,255.21345 C 112.82446,256.37102 108.3862,254.33056 104.68297,252.18728" id="path3489accessory" sodipodi:nodetypes="cccccccccccccccccc" style="fill:#ff53da;fill-opacity:0.8627451;fill-rule:evenodd;stroke:#76005f;stroke-width:5;stroke-linecap:square;stroke-linejoin:miter;stroke-miterlimit:4;stroke-dasharray:none;stroke-opacity:1"/>
				
      
				<path d="M 104.41507,252.45306 L 73.690911,203.83849 C 62.481381,211.18229 54.061631,213.38712 54.061631,213.38712 L 87.561341,264.31787" id="path3491accessory" sodipodi:nodetypes="ccccc" style="fill:#ff53da;fill-opacity:0.8627451;fill-rule:evenodd;stroke:#76005f;stroke-width:5;stroke-linecap:butt;stroke-linejoin:miter;stroke-miterlimit:4;stroke-dasharray:none;stroke-opacity:1"/>
				
      
				<path d="M 70.638711,290.70029 C 71.283971,297.19474 79.920511,289.03685 74.577941,287.33925 C 72.850061,287.68032 71.175741,288.99273 70.638711,290.70029 z M 98.949981,289.36296 C 97.254441,293.09334 97.818011,300.36334 102.46883,301.23719 C 107.28848,299.30622 105.17882,293.21675 103.54221,289.71161 C 102.38936,286.69339 98.848761,283.92156 98.949981,289.36296 z " id="path3493accessory" sodipodi:nodetypes="ccccccc" style="opacity:0.36021501;fill:#ffffff;fill-opacity:0.94509804;fill-rule:evenodd;stroke:none;stroke-width:5.14181423;stroke-linecap:butt;stroke-linejoin:miter;stroke-miterlimit:4;stroke-dasharray:none;stroke-opacity:1;display:inline"/>
				
      
				<path d="M 89.395471,257.68784 C 83.584401,248.97123 66.957381,225.50039 63.618731,220.41355 C 59.275411,213.79596 66.307661,213.32032 67.883941,214.85023 C 75.401361,222.14655 86.057481,241.04422 91.435361,251.75362 C 96.813241,262.46302 90.044521,258.66142 89.395471,257.68784 z " id="path3495accessory" sodipodi:nodetypes="cssss" style="opacity:0.36021501;fill:#ffffff;fill-opacity:1;fill-rule:evenodd;stroke:none;stroke-width:1px;stroke-linecap:butt;stroke-linejoin:miter;stroke-opacity:1;display:inline"/>
				
    
			</g>
			
    
			<g id="g6828accessory" transform="matrix(0.978997,0.2038749,0.2038749,-0.978997,15.862463,279.61397)">
				
      
				<path d="M 298.5765,243.98064 C 303.20102,246.72087 308.3995,245.08109 313.10513,242.94928 C 317.77913,241.09423 322.22828,238.21834 327.38264,237.83023 C 332.14144,237.70001 336.68626,241.62998 336.16944,246.22979 C 336.01845,249.48786 332.59567,251.8297 329.27202,251.60138 C 326.19925,251.64906 323.40679,249.78967 320.26653,250.49754 C 316.42028,250.95861 312.03013,253.90423 312.54466,257.94267 C 313.06802,260.48412 315.44923,262.80092 318.11108,263.27764 C 323.51338,264.28387 328.1583,268.45484 329.55647,273.45185 C 330.36344,276.0138 328.56628,278.83435 325.77115,279.39714 C 320.96976,280.84872 315.66049,279.1544 312.39921,275.69185 C 308.02789,271.59136 305.07113,265.57343 298.79065,263.72041 C 295.27848,262.465 290.77708,264.01938 289.24265,267.33889 C 287.7247,271.64042 290.13403,275.94254 290.84383,280.15076 C 291.16652,282.50593 292.06877,286.28371 288.93116,287.25093 C 284.80957,289.26235 279.92526,287.11838 277.54124,283.74989 C 273.85414,278.89914 272.39981,271.74103 276.0464,266.44229 C 279.21084,262.93012 279.47966,258.05268 279.31425,253.77715" id="path3227accessory" sodipodi:nodetypes="cccccccccccccccccc" style="fill:#ff53da;fill-opacity:0.8627451;fill-rule:evenodd;stroke:#76005f;stroke-width:5;stroke-linecap:square;stroke-linejoin:miter;stroke-miterlimit:4;stroke-dasharray:none;stroke-opacity:1"/>
				
      
				<path d="M 279.67439,253.66441 L 251.03939,203.7907 C 262.76865,197.30923 268.6509,190.8942 268.6509,190.8942 L 298.03749,244.30394" id="path3229accessory" sodipodi:nodetypes="ccccc" style="fill:#ff53da;fill-opacity:0.8627451;fill-rule:evenodd;stroke:#76005f;stroke-width:5;stroke-linecap:butt;stroke-linejoin:miter;stroke-miterlimit:4;stroke-dasharray:none;stroke-opacity:1"/>
				
      
				<path d="M 309.93802,248.63296 C 313.4653,252.66118 305.83936,255.28784 306.60652,259.15765 C 307.27623,264.6535 298.59402,258.34899 295.39277,258.82626 C 289.14776,259.13899 284.35725,265.72071 284.88828,271.78709 C 283.93564,275.24843 289.10528,282.6674 283.66655,282.89206 C 278.61823,281.07297 279.34256,274.68627 279.98637,270.44527 C 280.69827,266.03605 282.50118,261.31805 286.86325,259.37752 C 291.93475,256.5995 298.73818,255.99174 301.87353,250.53137 C 303.55415,247.59106 307.11263,247.84664 309.93802,248.63296 z " id="path3497accessory" sodipodi:nodetypes="ccccccccc" style="opacity:0.36021501;fill:#ffffff;fill-opacity:0.94509804;fill-rule:evenodd;stroke:none;stroke-width:5.14181423;stroke-linecap:butt;stroke-linejoin:miter;stroke-miterlimit:4;stroke-dasharray:none;stroke-opacity:1;display:inline"/>
				
      
				<path d="M 282.33211,246.69104 C 277.34225,237.70978 263.2533,213.27942 260.37635,208.05139 C 256.63364,201.2501 261.25864,202.61199 262.50517,204.32855 C 268.44997,212.51497 277.9738,231.49696 282.93054,242.08759 C 287.88726,252.6782 282.88945,247.69418 282.33211,246.69104 z " id="path3499accessory" sodipodi:nodetypes="cssss" style="opacity:0.36021501;fill:#ffffff;fill-opacity:1;fill-rule:evenodd;stroke:none;stroke-width:1px;stroke-linecap:butt;stroke-linejoin:miter;stroke-opacity:1;display:inline"/>
				
    
			</g>
			
  
		</g>
		

	</g>
</svg>
