<?xml version="1.0" ?>
<svg height="400" width="400" xmlns="http://www.w3.org/2000/svg" xmlns:cc="http://web.resource.org/cc/" xmlns:dc="http://purl.org/dc/elements/1.1/" xmlns:inkscape="http://www.inkscape.org/namespaces/inkscape" xmlns:memaker="http://launchpad.net/memaker" xmlns:rdf="http://www.w3.org/1999/02/22-rdf-syntax-ns#" xmlns:sodipodi="http://sodipodi.sourceforge.net/DTD/sodipodi-0.dtd" xmlns:xlink="http://www.w3.org/1999/xlink">
	
        
	<g memaker:file="ear">
		
  
		<defs id="defs2755ear"/>
		
  
		<sodipodi:namedview bordercolor="#666666" borderopacity="1.0" gridtolerance="10000" guidetolerance="10" height="400px" id="baseear" inkscape:current-layer="svg2753" inkscape:cx="122.64669" inkscape:cy="169.96262" inkscape:document-units="px" inkscape:pageopacity="0.0" inkscape:pageshadow="2" inkscape:window-height="732" inkscape:window-width="1090" inkscape:window-x="91" inkscape:window-y="146" inkscape:zoom="5.2" objecttolerance="10" pagecolor="#ffffff" width="400px"/>
		
  
		<metadata id="metadata2758ear">
			
    
			<rdf:RDF>
				
      
				<cc:Work rdf:about="">
					
        
					<dc:format>
						image/svg+xml
					</dc:format>
					
        
					<dc:type rdf:resource="http://purl.org/dc/dcmitype/StillImage"/>
					
      
				</cc:Work>
				
    
			</rdf:RDF>
			
  
		</metadata>
		
  
		<g id="g4419ear" style="fill:#784421;display:inline" transform="matrix(0.982194,0,0,0.9541268,7.43581,6.5017722e-2)">
			
    
			<g id="g4421ear" style="fill:#784421">
				
      
				<path d="M 109.40812,279.41683 C 97.492781,284.83755 92.926707,279.21186 91.21644,262.86945 C 85.1465,248.70689 70.787928,222.99095 85.141492,203.0511 C 95.796486,197.12181 97.63383,205.30654 102.64254,209.41336" id="path4423ear" sodipodi:nodetypes="cccc" style="fill:#784421;fill-opacity:1;fill-rule:evenodd;stroke:#000000;stroke-width:2.81657481;stroke-linecap:round;stroke-linejoin:round;stroke-miterlimit:4;stroke-dashoffset:0;stroke-opacity:1"/>
				
      
				<path d="M 86.942856,217.19523 C 96.097428,205.98052 103.67701,234.76263 98.26772,250.76282 C 97.574354,260.22952 102.69044,260.78193 105.59047,262.24744" id="path4425ear" sodipodi:nodetypes="ccc" style="fill:#784421;fill-rule:evenodd;stroke:#000000;stroke-width:1.03181887px;stroke-linecap:butt;stroke-linejoin:miter;stroke-opacity:1"/>
				
    
			</g>
			
    
			<g id="g4427ear" style="fill:#784421" transform="matrix(-1,0,0,1,398.37571,0)">
				
      
				<path d="M 109.40812,279.41683 C 97.492781,284.83755 92.926707,279.21186 91.21644,262.86945 C 85.1465,248.70689 70.787928,222.99095 85.141492,203.0511 C 95.796486,197.12181 97.63383,205.30654 102.64254,209.41336" id="path4429ear" sodipodi:nodetypes="cccc" style="fill:#784421;fill-opacity:1;fill-rule:evenodd;stroke:#000000;stroke-width:2.81657481;stroke-linecap:round;stroke-linejoin:round;stroke-miterlimit:4;stroke-dashoffset:0;stroke-opacity:1"/>
				
      
				<path d="M 86.942856,217.19523 C 96.097428,205.98052 103.67701,234.76263 98.26772,250.76282 C 97.574354,260.22952 102.69044,260.78193 105.59047,262.24744" id="path4431ear" sodipodi:nodetypes="ccc" style="fill:#784421;fill-rule:evenodd;stroke:#000000;stroke-width:1.03181887px;stroke-linecap:butt;stroke-linejoin:miter;stroke-opacity:1"/>
				
    
			</g>
			
  
		</g>
		

	</g>
	<g memaker:file="head">
		
  
		<defs id="defs2755head"/>
		
  
		<sodipodi:namedview bordercolor="#666666" borderopacity="1.0" gridtolerance="10000" guidetolerance="10" height="400px" id="basehead" inkscape:current-layer="svg2753" inkscape:cx="200" inkscape:cy="200" inkscape:document-units="px" inkscape:pageopacity="0.0" inkscape:pageshadow="2" inkscape:window-height="619" inkscape:window-width="872" inkscape:window-x="138" inkscape:window-y="175" inkscape:zoom="1.0175" objecttolerance="10" pagecolor="#ffffff" width="400px"/>
		
  
		<metadata id="metadata2758head">
			
    
			<rdf:RDF>
				
      
				<cc:Work rdf:about="">
					
        
					<dc:format>
						image/svg+xml
					</dc:format>
					
        
					<dc:type rdf:resource="http://purl.org/dc/dcmitype/StillImage"/>
					
      
				</cc:Work>
				
    
			</rdf:RDF>
			
  
		</metadata>
		
  
		<path d="M 301.25063,224.73962 C 297.00331,262.63721 292.64029,281.64045 280.13267,300.02391 C 267.62505,318.40737 250.16205,334.34091 242.06929,341.21847 C 233.97653,348.09602 215.38851,357.91504 201.96798,357.36067 C 188.54746,356.80629 177.82938,348.85695 166.47928,341.51431 C 155.12918,334.17168 136.81587,318.66524 124.37425,299.71939 C 111.93262,280.77352 107.15801,252.2173 104.90146,213.81959 C 102.64327,175.39381 108.4299,146.46595 127.04565,122.65905 C 145.66139,98.852126 180.23122,89.754966 207.07227,90.863736 C 233.91333,91.972486 261.84184,97.386026 280.20438,123.43173 C 298.38779,149.22336 305.49076,186.90617 301.25063,224.73962 z " id="path4434head" sodipodi:nodetypes="czzsszzzzzz" style="fill:#784421;fill-opacity:1;stroke:#000000;stroke-width:2.92761993;stroke-linecap:round;stroke-linejoin:round;stroke-miterlimit:4;stroke-dashoffset:0;stroke-opacity:1;display:inline"/>
		

	</g>
	<g memaker:file="mouth">
		
  
		<defs id="defs2755mouth"/>
		
  
		<sodipodi:namedview bordercolor="#666666" borderopacity="1.0" gridtolerance="10000" guidetolerance="10" height="400px" id="basemouth" inkscape:current-layer="svg2753" inkscape:cx="199.28685" inkscape:cy="105.77656" inkscape:document-units="px" inkscape:pageopacity="0.0" inkscape:pageshadow="2" inkscape:window-height="949" inkscape:window-width="1280" inkscape:window-x="0" inkscape:window-y="25" inkscape:zoom="5.6568542" objecttolerance="10" pagecolor="#ffffff" width="400px"/>
		
  
		<metadata id="metadata2758mouth">
			
    
			<rdf:RDF>
				
      
				<cc:Work rdf:about="">
					
        
					<dc:format>
						image/svg+xml
					</dc:format>
					
        
					<dc:type rdf:resource="http://purl.org/dc/dcmitype/StillImage"/>
					
      
				</cc:Work>
				
    
			</rdf:RDF>
			
  
		</metadata>
		
  
		<g id="g2172mouth">
			
    
			<g id="g2168mouth">
				
      
				<path d="M 161.57707,294.26699 C 173.71512,297.66058 186.5459,292.87647 198.63765,296.63635 C 203.11866,297.50605 207.54834,296.06516 211.93374,295.40121 C 220.40074,294.695 229.21745,297.11582 237.38058,293.88893" id="path2168mouth" style="fill:none;fill-rule:evenodd;stroke:#000000;stroke-width:1px;stroke-linecap:square;stroke-linejoin:bevel;stroke-opacity:1"/>
				
      
				<path d="M 188.0501,306.93437 C 198.70046,309.89268 206.84517,308.09982 215.87385,306.93437" id="path2170mouth" sodipodi:nodetypes="cz" style="fill:none;fill-rule:evenodd;stroke:#000000;stroke-width:1px;stroke-linecap:square;stroke-linejoin:bevel;stroke-opacity:1"/>
				
    
			</g>
			
    
			<path d="M 162.72091,291.96713 C 162.10595,292.2888 161.30789,293.76392 160.80203,294.26979 C 160.33503,294.73678 160.21811,295.8214 160.03448,296.18867" id="path3311mouth" style="fill:none;fill-rule:evenodd;stroke:#000000;stroke-width:1px;stroke-linecap:butt;stroke-linejoin:miter;stroke-opacity:1"/>
			
    
			<path d="M 236.21396,291.96713 C 235.31849,292.86261 238.33404,293.52087 238.90039,294.65356 C 239.12665,295.10608 239.09941,295.43538 239.28417,295.80489" id="path3313mouth" style="fill:none;fill-rule:evenodd;stroke:#000000;stroke-width:1px;stroke-linecap:butt;stroke-linejoin:miter;stroke-opacity:1"/>
			
  
		</g>
		

	</g>
	<g memaker:file="nose">
		
  
		<defs id="defs2755nose"/>
		
  
		<sodipodi:namedview bordercolor="#666666" borderopacity="1.0" gridtolerance="10000" guidetolerance="10" height="400px" id="basenose" inkscape:current-layer="svg2753" inkscape:cx="184.18536" inkscape:cy="139.21896" inkscape:document-units="px" inkscape:pageopacity="0.0" inkscape:pageshadow="2" inkscape:window-height="949" inkscape:window-width="1280" inkscape:window-x="0" inkscape:window-y="25" inkscape:zoom="1" objecttolerance="10" pagecolor="#ffffff" showgrid="false" width="400px"/>
		
  
		<metadata id="metadata2758nose">
			
    
			<rdf:RDF>
				
      
				<cc:Work rdf:about="">
					
        
					<dc:format>
						image/svg+xml
					</dc:format>
					
        
					<dc:type rdf:resource="http://purl.org/dc/dcmitype/StillImage"/>
					
      
				</cc:Work>
				
    
			</rdf:RDF>
			
  
		</metadata>
		
  
		<g id="g3246nose" transform="translate(0,-2)">
			
    
			<path d="M 184.64579,270.40017 C 182.31831,268.7241 183.39863,267.47474 185.44913,268.81223 C 187.6061,270.21916 190.98252,276.22814 199.91383,273.09764 C 208.84463,276.21714 211.91735,270.933 214.29647,269.0715 C 216.54001,267.31608 217.47286,268.81824 214.99641,270.73233" id="path2159nose" sodipodi:nodetypes="cscsc" style="fill:none;fill-rule:evenodd;stroke:#000000;stroke-width:2.05603027;stroke-linecap:round;stroke-linejoin:round;stroke-miterlimit:4;stroke-dasharray:none;stroke-opacity:1"/>
			
    
			<path d="M 220.62235,253.59374 C 224.41013,257.98181 225.47648,264.97595 223.20105,270.14511 C 221.68629,272.62822 214.58301,274.61843 214.71874,270.95348" id="path2161nose" sodipodi:nodetypes="ccc" style="fill:none;fill-rule:evenodd;stroke:#000000;stroke-width:1.18747425;stroke-linecap:round;stroke-linejoin:round;stroke-miterlimit:4;stroke-dasharray:none;stroke-opacity:1"/>
			
    
			<path d="M 179.12835,253.59738 C 175.41971,258.13418 174.62364,265.09779 176.85154,270.44221 C 178.33464,273.00949 185.61126,274.38069 185.65262,270.71014" id="path2193nose" sodipodi:nodetypes="ccc" style="fill:none;fill-rule:evenodd;stroke:#000000;stroke-width:1.19475424;stroke-linecap:round;stroke-linejoin:round;stroke-miterlimit:4;stroke-dasharray:none;stroke-opacity:1"/>
			
  
		</g>
		

	</g>
	<g memaker:file="eye">
		
  
		<defs id="defs2755eye"/>
		
  
		<sodipodi:namedview bordercolor="#666666" borderopacity="1.0" gridtolerance="10000" guidetolerance="10" height="400px" id="baseeye" inkscape:current-layer="svg2753" inkscape:cx="202.87117" inkscape:cy="175.60855" inkscape:document-units="px" inkscape:pageopacity="0.0" inkscape:pageshadow="2" inkscape:window-height="946" inkscape:window-width="1272" inkscape:window-x="0" inkscape:window-y="25" inkscape:zoom="4" objecttolerance="10" pagecolor="#ffffff" showgrid="false" width="400px"/>
		
  
		<metadata id="metadata2758eye">
			
    
			<rdf:RDF>
				
      
				<cc:Work rdf:about="">
					
        
					<dc:format>
						image/svg+xml
					</dc:format>
					
        
					<dc:type rdf:resource="http://purl.org/dc/dcmitype/StillImage"/>
					
      
				</cc:Work>
				
    
			</rdf:RDF>
			
  
		</metadata>
		
  
		<path d="M 246.52452,205.21945 C 238.38716,204.63872 231.06482,204.84156 225.97026,207.021 C 218.33812,211.96891 222.10526,216.81993 218.60761,216.69018 C 218.07764,218.09321 219.71545,218.48956 221.3168,218.47344 C 230.23944,221.14752 239.29803,221.48509 250.91939,219.26961 C 253.71558,218.42434 257.967,217.30516 260.54456,215.99248 C 262.86474,214.81088 265.40831,215.4899 261.01051,211.20078 C 256.65823,206.95605 254.66188,205.80017 246.52452,205.21945 z " id="path4177eye" sodipodi:nodetypes="cccccszz" style="fill:#f1f1f1;fill-opacity:1;fill-rule:evenodd;stroke:#000000;stroke-width:0.91605157;stroke-linecap:round;stroke-linejoin:round;stroke-miterlimit:4;stroke-dasharray:none;stroke-dashoffset:0;stroke-opacity:1"/>
		
  
		<path d="M 157.12347,204.47762 A 8.955224,8.2767973 0 1 1 146.54046,196.3387" id="path4179eye" sodipodi:cx="148.16824" sodipodi:cy="204.47762" sodipodi:end="4.5296038" sodipodi:open="true" sodipodi:rx="8.955224" sodipodi:ry="8.2767973" sodipodi:start="0" sodipodi:type="arc" style="fill:#676c53;fill-opacity:1;fill-rule:evenodd;stroke:#000000;stroke-width:2;stroke-linecap:round;stroke-linejoin:round;stroke-miterlimit:4;stroke-dasharray:none;stroke-dashoffset:0;stroke-opacity:0.39181285" transform="matrix(-0.7566534,-0.6133438,-0.6250158,0.7536149,480.29607,147.58374)"/>
		
  
		<path d="M 167.97829 200.9498 A 2.1709633 2.0352781 0 1 1  163.63636,200.9498 A 2.1709633 2.0352781 0 1 1  167.97829 200.9498 z" id="path4181eye" sodipodi:cx="165.80733" sodipodi:cy="200.9498" sodipodi:rx="2.1709633" sodipodi:ry="2.0352781" sodipodi:type="arc" style="fill:#000000;fill-opacity:1;fill-rule:evenodd;stroke:none;stroke-width:2;stroke-linecap:round;stroke-linejoin:round;stroke-miterlimit:4;stroke-dasharray:none;stroke-dashoffset:0;stroke-opacity:1" transform="matrix(-1.9666302,-0.1490717,-0.1539709,2.0312628,597.51627,-172.50039)"/>
		
  
		<path d="M 167.97829 200.9498 A 2.1709633 2.0352781 0 1 1  163.63636,200.9498 A 2.1709633 2.0352781 0 1 1  167.97829 200.9498 z" id="path4183eye" sodipodi:cx="165.80733" sodipodi:cy="200.9498" sodipodi:rx="2.1709633" sodipodi:ry="2.0352781" sodipodi:type="arc" style="fill:#ffffff;fill-opacity:1;fill-rule:evenodd;stroke:none;stroke-width:2;stroke-linecap:round;stroke-linejoin:round;stroke-miterlimit:4;stroke-dasharray:none;stroke-dashoffset:0;stroke-opacity:1" transform="matrix(-0.8253964,-7.3530663e-2,-5.761404e-2,0.9047315,385.22429,38.881143)"/>
		
  
		<path d="M 249.50472,206.45739 C 239.86533,205.80616 230.12158,205.90829 225.41276,207.90215 C 219.08833,210.15066 221.67259,215.60997 217.85898,216.51959 C 217.88677,218.68236 219.42433,219.91472 222.12987,218.76787 C 230.45483,221.41459 242.25472,222.57002 252.19925,219.94787 C 257.37663,218.42295 263.74326,214.45816 260.97993,211.77457 C 257.88692,209.66449 255.17063,207.20537 249.50472,206.45739 z " id="path4185eye" sodipodi:nodetypes="ccccccc" style="fill:none;fill-opacity:1;fill-rule:evenodd;stroke:#000000;stroke-width:1.71794236;stroke-linecap:round;stroke-linejoin:round;stroke-miterlimit:4;stroke-dasharray:none;stroke-dashoffset:0;stroke-opacity:0.13450293"/>
		
  
		<path d="M 250.61091,206.32601 C 240.63349,205.75835 230.54641,205.86912 225.66749,207.67319 C 219.11553,209.70961 221.77909,214.61937 217.82924,215.44562 C 217.85336,217.3926 219.44242,218.49906 222.24569,217.46138 C 230.85812,219.82802 243.07103,220.84541 253.37136,218.46562 C 258.73433,217.08281 265.33366,213.50122 262.47878,211.09065 C 259.28138,209.19702 256.47473,206.98845 250.61091,206.32601 z " id="path4187eye" sodipodi:nodetypes="ccccccc" style="fill:none;fill-opacity:1;fill-rule:evenodd;stroke:#000000;stroke-width:1.65845644;stroke-linecap:round;stroke-linejoin:round;stroke-miterlimit:4;stroke-dasharray:none;stroke-dashoffset:0;stroke-opacity:0.13450293"/>
		
  
		<path d="M 265.55545,210.63736 C 261.1639,204.71908 253.27272,203.78484 246.47002,203.1458 C 238.51963,202.31917 229.77058,201.59121 222.58297,205.77359 C 220.74185,207.07089 219.37204,208.92021 218.25624,210.85099" id="path4189eye" style="fill:none;fill-rule:evenodd;stroke:#000000;stroke-width:1.02140999px;stroke-linecap:round;stroke-linejoin:round;stroke-opacity:1"/>
		
  
		<path d="M 152.54163,205.21945 C 160.67899,204.63872 168.00133,204.84156 173.09589,207.021 C 180.72803,211.96891 176.96089,216.81993 180.45854,216.69018 C 180.98851,218.09321 179.3507,218.48956 177.74935,218.47344 C 168.82671,221.14752 159.76812,221.48509 148.14676,219.26961 C 145.35057,218.42434 141.09915,217.30516 138.52159,215.99248 C 136.20141,214.81088 133.65784,215.4899 138.05564,211.20078 C 142.40792,206.95605 144.40427,205.80017 152.54163,205.21945 z " id="path3157eye" sodipodi:nodetypes="cccccszz" style="fill:#f1f1f1;fill-opacity:1;fill-rule:evenodd;stroke:#000000;stroke-width:0.91605157;stroke-linecap:round;stroke-linejoin:round;stroke-miterlimit:4;stroke-dasharray:none;stroke-dashoffset:0;stroke-opacity:1"/>
		
  
		<path d="M 157.12347,204.47762 A 8.955224,8.2767973 0 1 1 146.54046,196.3387" id="path2227eye" sodipodi:cx="148.16824" sodipodi:cy="204.47762" sodipodi:end="4.5296038" sodipodi:open="true" sodipodi:rx="8.955224" sodipodi:ry="8.2767973" sodipodi:start="0" sodipodi:type="arc" style="fill:#676c53;fill-opacity:1;fill-rule:evenodd;stroke:#000000;stroke-width:2;stroke-linecap:round;stroke-linejoin:round;stroke-miterlimit:4;stroke-dasharray:none;stroke-dashoffset:0;stroke-opacity:0.39181285" transform="matrix(-0.7566534,-0.6133438,-0.6250158,0.7536149,398.57411,147.58374)"/>
		
  
		<path d="M 167.97829 200.9498 A 2.1709633 2.0352781 0 1 1  163.63636,200.9498 A 2.1709633 2.0352781 0 1 1  167.97829 200.9498 z" id="path2229eye" sodipodi:cx="165.80733" sodipodi:cy="200.9498" sodipodi:rx="2.1709633" sodipodi:ry="2.0352781" sodipodi:type="arc" style="fill:#000000;fill-opacity:1;fill-rule:evenodd;stroke:none;stroke-width:2;stroke-linecap:round;stroke-linejoin:round;stroke-miterlimit:4;stroke-dasharray:none;stroke-dashoffset:0;stroke-opacity:1" transform="matrix(1.9666302,-0.1490717,0.1539709,2.0312628,-198.45012,-172.50039)"/>
		
  
		<path d="M 167.97829 200.9498 A 2.1709633 2.0352781 0 1 1  163.63636,200.9498 A 2.1709633 2.0352781 0 1 1  167.97829 200.9498 z" id="path2231eye" sodipodi:cx="165.80733" sodipodi:cy="200.9498" sodipodi:rx="2.1709633" sodipodi:ry="2.0352781" sodipodi:type="arc" style="fill:#ffffff;fill-opacity:1;fill-rule:evenodd;stroke:none;stroke-width:2;stroke-linecap:round;stroke-linejoin:round;stroke-miterlimit:4;stroke-dasharray:none;stroke-dashoffset:0;stroke-opacity:1" transform="matrix(0.8253964,-7.3530663e-2,5.761404e-2,0.9047315,6.5151528,39.250097)"/>
		
  
		<path d="M 149.56143,206.45739 C 159.20082,205.80616 168.94457,205.90829 173.65339,207.90215 C 179.97782,210.15066 177.39356,215.60997 181.20717,216.51959 C 181.17938,218.68236 179.64182,219.91472 176.93628,218.76787 C 168.61132,221.41459 156.81143,222.57002 146.8669,219.94787 C 141.68952,218.42295 135.32289,214.45816 138.08622,211.77457 C 141.17923,209.66449 143.89552,207.20537 149.56143,206.45739 z " id="path2181eye" sodipodi:nodetypes="ccccccc" style="fill:none;fill-opacity:1;fill-rule:evenodd;stroke:#000000;stroke-width:1.71794236;stroke-linecap:round;stroke-linejoin:round;stroke-miterlimit:4;stroke-dasharray:none;stroke-dashoffset:0;stroke-opacity:0.13450293"/>
		
  
		<path d="M 148.45743,206.3346 C 158.43269,205.76007 168.51758,205.87218 173.39544,207.69807 C 179.94599,209.75914 177.283,214.7283 181.232,215.56454 C 181.20788,217.53508 179.61917,218.65493 176.8165,217.60469 C 168.20594,219.99996 155.99567,221.02966 145.69758,218.62108 C 140.33577,217.22154 133.73787,213.59661 136.59213,211.15688 C 139.78884,209.24035 142.59488,207.00506 148.45743,206.3346 z " id="path3155eye" sodipodi:nodetypes="ccccccc" style="fill:none;fill-opacity:1;fill-rule:evenodd;stroke:#000000;stroke-width:1.66827786;stroke-linecap:round;stroke-linejoin:round;stroke-miterlimit:4;stroke-dasharray:none;stroke-dashoffset:0;stroke-opacity:0.13450293"/>
		
  
		<path d="M 133.51071,210.63736 C 138.13861,204.5028 146.3849,203.6824 153.4679,203.07005 C 160.86674,202.38178 168.91947,201.6889 175.6974,205.34429 C 177.86641,206.66332 179.63915,208.60251 180.80991,210.85099" id="path3164eye" style="fill:none;fill-rule:evenodd;stroke:#000000;stroke-width:1.02140999px;stroke-linecap:round;stroke-linejoin:round;stroke-opacity:1"/>
		

	</g>
	<g memaker:file="eyebrow">
		
  
		<defs id="defs2755eyebrow"/>
		
  
		<sodipodi:namedview bordercolor="#666666" borderopacity="1.0" gridtolerance="10000" guidetolerance="10" height="400px" id="baseeyebrow" inkscape:current-layer="svg2753" inkscape:cx="188.83134" inkscape:cy="204.41672" inkscape:document-units="px" inkscape:pageopacity="0.0" inkscape:pageshadow="2" inkscape:window-height="732" inkscape:window-width="1090" inkscape:window-x="91" inkscape:window-y="146" inkscape:zoom="4.98" objecttolerance="10" pagecolor="#ffffff" width="400px"/>
		
  
		<metadata id="metadata2758eyebrow">
			
    
			<rdf:RDF>
				
      
				<cc:Work rdf:about="">
					
        
					<dc:format>
						image/svg+xml
					</dc:format>
					
        
					<dc:type rdf:resource="http://purl.org/dc/dcmitype/StillImage"/>
					
      
				</cc:Work>
				
    
			</rdf:RDF>
			
  
		</metadata>
		
  
		<g id="g2171eyebrow" transform="translate(0,2)">
			
    
			<path d="M 153.55624,179.31291 C 167.00736,180.58998 184.83935,185.56003 185.76741,189.54092 C 173.93949,192.82017 155.78936,182.15672 145.74624,183.10771 C 135.6823,184.06068 132.43641,186.96113 124.29746,190.64017 C 129.56591,186.13483 140.08476,178.0339 153.55624,179.31291 z " id="path3488eyebrow" sodipodi:nodetypes="cczcz" style="fill:#1a1a1a;fill-opacity:1;fill-rule:evenodd;stroke:none;stroke-width:2;stroke-linecap:round;stroke-linejoin:round;stroke-miterlimit:4;stroke-dasharray:none;stroke-dashoffset:0;stroke-opacity:1"/>
			
    
			<path d="M 248.50863,179.31291 C 235.05751,180.58998 217.22552,185.56003 216.29746,189.54092 C 228.12538,192.82017 246.27551,182.15672 256.31863,183.10771 C 266.38257,184.06068 269.62846,186.96113 277.76741,190.64017 C 272.49896,186.13483 261.98011,178.0339 248.50863,179.31291 z " id="path2169eyebrow" sodipodi:nodetypes="cczcz" style="fill:#1a1a1a;fill-opacity:1;fill-rule:evenodd;stroke:none;stroke-width:2;stroke-linecap:round;stroke-linejoin:round;stroke-miterlimit:4;stroke-dasharray:none;stroke-dashoffset:0;stroke-opacity:1"/>
			
  
		</g>
		

	</g>
	<g memaker:file="hair">
		
  
		<defs id="defs2755hair"/>
		
  
		<sodipodi:namedview bordercolor="#666666" borderopacity="1.0" gridtolerance="10000" guidetolerance="10" height="400px" id="basehair" inkscape:current-layer="svg2753" inkscape:cx="192.42697" inkscape:cy="271.91185" inkscape:document-units="px" inkscape:pageopacity="0.0" inkscape:pageshadow="2" inkscape:window-height="732" inkscape:window-width="1090" inkscape:window-x="91" inkscape:window-y="146" inkscape:zoom="2.8284271" objecttolerance="10" pagecolor="#ffffff" width="400px"/>
		
  
		<metadata id="metadata2758hair">
			
    
			<rdf:RDF>
				
      
				<cc:Work rdf:about="">
					
        
					<dc:format>
						image/svg+xml
					</dc:format>
					
        
					<dc:type rdf:resource="http://purl.org/dc/dcmitype/StillImage"/>
					
      
				</cc:Work>
				
    
			</rdf:RDF>
			
  
		</metadata>
		
  
		<path d="M 99.030341,191.63506 C 96.431677,190.04288 93.054177,184.4942 93.736695,181.7488 C 94.419213,179.0034 89.955519,176.07106 89.955519,173.3835 C 89.955519,170.69594 91.437224,169.51922 89.199282,165.01819 C 86.961339,160.51717 87.69193,158.17 90.711754,155.89242 C 93.731578,153.61484 88.443047,150.33122 88.443047,146.76662 C 88.443047,143.20202 94.462993,145.8857 92.980461,139.92228 C 91.497929,133.95886 94.584533,133.83843 96.761641,133.83843 C 98.938749,133.83843 98.633291,126.63289 100.54282,124.71265 C 102.45235,122.79241 98.306178,119.35701 101.29906,116.34733 C 104.29194,113.33765 104.32399,110.81715 104.32399,105.7006 C 104.32399,100.58405 109.13478,103.08001 110.37389,98.095771 C 111.613,93.111534 115.89016,91.385759 119.44871,93.532879 C 123.00726,95.679999 122.26347,88.294052 126.25483,86.688541 C 130.24619,85.08303 131.59107,89.687629 135.32965,85.928059 C 139.06822,82.168489 141.88223,78.930749 145.91694,81.365167 C 149.95165,83.799585 148.55669,77.469476 154.23554,76.041793 C 159.91438,74.614109 163.82811,84.126303 166.33532,79.083721 C 168.84253,74.041138 171.09337,73.25968 176.16637,72.239383 C 181.23937,71.219086 180.87941,79.490998 183.72873,73.760347 C 186.57806,68.029697 190.38794,67.982871 194.31602,69.957937 C 198.2441,71.933003 196.83511,66.916008 202.63461,66.916008 C 208.43411,66.916008 207.89761,67.661082 212.46567,69.957937 C 217.03373,72.254793 221.32426,67.386574 226.07791,73.760347 C 230.83156,80.13412 236.26075,70.718419 240.4464,70.718419 C 244.63206,70.718419 243.50089,76.921164 244.22757,79.844203 C 244.95425,82.767242 246.92496,76.124137 253.30239,74.520829 C 259.67982,72.917521 261.8747,81.105127 260.86475,85.167578 C 259.8548,89.230029 269.3737,80.604686 272.96453,80.604686 C 276.55536,80.604686 277.20957,84.812748 278.25818,87.449023 C 279.30679,90.085298 284.17043,85.029185 286.57676,87.449023 C 288.98309,89.868861 287.32529,95.10035 286.57676,99.616737 C 285.82823,104.13312 298.23723,98.610165 300.189,106.46107 C 302.14077,114.31197 295.93068,113.66575 305.48264,115.58686 C 315.0346,117.50797 304.76778,129.23394 303.21394,130.7965 C 301.6601,132.35907 310.77629,119.281 310.77629,135.35939 C 310.77629,151.43777 303.69088,151.11703 308.10491,156.21265 C 312.34668,161.10941 307.3162,173.06063 306.23889,174.14398 C 305.16159,175.22733 310.77629,173.56385 310.77629,177.94638 C 310.77629,182.32891 311.67792,183.5477 307.9084,187.47909 C 303.97367,191.58278 307.36087,193.20583 306.23889,197.71891 C 305.11691,202.23199 297.52488,197.78453 294.89535,196.19796 C 292.26583,194.61139 298.34915,191.09022 293.38287,188.59313 C 288.41659,186.09605 291.8094,181.76413 294.89535,180.98831 C 297.9813,180.21249 287.46997,176.63493 288.84547,171.10205 C 290.22097,165.56916 275.39719,164.49895 272.2083,155.89242 C 270.02627,149.41851 272.63958,145.83298 266.61022,143.82459 C 258.4929,135.66169 269.31149,136.21978 263.58527,136.21978 C 257.85905,136.21978 259.22146,127.81083 252.99797,129.37544 C 246.77448,130.94005 246.28472,125.75983 245.43561,124.05207 C 244.58651,122.34431 236.99628,125.08735 235.60455,119.48918 C 234.21282,113.89101 231.33742,120.18171 228.04221,121.01014 C 224.747,121.83857 223.53176,117.85969 224.26102,114.92627 C 224.99027,111.99285 220.73868,121.01014 215.1862,121.01014 C 209.63372,121.01014 215.12877,114.58935 207.62384,120.24965 C 200.11891,125.90995 199.76023,121.31926 198.54902,116.44726 C 197.33781,111.57526 194.34957,124.52935 188.00069,122.93322 C 181.65181,121.33709 181.6619,121.66164 178.19563,125.18841 C 174.53532,128.9126 170.50779,124.93425 172.08077,121.77062 C 173.65375,118.60699 168.34697,127.62107 159.98101,129.37544 C 151.69292,131.11348 152.4752,122.35226 153.88199,127.04062 C 155.2562,131.62042 142.66302,143.4858 140.7707,135.7061 C 136.58592,136.16226 137.00756,133.34446 135.10099,143.04296 C 135.64509,149.50796 135.22614,148.19435 130.52457,151.73163 C 128.35361,152.82321 127.12072,150.01766 125.4986,158.17385 C 123.87648,166.33004 121.77573,159.92944 123.22988,165.77867 C 124.68402,171.6279 115.66753,173.67464 115.66753,177.18589 C 115.66753,180.69714 114.48443,185.98046 111.88635,188.59313 C 109.28826,191.2058 111.85786,192.79727 107.34893,196.19796 C 102.84,199.59865 101.62901,193.22724 99.030341,191.63506 z " id="path2157hair" sodipodi:nodetypes="czzzzzzzzzzzzzzzzzzzzzzzzzzzzzzzzzzzzzzzzzzzzcczzzzzzzzzzzzzzccczzzzzz" style="fill:#552200;fill-rule:evenodd;stroke:#000000;stroke-width:0.98586261px;stroke-linecap:butt;stroke-linejoin:miter;stroke-opacity:1"/>
		

	</g>
</svg>
