<?xml version="1.0" ?>
<svg height="400" width="400" xmlns="http://www.w3.org/2000/svg" xmlns:cc="http://web.resource.org/cc/" xmlns:dc="http://purl.org/dc/elements/1.1/" xmlns:inkscape="http://www.inkscape.org/namespaces/inkscape" xmlns:memaker="http://launchpad.net/memaker" xmlns:rdf="http://www.w3.org/1999/02/22-rdf-syntax-ns#" xmlns:sodipodi="http://sodipodi.sourceforge.net/DTD/sodipodi-0.dtd" xmlns:xlink="http://www.w3.org/1999/xlink">
	
        
	<g memaker:file="ear">
		
  
		<defs id="defs4ear">
			
    
			<linearGradient id="linearGradient2642ear">
				
      
				<stop id="stop2644ear" offset="0" style="stop-color:#f0dad4;stop-opacity:1;"/>
				
      
				<stop id="stop2646ear" offset="1" style="stop-color:#e4b8ad;stop-opacity:1;"/>
				
    
			</linearGradient>
			
    
			<linearGradient gradientTransform="matrix(0.3351016,0,0,0.3351016,62.807614,530.96949)" gradientUnits="userSpaceOnUse" id="linearGradient5298ear" inkscape:collect="always" x1="65.700233" x2="95.596695" xlink:href="#linearGradient2642ear" y1="596.83783" y2="596.83783"/>
			
    
			<linearGradient gradientTransform="matrix(-0.3351016,0,0,0.3351016,190.28559,531.32316)" gradientUnits="userSpaceOnUse" id="linearGradient3141ear" inkscape:collect="always" x1="116.54586" x2="68.52475" xlink:href="#linearGradient2642ear" y1="135.09236" y2="161.4776"/>
			
  
		</defs>
		
  
		<sodipodi:namedview bordercolor="#666666" borderlayer="false" borderopacity="1.0" gridtolerance="10000" guidetolerance="10" height="400px" id="baseear" inkscape:current-layer="g5422" inkscape:cx="180.73594" inkscape:cy="164.98482" inkscape:document-units="px" inkscape:pageopacity="0.0" inkscape:pageshadow="2" inkscape:window-height="692" inkscape:window-width="1016" inkscape:window-x="0" inkscape:window-y="0" inkscape:zoom="1.895" objecttolerance="10" pagecolor="#ffffff" width="400px"/>
		
  
		<metadata id="metadata7ear">
			
    
			<rdf:RDF>
				
      
				<cc:Work rdf:about="">
					
        
					<dc:format>
						image/svg+xml
					</dc:format>
					
        
					<dc:type rdf:resource="http://purl.org/dc/dcmitype/StillImage"/>
					
      
				</cc:Work>
				
    
			</rdf:RDF>
			
  
		</metadata>
		
  
		<g id="layer1ear" inkscape:groupmode="layer" inkscape:label="Layer 1">
			
    
			<g id="g5422ear" transform="matrix(2.9841692,0,0,2.9841692,-179.53074,-1584.5028)">
				
      
				<path d="M 89.854398,582.33281 C 60.895906,568.36857 60.519323,619.99011 94.340568,611.34336 L 89.854398,582.33281 z " id="path3810ear" sodipodi:nodetypes="ccc" style="fill:url(#linearGradient5298ear);fill-opacity:1;fill-rule:evenodd;stroke:#000000;stroke-width:0.67020321;stroke-linecap:butt;stroke-linejoin:miter;stroke-miterlimit:4;stroke-dasharray:none;stroke-opacity:1"/>
				
      
				<path d="M 74.003273,590.40791 L 79.087597,602.37103" id="path3814ear" style="fill:none;fill-opacity:0.75;fill-rule:evenodd;stroke:#000000;stroke-width:0.67020321;stroke-linecap:butt;stroke-linejoin:miter;stroke-miterlimit:4;stroke-dasharray:none;stroke-opacity:1"/>
				
      
				<path d="M 74.900507,601.17471 L 79.087597,591.60422" id="path3816ear" style="fill:none;fill-opacity:0.75;fill-rule:evenodd;stroke:#000000;stroke-width:0.67020321;stroke-linecap:butt;stroke-linejoin:miter;stroke-miterlimit:4;stroke-dasharray:none;stroke-opacity:1"/>
				
      
				<path d="M 163.23881,582.68648 C 192.1973,568.72224 192.57388,620.34378 158.75264,611.69703 L 163.23881,582.68648 z " id="path3139ear" sodipodi:nodetypes="ccc" style="fill:url(#linearGradient3141ear);fill-opacity:1.0;fill-rule:evenodd;stroke:#000000;stroke-width:0.67020321;stroke-linecap:butt;stroke-linejoin:miter;stroke-miterlimit:4;stroke-dasharray:none;stroke-opacity:1"/>
				
      
				<path d="M 179.11059,590.40791 L 174.02626,602.37103" id="path3824ear" style="fill:none;fill-opacity:0.75;fill-rule:evenodd;stroke:#000000;stroke-width:0.67020321;stroke-linecap:butt;stroke-linejoin:miter;stroke-miterlimit:4;stroke-dasharray:none;stroke-opacity:1"/>
				
      
				<path d="M 178.21335,601.17471 L 174.02626,591.60422" id="path3826ear" style="fill:none;fill-opacity:0.75;fill-rule:evenodd;stroke:#000000;stroke-width:0.67020321;stroke-linecap:butt;stroke-linejoin:miter;stroke-miterlimit:4;stroke-dasharray:none;stroke-opacity:1"/>
				
    
			</g>
			
  
		</g>
		

	</g>
	<g memaker:file="head">
		
  
		<defs id="defs4head">
			
    
			<linearGradient gradientTransform="matrix(0.4187091,0,0,0.4187091,60.169061,271.02035)" gradientUnits="userSpaceOnUse" id="linearGradient4671head" inkscape:collect="always" x1="225.89772" x2="351.57788" xlink:href="#linearGradient2642head" y1="255.1237" y2="393.51462"/>
			
    
			<linearGradient id="linearGradient2642head">
				
      
				<stop id="stop2644head" offset="0" style="stop-color:#f0dad4;stop-opacity:1;"/>
				
      
				<stop id="stop2646head" offset="1" style="stop-color:#e4b8ad;stop-opacity:1;"/>
				
    
			</linearGradient>
			
  
		</defs>
		
  
		<sodipodi:namedview bordercolor="#666666" borderlayer="false" borderopacity="1.0" gridtolerance="10000" guidetolerance="10" height="400px" id="basehead" inkscape:current-layer="layer1" inkscape:cx="200" inkscape:cy="155.12398" inkscape:document-units="px" inkscape:pageopacity="0.0" inkscape:pageshadow="2" inkscape:window-height="627" inkscape:window-width="910" inkscape:window-x="182" inkscape:window-y="169" inkscape:zoom="0.9475" objecttolerance="10" pagecolor="#ffffff" width="400px"/>
		
  
		<metadata id="metadata7head">
			
    
			<rdf:RDF>
				
      
				<cc:Work rdf:about="">
					
        
					<dc:format>
						image/svg+xml
					</dc:format>
					
        
					<dc:type rdf:resource="http://purl.org/dc/dcmitype/StillImage"/>
					
      
				</cc:Work>
				
    
			</rdf:RDF>
			
  
		</metadata>
		
  
		<g id="layer1head" inkscape:groupmode="layer" inkscape:label="Layer 1">
			
    
			<path d="M 199.56048,65.114125 C 71.975789,66.732698 69.351305,119.18483 66.7838,203.83688 C 66.7838,218.08805 62.439332,265.50016 96.408085,309.35554 C 123.96166,344.92859 161.89852,345.94555 196.79924,346.76243 C 256.22785,343.22269 284.80598,334.93583 305.77919,308.81099 C 321.42681,289.31987 330.72167,250.53928 331.56631,207.78388 C 333.01931,136.10892 339.40079,65.114125 205.72717,65.114125 C 203.63851,65.114125 201.58561,65.088434 199.56048,65.114125 z " id="path4669head" sodipodi:nodetypes="ccscsssc" style="fill:url(#linearGradient4671head);fill-opacity:1;fill-rule:evenodd;stroke:#000000;stroke-width:1.99999988;stroke-linecap:butt;stroke-linejoin:miter;stroke-miterlimit:4;stroke-dasharray:none;stroke-opacity:1;display:inline"/>
			
  
		</g>
		

	</g>
	<g memaker:file="mouth">
		
  
		<defs id="defs4mouth"/>
		
  
		<sodipodi:namedview bordercolor="#666666" borderlayer="false" borderopacity="1.0" gridtolerance="10000" guidetolerance="10" height="400px" id="basemouth" inkscape:current-layer="layer1" inkscape:cx="249.98504" inkscape:cy="215.03765" inkscape:document-units="px" inkscape:guide-bbox="true" inkscape:pageopacity="0.0" inkscape:pageshadow="2" inkscape:window-height="581" inkscape:window-width="842" inkscape:window-x="173" inkscape:window-y="110" inkscape:zoom="1.3399673" objecttolerance="10" pagecolor="#ffffff" showguides="true" width="400px">
			
    
			<sodipodi:guide id="guide12103mouth" orientation="vertical" position="215.0239"/>
			
    
			<sodipodi:guide id="guide12105mouth" orientation="vertical" position="185.26571"/>
			
  
		</sodipodi:namedview>
		
  
		<metadata id="metadata7mouth">
			
    
			<rdf:RDF>
				
      
				<cc:Work rdf:about="">
					
        
					<dc:format>
						image/svg+xml
					</dc:format>
					
        
					<dc:type rdf:resource="http://purl.org/dc/dcmitype/StillImage"/>
					
      
				</cc:Work>
				
    
			</rdf:RDF>
			
  
		</metadata>
		
  
		<g id="layer1mouth" inkscape:groupmode="layer" inkscape:label="Layer 1">
			
    
			<g id="g12179mouth" inkscape:label="Layer 1" transform="matrix(0.851845,0,0,0.851845,-192.06048,-117.95248)">
				
      
				<path d="M 410.16338,472.69991 C 442.34577,454.90767 477.276,459.87424 509.45839,471.3329 M 408.72734,457.64894 C 406.79212,467.28975 409.7815,474.96072 416.68087,481.06769 M 514.11175,455.21869 C 513.28418,466.56771 509.11858,475.09224 500.63492,479.96303" id="path10032mouth" style="fill:none;fill-rule:evenodd;stroke:#000000;stroke-width:4.37422466;stroke-linecap:round;stroke-linejoin:round;stroke-miterlimit:4;stroke-dasharray:none;stroke-opacity:1"/>
				
    
			</g>
			
  
		</g>
		

	</g>
	<g memaker:file="nose">
		
  
		<metadata id="metadata7515nose">
			
    
			<rdf:RDF>
				
      
				<cc:Work rdf:about="">
					
        
					<dc:format>
						image/svg+xml
					</dc:format>
					
        
					<dc:type rdf:resource="http://purl.org/dc/dcmitype/StillImage"/>
					
      
				</cc:Work>
				
    
			</rdf:RDF>
			
  
		</metadata>
		
  
		<sodipodi:namedview bordercolor="#666666" borderopacity="1.0" gridtolerance="10.0" guidetolerance="10.0" id="basenose" inkscape:current-layer="svg2" inkscape:cx="200" inkscape:cy="200" inkscape:pageopacity="0.0" inkscape:pageshadow="2" inkscape:window-height="588" inkscape:window-width="818" inkscape:window-x="0" inkscape:window-y="0" inkscape:zoom="0.9475" objecttolerance="10.0" pagecolor="#ffffff"/>
		
  
		<defs id="defs4nose"/>
		
  
		<g id="layer1nose" style="stroke:#000000;stroke-width:1.7795614;stroke-miterlimit:4;stroke-dasharray:none;stroke-opacity:1" transform="matrix(1.6858086,0,0,1.6858086,-137.86812,-171.64973)">
			
    
			<path d="M 203.45509,203.10368 C 196.80053,207.78034 194.77968,216.08201 190.83986,222.75892 C 186.9422,229.34992 182.26183,235.9531 181.48112,243.79347 C 181.71291,248.05089 187.19842,250.75727 190.77892,248.53601 C 198.05443,246.64373 205.32415,244.70891 212.68944,243.19066 C 216.4856,241.27447 216.93439,235.45767 213.91777,232.64914 C 212.14443,229.21347 205.3633,228.65974 204.51125,233.12749" id="path3164nose" style="fill:none;fill-rule:evenodd;stroke:#000000;stroke-width:1.7795614;stroke-linecap:butt;stroke-linejoin:miter;stroke-miterlimit:4;stroke-dasharray:none;stroke-opacity:1"/>
			
  
		</g>
		

	</g>
	<g memaker:file="eye">
		
  
		<defs id="defs4eye">
			
    
			<linearGradient id="linearGradient7716eye">
				
      
				<stop id="stop7718eye" offset="0" style="stop-color:#eeeeec;stop-opacity:0.73333335;"/>
				
      
				<stop id="stop7720eye" offset="1" style="stop-color:#d3d7cf;stop-opacity:1;"/>
				
    
			</linearGradient>
			
    
			<linearGradient id="linearGradient5700eye">
				
      
				<stop id="stop5702eye" offset="0" style="stop-color:#3465a4;stop-opacity:1;"/>
				
      
				<stop id="stop5704eye" offset="1" style="stop-color:#729fcf;stop-opacity:1;"/>
				
    
			</linearGradient>
			
    
			<linearGradient id="linearGradient3493eye">
				
      
				<stop id="stop3495eye" offset="0" style="stop-color:#a0a0a0;stop-opacity:1;"/>
				
      
				<stop id="stop3497eye" offset="1" style="stop-color:#070707;stop-opacity:1;"/>
				
    
			</linearGradient>
			
    
			<linearGradient gradientTransform="matrix(1.12459,-1.1875886e-2,-9.5462596e-3,0.9997757,-16.658671,1.8020936)" gradientUnits="userSpaceOnUse" id="linearGradient11801eye" inkscape:collect="always" x1="138.31738" x2="160.39716" xlink:href="#linearGradient5700eye" y1="169.25253" y2="212.12859"/>
			
    
			<linearGradient gradientTransform="matrix(0.802298,-1.5209965e-2,-1.9340364e-2,1.0162576,32.817021,-0.8121599)" gradientUnits="userSpaceOnUse" id="linearGradient11803eye" inkscape:collect="always" x1="167.83083" x2="128.02531" xlink:href="#linearGradient3493eye" y1="214.56694" y2="156.54213"/>
			
    
			<linearGradient gradientUnits="userSpaceOnUse" id="linearGradient11805eye" inkscape:collect="always" x1="134.02734" x2="144.66696" xlink:href="#linearGradient7716eye" y1="167.51656" y2="205.31099"/>
			
    
			<linearGradient gradientUnits="userSpaceOnUse" id="linearGradient11807eye" inkscape:collect="always" x1="134.02734" x2="144.66696" xlink:href="#linearGradient7716eye" y1="167.51656" y2="205.31099"/>
			
    
			<linearGradient gradientTransform="matrix(1.12459,-1.1875886e-2,-9.5462596e-3,0.9997757,-16.658671,1.8020936)" gradientUnits="userSpaceOnUse" id="linearGradient12944eye" inkscape:collect="always" x1="138.31738" x2="160.39716" xlink:href="#linearGradient5700eye" y1="169.25253" y2="212.12859"/>
			
    
			<linearGradient gradientTransform="matrix(0.802298,-1.5209965e-2,-1.9340364e-2,1.0162576,32.817021,-0.8121599)" gradientUnits="userSpaceOnUse" id="linearGradient12946eye" inkscape:collect="always" x1="167.83083" x2="128.02531" xlink:href="#linearGradient3493eye" y1="214.56694" y2="156.54213"/>
			
    
			<linearGradient gradientUnits="userSpaceOnUse" id="linearGradient12948eye" inkscape:collect="always" x1="134.02734" x2="144.66696" xlink:href="#linearGradient7716eye" y1="167.51656" y2="205.31099"/>
			
    
			<linearGradient gradientUnits="userSpaceOnUse" id="linearGradient12950eye" inkscape:collect="always" x1="134.02734" x2="144.66696" xlink:href="#linearGradient7716eye" y1="167.51656" y2="205.31099"/>
			
  
		</defs>
		
  
		<sodipodi:namedview bordercolor="#666666" borderlayer="false" borderopacity="1.0" gridtolerance="10000" guidetolerance="10" height="400px" id="baseeye" inkscape:current-layer="g8695" inkscape:cx="260.42888" inkscape:cy="187.61817" inkscape:document-units="px" inkscape:guide-bbox="true" inkscape:pageopacity="0.0" inkscape:pageshadow="2" inkscape:window-height="627" inkscape:window-width="910" inkscape:window-x="173" inkscape:window-y="101" inkscape:zoom="1.1132022" objecttolerance="10" pagecolor="#ffffff" showguides="true" width="400px">
			
    
			<sodipodi:guide id="guide11837eye" orientation="vertical" position="188.9722"/>
			
    
			<sodipodi:guide id="guide11839eye" orientation="vertical" position="200.08821"/>
			
    
			<sodipodi:guide id="guide11841eye" orientation="vertical" position="210.88663"/>
			
  
		</sodipodi:namedview>
		
  
		<metadata id="metadata7eye">
			
    
			<rdf:RDF>
				
      
				<cc:Work rdf:about="">
					
        
					<dc:format>
						image/svg+xml
					</dc:format>
					
        
					<dc:type rdf:resource="http://purl.org/dc/dcmitype/StillImage"/>
					
      
				</cc:Work>
				
    
			</rdf:RDF>
			
  
		</metadata>
		
  
		<g id="layer1eye" inkscape:groupmode="layer" inkscape:label="Layer 1">
			
    
			<g id="g8695eye" transform="matrix(1.0789597,7.481812e-2,-8.193089e-2,0.7920115,0.5957823,33.856309)">
				
      
				<g id="g11720eye" transform="matrix(1.0511769,4.2271425e-2,3.397927e-2,1.495445,-14.79688,-117.4546)">
					
        
					<path d="M 116.55565,178.11757 C 134.68563,170.19344 153.5285,171.30642 175.17034,178.79131 C 178.21211,191.97837 177.2136,204.15535 170.67879,214.94826 C 149.48155,215.70896 130.49222,214.26175 114.0853,210.23214 C 108.74107,198.07606 111.82964,187.90418 116.55565,178.11757 z " id="path9772eye" sodipodi:nodetypes="ccccc" style="fill:#ffffff;fill-opacity:1;fill-rule:evenodd;stroke:none;stroke-width:1px;stroke-linecap:butt;stroke-linejoin:miter;stroke-opacity:1" transform="matrix(0.9202177,-8.692924e-2,9.5193384e-2,1.2536154,-3.771146,-42.390999)"/>
					
        
					<path d="M 126.42922,212.80334 C 123.96207,205.12587 117.25174,158.7089 149.62219,163.36629 C 177.79362,155.43083 173.87446,196.65161 169.9979,212.97824 L 126.42922,212.80334 z " id="path4773eye" sodipodi:nodetypes="cccc" style="fill:url(#linearGradient11801eye);fill-opacity:1;fill-rule:evenodd;stroke:#000000;stroke-width:1.06029451px;stroke-linecap:butt;stroke-linejoin:miter;stroke-opacity:1"/>
					
        
					<path d="M 139.28092,213.44649 C 132.79012,202.70408 132.99768,164.15121 148.56607,162.87016 C 168.33134,164.23778 161.76356,201.4865 158.64761,212.7877 L 139.28092,213.44649 z " id="path5754eye" sodipodi:nodetypes="cccc" style="fill:url(#linearGradient11803eye);fill-opacity:1;fill-rule:evenodd;stroke:#000000;stroke-width:0.90279967px;stroke-linecap:butt;stroke-linejoin:miter;stroke-opacity:1"/>
					
        
					<path d="M 111.86932,209.30642 C 137.66225,215.89876 160.02938,215.08469 181.07417,211.41173" id="path2827eye" sodipodi:nodetypes="cc" style="fill:none;fill-rule:evenodd;stroke:#000000;stroke-width:2.15027959;stroke-linecap:round;stroke-linejoin:miter;stroke-miterlimit:4;stroke-dasharray:none;stroke-opacity:1"/>
					
        
					<path d="M 114.09079,174.65846 C 136.10807,157.97511 159.30825,159.64365 183.06722,168.65883" id="path2829eye" sodipodi:nodetypes="cc" style="fill:none;fill-rule:evenodd;stroke:#000000;stroke-width:2.15027959;stroke-linecap:round;stroke-linejoin:miter;stroke-miterlimit:4;stroke-dasharray:none;stroke-opacity:1"/>
					
        
					<path d="M 121.31668,210.92418 C 114.84533,196.32361 116.74555,182.84172 121.31668,169.71672" id="path3800eye" sodipodi:nodetypes="cc" style="fill:none;fill-rule:evenodd;stroke:#000000;stroke-width:1.94051731;stroke-linecap:round;stroke-linejoin:miter;stroke-miterlimit:4;stroke-dasharray:none;stroke-opacity:1"/>
					
        
					<path d="M 173.21449,212.73821 C 179.63207,197.49165 178.06553,178.90664 173.53238,165.20094" id="path3802eye" sodipodi:nodetypes="cc" style="fill:none;fill-rule:evenodd;stroke:#000000;stroke-width:1.97472537;stroke-linecap:round;stroke-linejoin:miter;stroke-miterlimit:4;stroke-dasharray:none;stroke-opacity:1"/>
					
        
					<path d="M 148.95456 181.49097 A 7.4636078 13.974415 0 1 1  134.02734,181.49097 A 7.4636078 13.974415 0 1 1  148.95456 181.49097 z" id="path7706eye" sodipodi:cx="141.49095" sodipodi:cy="181.49097" sodipodi:rx="7.4636078" sodipodi:ry="13.974415" sodipodi:type="arc" style="opacity:1;fill:url(#linearGradient11805eye);fill-opacity:1;stroke:none;stroke-width:0.2;stroke-linecap:round;stroke-linejoin:round;stroke-miterlimit:4;stroke-dasharray:none;stroke-opacity:1" transform="matrix(0.6729248,0.2654917,-0.2752524,0.6976648,90.358391,12.542442)"/>
					
        
					<path d="M 148.95456 181.49097 A 7.4636078 13.974415 0 1 1  134.02734,181.49097 A 7.4636078 13.974415 0 1 1  148.95456 181.49097 z" id="path8691eye" sodipodi:cx="141.49095" sodipodi:cy="181.49097" sodipodi:rx="7.4636078" sodipodi:ry="13.974415" sodipodi:type="arc" style="opacity:1;fill:url(#linearGradient11807eye);fill-opacity:1;stroke:none;stroke-width:0.2;stroke-linecap:round;stroke-linejoin:round;stroke-miterlimit:4;stroke-dasharray:none;stroke-opacity:1" transform="matrix(0.3507472,0.1383817,-0.1434692,0.3636423,116.97895,99.243818)"/>
					
      
				</g>
				
      
				<g id="g12924eye" transform="matrix(-1.0298295,0.2388557,0.1920007,1.4805174,363.44618,-153.18567)">
					
        
					<path d="M 116.55565,178.11757 C 134.68563,170.19344 153.5285,171.30642 175.17034,178.79131 C 178.21211,191.97837 177.2136,204.15535 170.67879,214.94826 C 149.48155,215.70896 130.49222,214.26175 114.0853,210.23214 C 108.74107,198.07606 111.82964,187.90418 116.55565,178.11757 z " id="path12926eye" sodipodi:nodetypes="ccccc" style="fill:#ffffff;fill-opacity:1;fill-rule:evenodd;stroke:none;stroke-width:1px;stroke-linecap:butt;stroke-linejoin:miter;stroke-opacity:1" transform="matrix(0.9202177,-8.692924e-2,9.5193384e-2,1.2536154,-3.771146,-42.390999)"/>
					
        
					<path d="M 126.42922,212.80334 C 123.96207,205.12587 117.25174,158.7089 149.62219,163.36629 C 177.79362,155.43083 173.87446,196.65161 169.9979,212.97824 L 126.42922,212.80334 z " id="path12928eye" sodipodi:nodetypes="cccc" style="fill:url(#linearGradient12944eye);fill-opacity:1;fill-rule:evenodd;stroke:#000000;stroke-width:1.06029451px;stroke-linecap:butt;stroke-linejoin:miter;stroke-opacity:1"/>
					
        
					<path d="M 139.28092,213.44649 C 132.79012,202.70408 132.99768,164.15121 148.56607,162.87016 C 168.33134,164.23778 161.76356,201.4865 158.64761,212.7877 L 139.28092,213.44649 z " id="path12930eye" sodipodi:nodetypes="cccc" style="fill:url(#linearGradient12946eye);fill-opacity:1;fill-rule:evenodd;stroke:#000000;stroke-width:0.90279967px;stroke-linecap:butt;stroke-linejoin:miter;stroke-opacity:1"/>
					
        
					<path d="M 111.86932,209.30642 C 137.66225,215.89876 160.02938,215.08469 181.07417,211.41173" id="path12932eye" sodipodi:nodetypes="cc" style="fill:none;fill-rule:evenodd;stroke:#000000;stroke-width:2.15027952;stroke-linecap:round;stroke-linejoin:miter;stroke-miterlimit:4;stroke-dasharray:none;stroke-opacity:1"/>
					
        
					<path d="M 114.09079,174.65846 C 136.10807,157.97511 159.30825,159.64365 183.06722,168.65883" id="path12934eye" sodipodi:nodetypes="cc" style="fill:none;fill-rule:evenodd;stroke:#000000;stroke-width:2.15027952;stroke-linecap:round;stroke-linejoin:miter;stroke-miterlimit:4;stroke-dasharray:none;stroke-opacity:1"/>
					
        
					<path d="M 121.31668,210.92418 C 114.84533,196.32361 116.74555,182.84172 121.31668,169.71672" id="path12936eye" sodipodi:nodetypes="cc" style="fill:none;fill-rule:evenodd;stroke:#000000;stroke-width:1.94051731;stroke-linecap:round;stroke-linejoin:miter;stroke-miterlimit:4;stroke-dasharray:none;stroke-opacity:1"/>
					
        
					<path d="M 173.21449,212.73821 C 179.63207,197.49165 178.06553,178.90664 173.53238,165.20094" id="path12938eye" sodipodi:nodetypes="cc" style="fill:none;fill-rule:evenodd;stroke:#000000;stroke-width:1.97472537;stroke-linecap:round;stroke-linejoin:miter;stroke-miterlimit:4;stroke-dasharray:none;stroke-opacity:1"/>
					
        
					<path d="M 148.95456 181.49097 A 7.4636078 13.974415 0 1 1  134.02734,181.49097 A 7.4636078 13.974415 0 1 1  148.95456 181.49097 z" id="path12940eye" sodipodi:cx="141.49095" sodipodi:cy="181.49097" sodipodi:rx="7.4636078" sodipodi:ry="13.974415" sodipodi:type="arc" style="opacity:1;fill:url(#linearGradient12948eye);fill-opacity:1;stroke:none;stroke-width:0.2;stroke-linecap:round;stroke-linejoin:round;stroke-miterlimit:4;stroke-dasharray:none;stroke-opacity:1" transform="matrix(0.6729248,0.2654917,-0.2752524,0.6976648,90.358391,12.542442)"/>
					
        
					<path d="M 148.95456 181.49097 A 7.4636078 13.974415 0 1 1  134.02734,181.49097 A 7.4636078 13.974415 0 1 1  148.95456 181.49097 z" id="path12942eye" sodipodi:cx="141.49095" sodipodi:cy="181.49097" sodipodi:rx="7.4636078" sodipodi:ry="13.974415" sodipodi:type="arc" style="opacity:1;fill:url(#linearGradient12950eye);fill-opacity:1;stroke:none;stroke-width:0.2;stroke-linecap:round;stroke-linejoin:round;stroke-miterlimit:4;stroke-dasharray:none;stroke-opacity:1" transform="matrix(0.3507472,0.1383817,-0.1434692,0.3636423,116.97895,99.243818)"/>
					
      
				</g>
				
    
			</g>
			
  
		</g>
		

	</g>
	<g memaker:file="hair">
		
  
		<defs id="defs4hair">
			
    
			<linearGradient id="linearGradient7028hair">
				
      
				<stop id="stop7030hair" offset="0" style="stop-color:#c17d11;stop-opacity:1;"/>
				
      
				<stop id="stop7032hair" offset="1" style="stop-color:#8f5902;stop-opacity:1;"/>
				
    
			</linearGradient>
			
    
			<linearGradient gradientTransform="matrix(0.6866521,0,0,0.6866521,341.21363,466.29831)" gradientUnits="userSpaceOnUse" id="linearGradient3437hair" inkscape:collect="always" x1="-5.5809464" x2="54.460823" xlink:href="#linearGradient7028hair" y1="25.827393" y2="25.827393"/>
			
  
		</defs>
		
  
		<sodipodi:namedview bordercolor="#666666" borderlayer="false" borderopacity="1.0" gridtolerance="10000" guidetolerance="10" height="400px" id="basehair" inkscape:current-layer="layer1" inkscape:cx="-439.43754" inkscape:cy="-124.40563" inkscape:document-units="px" inkscape:pageopacity="0.0" inkscape:pageshadow="2" inkscape:window-height="849" inkscape:window-width="1024" inkscape:window-x="4" inkscape:window-y="44" inkscape:zoom="0.45009586" objecttolerance="10" pagecolor="#ffffff" width="400px"/>
		
  
		<metadata id="metadata7hair">
			
    
			<rdf:RDF>
				
      
				<cc:Work rdf:about="">
					
        
					<dc:format>
						image/svg+xml
					</dc:format>
					
        
					<dc:type rdf:resource="http://purl.org/dc/dcmitype/StillImage"/>
					
      
				</cc:Work>
				
    
			</rdf:RDF>
			
  
		</metadata>
		
  
		<g id="layer1hair" inkscape:groupmode="layer" inkscape:label="Layer 1">
			
    
			<g id="g5480hair" transform="matrix(2.8098829,0,0,2.6735884,-687.95469,-923.80491)">
				
      
				<path d="M 272.10534,410.57053 L 284.47823,381.55823 C 284.47823,381.55823 293.11791,377.39838 309.224,378.14502 C 325.33009,378.89166 348.90258,384.54479 348.90258,384.54479 L 361.27546,412.27712 L 359.99551,398.19764 L 364.68867,399.05093 L 359.14221,387.53135 L 366.82193,392.65117 C 366.82193,392.65117 365.96862,388.8113 363.83537,385.39809 C 361.70211,381.98489 358.2889,378.99833 358.2889,378.99833 L 374.9283,373.87851 C 374.9283,373.87851 371.19511,370.67863 366.82193,369.612 C 362.44875,368.54537 357.4356,369.612 357.4356,369.612 L 372.3684,361.50562 C 372.3684,361.50562 362.23543,354.6792 351.88914,353.82589 C 341.54283,352.97259 330.98322,358.09241 330.98322,358.09241 L 342.5028,348.70608 C 342.5028,348.70608 324.37012,346.14618 310.93061,349.55938 C 297.49108,352.97259 288.74474,362.35892 288.74474,362.35892 L 293.01125,352.54594 C 293.01125,352.54594 287.35812,353.50591 283.19826,357.23911 C 279.03841,360.9723 276.37185,367.47874 276.37185,367.47874 L 276.37185,359.79901 L 261.0124,375.58511 C 261.0124,375.58511 264.63893,379.21165 267.41217,387.95801 C 270.18541,396.70435 272.10534,410.57053 272.10534,410.57053 z " id="path6991hair" sodipodi:nodetypes="ccsccccccsccsccsccsccscccsc" style="fill:url(#linearGradient3437hair);fill-opacity:1;fill-rule:evenodd;stroke:#000000;stroke-width:0.7117734;stroke-linecap:butt;stroke-linejoin:miter;stroke-miterlimit:4;stroke-dasharray:none;stroke-opacity:1"/>
				
      
				<path d="M 269.99721,400.63279 C 271.5549,399.65987 273.0216,398.54656 274.48987,397.44499 L 278.63562,395.8013 C 277.18856,396.84111 275.75695,397.90234 274.32019,398.95597 L 269.99721,400.63279 z " id="path6995hair" style="fill:#000000;fill-opacity:1;fill-rule:nonzero;stroke:none;stroke-width:2;stroke-linecap:butt;stroke-linejoin:miter;stroke-miterlimit:4;stroke-dasharray:none;stroke-opacity:1"/>
				
      
				<path d="M 268.955,396.46392 C 270.51268,395.49099 271.97938,394.37769 273.44766,393.27611 L 277.5934,391.63242 C 276.14634,392.67223 274.71473,393.73347 273.27798,394.78709 L 268.955,396.46392 z " id="path6997hair" style="fill:#000000;fill-opacity:1;fill-rule:nonzero;stroke:none;stroke-width:2;stroke-linecap:butt;stroke-linejoin:miter;stroke-miterlimit:4;stroke-dasharray:none;stroke-opacity:1"/>
				
      
				<path d="M 268.955,391.25282 C 270.51268,390.2799 271.97938,389.16659 273.44766,388.06502 L 277.5934,386.42133 C 276.14634,387.46114 274.71473,388.52237 273.27798,389.576 L 268.955,391.25282 z " id="path6999hair" style="fill:#000000;fill-opacity:1;fill-rule:nonzero;stroke:none;stroke-width:2;stroke-linecap:butt;stroke-linejoin:miter;stroke-miterlimit:4;stroke-dasharray:none;stroke-opacity:1"/>
				
    
			</g>
			
  
		</g>
		

	</g>
</svg>
