<?xml version="1.0" encoding="UTF-8" standalone="no"?>
<svg
   xmlns:memaker="http://launchpad.net/memaker"
   xmlns:dc="http://purl.org/dc/elements/1.1/"
   xmlns:cc="http://creativecommons.org/ns#"
   xmlns:rdf="http://www.w3.org/1999/02/22-rdf-syntax-ns#"
   xmlns:svg="http://www.w3.org/2000/svg"
   xmlns="http://www.w3.org/2000/svg"
   xmlns:sodipodi="http://sodipodi.sourceforge.net/DTD/sodipodi-0.dtd"
   xmlns:inkscape="http://www.inkscape.org/namespaces/inkscape"
   height="400"
   width="400"
   id="svg2"
   version="1.1"
   inkscape:version="0.47 r22583"
   sodipodi:docname="helen.svg">
  <metadata
     id="metadata75" />
  <defs
     id="defs73">
    <inkscape:perspective
       sodipodi:type="inkscape:persp3d"
       inkscape:vp_x="0 : 200 : 1"
       inkscape:vp_y="0 : 1000 : 0"
       inkscape:vp_z="400 : 200 : 1"
       inkscape:persp3d-origin="200 : 133.33333 : 1"
       id="perspective77" />
    <defs
       id="defs2755nose" />
    <sodipodi:namedview
       width="400px"
       showgrid="false"
       pagecolor="#ffffff"
       objecttolerance="10"
       inkscape:zoom="1.8425"
       inkscape:window-y="25"
       inkscape:window-x="0"
       inkscape:window-width="1280"
       inkscape:window-height="949"
       inkscape:pageshadow="2"
       inkscape:pageopacity="0.0"
       inkscape:document-units="px"
       inkscape:cy="200"
       inkscape:cx="200"
       inkscape:current-layer="svg2753"
       id="basenose"
       height="400px"
       guidetolerance="10"
       gridtolerance="10000"
       borderopacity="1.0"
       bordercolor="#666666" />
    <defs
       id="defs2755ear" />
    <sodipodi:namedview
       width="400px"
       pagecolor="#ffffff"
       objecttolerance="10"
       inkscape:zoom="1.3"
       inkscape:window-y="146"
       inkscape:window-x="91"
       inkscape:window-width="1090"
       inkscape:window-height="732"
       inkscape:pageshadow="2"
       inkscape:pageopacity="0.0"
       inkscape:document-units="px"
       inkscape:cy="200"
       inkscape:cx="200"
       inkscape:current-layer="svg2753"
       id="baseear"
       height="400px"
       guidetolerance="10"
       gridtolerance="10000"
       borderopacity="1.0"
       bordercolor="#666666" />
  </defs>
  <sodipodi:namedview
     pagecolor="#ffffff"
     bordercolor="#666666"
     borderopacity="1"
     objecttolerance="10"
     gridtolerance="10"
     guidetolerance="10"
     inkscape:pageopacity="0"
     inkscape:pageshadow="2"
     inkscape:window-width="1280"
     inkscape:window-height="975"
     id="namedview71"
     showgrid="false"
     inkscape:zoom="1.668772"
     inkscape:cx="93.634361"
     inkscape:cy="200"
     inkscape:window-x="0"
     inkscape:window-y="25"
     inkscape:window-maximized="1"
     inkscape:current-layer="svg2"
     inkscape:snap-global="true"
     inkscape:snap-smooth-nodes="true"
     inkscape:object-paths="true" />
  <g
     memaker:file="head"
     id="g16"
     transform="matrix(0.91947671,0,0,1,18.382216,-22.033898)">
    <defs
       id="defs2755head" />
    <sodipodi:namedview
       bordercolor="#666666"
       borderopacity="1.0"
       gridtolerance="10000"
       guidetolerance="10"
       height="400px"
       id="basehead"
       inkscape:current-layer="svg2753"
       inkscape:cx="200"
       inkscape:cy="200"
       inkscape:document-units="px"
       inkscape:pageopacity="0.0"
       inkscape:pageshadow="2"
       inkscape:window-height="619"
       inkscape:window-width="872"
       inkscape:window-x="138"
       inkscape:window-y="175"
       inkscape:zoom="1.0175"
       objecttolerance="10"
       pagecolor="#ffffff"
       width="400px" />
    <metadata
       id="metadata2758head">
      <rdf:RDF>
        <cc:Work
           rdf:about="">
          <dc:format>
						image/svg+xml
					</dc:format>
          <dc:type
             rdf:resource="http://purl.org/dc/dcmitype/StillImage" />
        </cc:Work>
      </rdf:RDF>
    </metadata>
    <path
       d="m 300.26784,222.77401 c -4.24732,37.89759 -8.61034,56.90083 -21.11796,75.28429 -12.50762,18.38346 -29.97062,34.317 -38.06338,41.19456 -8.09276,6.87755 -26.68078,16.69657 -40.10131,16.1422 -13.42052,-0.55438 -24.1386,-8.50372 -35.4887,-15.84636 -11.3501,-7.34263 -29.66341,-22.84907 -42.10503,-41.79492 -12.44163,-18.94587 -17.21624,-47.50209 -19.47279,-85.8998 -2.25821,-38.42578 3.52844,-67.35364 22.14419,-91.16054 18.61574,-23.806918 53.18557,-32.904078 80.02662,-31.795308 26.84106,1.10875 54.76957,6.52229 73.13211,32.567988 18.18341,25.79163 25.28638,63.47444 21.04625,101.30789 z"
       id="path3499head"
       sodipodi:nodetypes="czzsszzzzzz"
       style="fill:#deaa87;fill-opacity:1;stroke:#000000;stroke-width:2.92761993;stroke-linecap:round;stroke-linejoin:round;stroke-miterlimit:4;stroke-opacity:1;stroke-dashoffset:0;display:inline" />
  </g>
  <g
     memaker:file="mouth"
     id="g22"
     transform="matrix(1,0,0,0.77620909,6.6768472,41.834663)">
    <defs
       id="defs2755mouth" />
    <sodipodi:namedview
       bordercolor="#666666"
       borderopacity="1.0"
       gridtolerance="10000"
       guidetolerance="10"
       height="400px"
       id="basemouth"
       inkscape:current-layer="svg2753"
       inkscape:cx="202.64641"
       inkscape:cy="121.65838"
       inkscape:document-units="px"
       inkscape:pageopacity="0.0"
       inkscape:pageshadow="2"
       inkscape:window-height="949"
       inkscape:window-width="1280"
       inkscape:window-x="0"
       inkscape:window-y="25"
       inkscape:zoom="1"
       objecttolerance="10"
       pagecolor="#ffffff"
       showgrid="false"
       width="400px" />
    <metadata
       id="metadata2758mouth">
      <rdf:RDF>
        <cc:Work
           rdf:about="">
          <dc:format>
						image/svg+xml
					</dc:format>
          <dc:type
             rdf:resource="http://purl.org/dc/dcmitype/StillImage" />
        </cc:Work>
      </rdf:RDF>
    </metadata>
    <path
       d="m 160.65116,296.11022 c 10.17991,-0.50054 22.89068,-7.52115 29.96672,-7.56403 7.21173,-0.0429 6.84574,2.04837 9.76271,2.49831 3.14957,-0.59047 3.7966,-3.38214 10.69637,-2.99719 6.90863,0.38545 18.83918,7.3197 28.49948,6.68778 -19.94511,18.85502 -27.37979,14.02494 -39.01992,13.19095 -9.60224,1.06555 -19.7074,5.29056 -39.90536,-11.81582 z"
       id="path2270mouth"
       sodipodi:nodetypes="czczccc"
       style="fill:#cb6262;fill-opacity:1;fill-rule:evenodd;stroke:#000000;stroke-width:0.80000001;stroke-linecap:round;stroke-linejoin:miter;stroke-miterlimit:4;stroke-opacity:0.74853803;stroke-dasharray:none" />
    <path
       d="m 160.54503,295.97825 c 11.80127,2.83344 21.46734,-3.0833 31.65977,-0.0622 7.48126,2.2175 8.65981,2.37076 15.57852,0.25889 6.79469,-2.07402 19.57157,3.28549 30.4356,-0.87274"
       id="path2272mouth"
       sodipodi:nodetypes="cszc"
       style="fill:#cb6262;fill-opacity:1;fill-rule:evenodd;stroke:#000000;stroke-width:0.80000001;stroke-linecap:round;stroke-linejoin:miter;stroke-miterlimit:4;stroke-opacity:0.74853803;stroke-dasharray:none" />
    <path
       d="m 238.78125,295.4375 c -0.57317,0.1203 -1.14533,0.23493 -1.71875,0.375 -1.81416,0.44315 -3.65602,0.90092 -5.53125,0.875 -2.06018,0.24226 -4.09615,0.23606 -6.15625,0.125 -2.0601,-0.11106 -4.12945,-0.3377 -6.1875,-0.53125 -2.05805,-0.19355 -4.13348,-0.3698 -6.1875,-0.375 -2.05402,-0.005 -4.07698,0.17102 -6.125,0.625 -0.95788,0.33278 -1.94705,0.56131 -2.9375,0.71875 -0.99045,0.15744 -1.99709,0.25287 -3,0.25 -2.00583,-0.006 -4.00243,-0.31819 -5.9375,-0.875 -1.1615,-0.43497 -2.36,-0.76944 -3.5625,-1 -1.2025,-0.23056 -2.43221,-0.38236 -3.65625,-0.4375 -2.44808,-0.11027 -4.89511,0.11371 -7.3125,0.53125 -1.87376,0.40608 -3.78717,0.712 -5.6875,0.90625 -1.90033,0.19425 -3.80864,0.28457 -5.71875,0.28125 -1.91011,-0.003 -3.81565,-0.0946 -5.71875,-0.28125 -0.84696,-0.0831 -1.68808,-0.25769 -2.53125,-0.375 20.08552,16.94015 30.17455,12.75009 39.75,11.6875 11.47462,0.82213 18.90461,5.42848 38.21875,-12.5 z"
       id="path4119mouth"
       style="opacity:0.83425413;fill:#df4e4e;fill-opacity:1;fill-rule:evenodd;stroke:#000000;stroke-width:0.80000001;stroke-linecap:round;stroke-linejoin:miter;stroke-miterlimit:4;stroke-opacity:0.74853803;stroke-dasharray:none" />
    <path
       d="m 211.0625,288.0625 c -6.89977,-0.38495 -7.53792,2.37829 -10.6875,2.96875 -2.91697,-0.44994 -2.53826,-2.54288 -9.75,-2.5 -7.07604,0.0429 -19.78883,7.0932 -29.96875,7.59375 0.0564,0.0477 0.10006,0.0776 0.15625,0.125 0.84317,0.11731 1.68429,0.29195 2.53125,0.375 1.9031,0.18661 3.80864,0.27793 5.71875,0.28125 1.91011,0.003 3.81842,-0.087 5.71875,-0.28125 1.90033,-0.19425 3.81374,-0.50017 5.6875,-0.90625 2.41739,-0.41754 4.86442,-0.64152 7.3125,-0.53125 1.22404,0.0551 2.45375,0.20694 3.65625,0.4375 1.2025,0.23056 2.401,0.56503 3.5625,1 1.93507,0.55681 3.93167,0.86926 5.9375,0.875 1.00291,0.003 2.00955,-0.0926 3,-0.25 0.99045,-0.15744 1.97962,-0.38597 2.9375,-0.71875 2.04802,-0.45398 4.07098,-0.6302 6.125,-0.625 2.05402,0.005 4.12945,0.18145 6.1875,0.375 2.05805,0.19355 4.1274,0.42019 6.1875,0.53125 2.0601,0.11106 4.09607,0.11726 6.15625,-0.125 1.87523,0.0259 3.71709,-0.43185 5.53125,-0.875 0.57342,-0.14007 1.14558,-0.2547 1.71875,-0.375 0.27859,-0.2586 0.49765,-0.4194 0.78125,-0.6875 -9.6603,0.63192 -21.59138,-6.30204 -28.5,-6.6875 z"
       id="path3134mouth"
       style="opacity:0.83425413;fill:#c03737;fill-opacity:1;fill-rule:evenodd;stroke:#000000;stroke-width:0.80000001;stroke-linecap:round;stroke-linejoin:miter;stroke-miterlimit:4;stroke-opacity:0.74853803;stroke-dasharray:none" />
  </g>
  <path
     style="fill:none;stroke:#000000;stroke-width:1.93067157;stroke-linecap:round;stroke-linejoin:round;stroke-miterlimit:4;stroke-opacity:1;stroke-dasharray:none"
     sodipodi:nodetypes="czzz"
     id="path6231nose"
     d="m 187.84137,249.75094 c 4.84035,5.26192 9.44567,-4.58899 15.51234,-2.03001 6.09858,2.57245 10.51364,8.15543 14.02434,3.474 3.5746,-4.76663 15.37667,0.91697 16.32547,-4.91034" />
  <path
     style="fill:none;stroke:#000000;stroke-width:1.93067157;stroke-linecap:square;stroke-linejoin:round;stroke-miterlimit:4;stroke-opacity:1;stroke-dasharray:none"
     id="path6250nose"
     d="m 213.57573,245.39721 c -2.1278,-12.00049 7.39194,-3.04419 0.79899,-34.06075 -0.77794,-5.51701 -5.29578,-11.66451 -5.14177,-16.97828"
     sodipodi:nodetypes="ccc" />
  <g
     memaker:file="eye"
     id="g38"
     transform="translate(7.8753333,-25.544183)">
    <defs
       id="defs2755eye" />
    <sodipodi:namedview
       bordercolor="#666666"
       borderopacity="1.0"
       gridtolerance="10000"
       guidetolerance="10"
       height="400px"
       id="baseeye"
       inkscape:current-layer="svg2753"
       inkscape:cx="217.38559"
       inkscape:cy="175.60855"
       inkscape:document-units="px"
       inkscape:pageopacity="0.0"
       inkscape:pageshadow="2"
       inkscape:window-height="946"
       inkscape:window-width="1272"
       inkscape:window-x="0"
       inkscape:window-y="25"
       inkscape:zoom="4"
       objecttolerance="10"
       pagecolor="#ffffff"
       showgrid="false"
       width="400px" />
    <metadata
       id="metadata2758eye">
      <rdf:RDF>
        <cc:Work
           rdf:about="">
          <dc:format>
						image/svg+xml
					</dc:format>
          <dc:type
             rdf:resource="http://purl.org/dc/dcmitype/StillImage" />
        </cc:Work>
      </rdf:RDF>
    </metadata>
    <path
       d="m 246.52452,205.21945 c -8.13736,-0.58073 -15.4597,-0.37789 -20.55426,1.80155 -7.63214,4.94791 -3.865,9.79893 -7.36265,9.66918 -0.52997,1.40303 1.10784,1.79938 2.70919,1.78326 8.92264,2.67408 17.98123,3.01165 29.60259,0.79617 2.79619,-0.84527 7.04761,-1.96445 9.62517,-3.27713 2.32018,-1.1816 4.86375,-0.50258 0.46595,-4.7917 -4.35228,-4.24473 -6.34863,-5.40061 -14.48599,-5.98133 z"
       id="path4177eye"
       sodipodi:nodetypes="cccccszz"
       style="fill:#f1f1f1;fill-opacity:1;fill-rule:evenodd;stroke:#000000;stroke-width:0.91605157;stroke-linecap:round;stroke-linejoin:round;stroke-miterlimit:4;stroke-opacity:1;stroke-dasharray:none;stroke-dashoffset:0" />
    <path
       d="m 157.12347,204.47762 c 0,4.57114 -4.00939,8.27679 -8.95523,8.27679 -4.94583,0 -8.95522,-3.70565 -8.95522,-8.27679 0,-3.99092 3.08134,-7.4135 7.32744,-8.13892"
       id="path4179eye"
       sodipodi:cx="148.16824"
       sodipodi:cy="204.47762"
       sodipodi:end="4.5296038"
       sodipodi:open="true"
       sodipodi:rx="8.955224"
       sodipodi:ry="8.2767973"
       sodipodi:start="0"
       sodipodi:type="arc"
       style="fill:#6c5353;fill-opacity:1;fill-rule:evenodd;stroke:#000000;stroke-width:2;stroke-linecap:round;stroke-linejoin:round;stroke-miterlimit:4;stroke-opacity:0.39181285;stroke-dasharray:none;stroke-dashoffset:0"
       transform="matrix(-0.7566534,-0.6133438,-0.6250158,0.7536149,480.29607,147.58374)" />
    <path
       d="m 167.97829,200.9498 c 0,1.12405 -0.97197,2.03528 -2.17096,2.03528 -1.19899,0 -2.17097,-0.91123 -2.17097,-2.03528 0,-1.12405 0.97198,-2.03528 2.17097,-2.03528 1.19899,0 2.17096,0.91123 2.17096,2.03528 z"
       id="path4181eye"
       sodipodi:cx="165.80733"
       sodipodi:cy="200.9498"
       sodipodi:rx="2.1709633"
       sodipodi:ry="2.0352781"
       sodipodi:type="arc"
       style="fill:#000000;fill-opacity:1;fill-rule:evenodd;stroke:none"
       transform="matrix(-1.9666302,-0.1490717,-0.1539709,2.0312628,597.51627,-172.50039)" />
    <path
       d="m 167.97829,200.9498 c 0,1.12405 -0.97197,2.03528 -2.17096,2.03528 -1.19899,0 -2.17097,-0.91123 -2.17097,-2.03528 0,-1.12405 0.97198,-2.03528 2.17097,-2.03528 1.19899,0 2.17096,0.91123 2.17096,2.03528 z"
       id="path4183eye"
       sodipodi:cx="165.80733"
       sodipodi:cy="200.9498"
       sodipodi:rx="2.1709633"
       sodipodi:ry="2.0352781"
       sodipodi:type="arc"
       style="fill:#ffffff;fill-opacity:1;fill-rule:evenodd;stroke:none"
       transform="matrix(-0.8253964,-0.07353066,-0.05761404,0.9047315,385.22429,38.881143)" />
    <path
       d="m 249.50472,206.45739 c -9.63939,-0.65123 -19.38314,-0.5491 -24.09196,1.44476 -6.32443,2.24851 -3.74017,7.70782 -7.55378,8.61744 0.0278,2.16277 1.56535,3.39513 4.27089,2.24828 8.32496,2.64672 20.12485,3.80215 30.06938,1.18 5.17738,-1.52492 11.54401,-5.48971 8.78068,-8.1733 -3.09301,-2.11008 -5.8093,-4.5692 -11.47521,-5.31718 z"
       id="path4185eye"
       sodipodi:nodetypes="ccccccc"
       style="fill:none;stroke:#000000;stroke-width:1.71794236;stroke-linecap:round;stroke-linejoin:round;stroke-miterlimit:4;stroke-opacity:0.13450293;stroke-dasharray:none;stroke-dashoffset:0" />
    <path
       d="m 250.61091,206.32601 c -9.97742,-0.56766 -20.0645,-0.45689 -24.94342,1.34718 -6.55196,2.03642 -3.8884,6.94618 -7.83825,7.77243 0.0241,1.94698 1.61318,3.05344 4.41645,2.01576 8.61243,2.36664 20.82534,3.38403 31.12567,1.00424 5.36297,-1.38281 11.9623,-4.9644 9.10742,-7.37497 -3.1974,-1.89363 -6.00405,-4.1022 -11.86787,-4.76464 z"
       id="path4187eye"
       sodipodi:nodetypes="ccccccc"
       style="fill:none;stroke:#000000;stroke-width:1.65845644;stroke-linecap:round;stroke-linejoin:round;stroke-miterlimit:4;stroke-opacity:0.13450293;stroke-dasharray:none;stroke-dashoffset:0" />
    <path
       d="m 265.55545,210.63736 c -4.39155,-5.91828 -12.28273,-6.85252 -19.08543,-7.49156 -7.95039,-0.82663 -16.69944,-1.55459 -23.88705,2.62779 -1.84112,1.2973 -3.21093,3.14662 -4.32673,5.0774"
       id="path4189eye"
       style="fill:none;stroke:#000000;stroke-width:1.02140999px;stroke-linecap:round;stroke-linejoin:round;stroke-opacity:1" />
    <path
       d="m 152.54163,205.21945 c 8.13736,-0.58073 15.4597,-0.37789 20.55426,1.80155 7.63214,4.94791 3.865,9.79893 7.36265,9.66918 0.52997,1.40303 -1.10784,1.79938 -2.70919,1.78326 -8.92264,2.67408 -17.98123,3.01165 -29.60259,0.79617 -2.79619,-0.84527 -7.04761,-1.96445 -9.62517,-3.27713 -2.32018,-1.1816 -4.86375,-0.50258 -0.46595,-4.7917 4.35228,-4.24473 6.34863,-5.40061 14.48599,-5.98133 z"
       id="path3157eye"
       sodipodi:nodetypes="cccccszz"
       style="fill:#f1f1f1;fill-opacity:1;fill-rule:evenodd;stroke:#000000;stroke-width:0.91605157;stroke-linecap:round;stroke-linejoin:round;stroke-miterlimit:4;stroke-opacity:1;stroke-dasharray:none;stroke-dashoffset:0" />
    <path
       d="m 157.12347,204.47762 c 0,4.57114 -4.00939,8.27679 -8.95523,8.27679 -4.94583,0 -8.95522,-3.70565 -8.95522,-8.27679 0,-3.99092 3.08134,-7.4135 7.32744,-8.13892"
       id="path2227eye"
       sodipodi:cx="148.16824"
       sodipodi:cy="204.47762"
       sodipodi:end="4.5296038"
       sodipodi:open="true"
       sodipodi:rx="8.955224"
       sodipodi:ry="8.2767973"
       sodipodi:start="0"
       sodipodi:type="arc"
       style="fill:#6c5353;fill-opacity:1;fill-rule:evenodd;stroke:#000000;stroke-width:2;stroke-linecap:round;stroke-linejoin:round;stroke-miterlimit:4;stroke-opacity:0.39181285;stroke-dasharray:none;stroke-dashoffset:0"
       transform="matrix(-0.7566534,-0.6133438,-0.6250158,0.7536149,398.57411,147.58374)" />
    <path
       d="m 167.97829,200.9498 c 0,1.12405 -0.97197,2.03528 -2.17096,2.03528 -1.19899,0 -2.17097,-0.91123 -2.17097,-2.03528 0,-1.12405 0.97198,-2.03528 2.17097,-2.03528 1.19899,0 2.17096,0.91123 2.17096,2.03528 z"
       id="path2229eye"
       sodipodi:cx="165.80733"
       sodipodi:cy="200.9498"
       sodipodi:rx="2.1709633"
       sodipodi:ry="2.0352781"
       sodipodi:type="arc"
       style="fill:#000000;fill-opacity:1;fill-rule:evenodd;stroke:none"
       transform="matrix(1.9666302,-0.1490717,0.1539709,2.0312628,-198.45012,-172.50039)" />
    <path
       d="m 167.97829,200.9498 c 0,1.12405 -0.97197,2.03528 -2.17096,2.03528 -1.19899,0 -2.17097,-0.91123 -2.17097,-2.03528 0,-1.12405 0.97198,-2.03528 2.17097,-2.03528 1.19899,0 2.17096,0.91123 2.17096,2.03528 z"
       id="path2231eye"
       sodipodi:cx="165.80733"
       sodipodi:cy="200.9498"
       sodipodi:rx="2.1709633"
       sodipodi:ry="2.0352781"
       sodipodi:type="arc"
       style="fill:#ffffff;fill-opacity:1;fill-rule:evenodd;stroke:none"
       transform="matrix(0.8253964,-0.07353066,0.05761404,0.9047315,6.5151528,39.250097)" />
    <path
       d="m 149.56143,206.45739 c 9.63939,-0.65123 19.38314,-0.5491 24.09196,1.44476 6.32443,2.24851 3.74017,7.70782 7.55378,8.61744 -0.0278,2.16277 -1.56535,3.39513 -4.27089,2.24828 -8.32496,2.64672 -20.12485,3.80215 -30.06938,1.18 -5.17738,-1.52492 -11.54401,-5.48971 -8.78068,-8.1733 3.09301,-2.11008 5.8093,-4.5692 11.47521,-5.31718 z"
       id="path2181eye"
       sodipodi:nodetypes="ccccccc"
       style="fill:none;stroke:#000000;stroke-width:1.71794236;stroke-linecap:round;stroke-linejoin:round;stroke-miterlimit:4;stroke-opacity:0.13450293;stroke-dasharray:none;stroke-dashoffset:0" />
    <path
       d="m 148.45743,206.3346 c 9.97526,-0.57453 20.06015,-0.46242 24.93801,1.36347 6.55055,2.06107 3.88756,7.03023 7.83656,7.86647 -0.0241,1.97054 -1.61283,3.09039 -4.4155,2.04015 -8.61056,2.39527 -20.82083,3.42497 -31.11892,1.01639 -5.36181,-1.39954 -11.95971,-5.02447 -9.10545,-7.4642 3.19671,-1.91653 6.00275,-4.15182 11.8653,-4.82228 z"
       id="path3155eye"
       sodipodi:nodetypes="ccccccc"
       style="fill:none;stroke:#000000;stroke-width:1.66827786;stroke-linecap:round;stroke-linejoin:round;stroke-miterlimit:4;stroke-opacity:0.13450293;stroke-dasharray:none;stroke-dashoffset:0" />
    <path
       d="m 133.51071,210.63736 c 4.6279,-6.13456 12.87419,-6.95496 19.95719,-7.56731 7.39884,-0.68827 15.45157,-1.38115 22.2295,2.27424 2.16901,1.31903 3.94175,3.25822 5.11251,5.5067"
       id="path3164eye"
       style="fill:none;stroke:#000000;stroke-width:1.02140999px;stroke-linecap:round;stroke-linejoin:round;stroke-opacity:1" />
  </g>
  <g
     memaker:file="eyebrow"
     id="g57"
     transform="translate(7.2760902,-23.746454)">
    <defs
       id="defs2755eyebrow" />
    <sodipodi:namedview
       bordercolor="#666666"
       borderopacity="1.0"
       gridtolerance="10000"
       guidetolerance="10"
       height="400px"
       id="baseeyebrow"
       inkscape:current-layer="svg2753"
       inkscape:cx="188.83134"
       inkscape:cy="204.41672"
       inkscape:document-units="px"
       inkscape:pageopacity="0.0"
       inkscape:pageshadow="2"
       inkscape:window-height="732"
       inkscape:window-width="1090"
       inkscape:window-x="91"
       inkscape:window-y="146"
       inkscape:zoom="4.98"
       objecttolerance="10"
       pagecolor="#ffffff"
       width="400px" />
    <metadata
       id="metadata2758eyebrow">
      <rdf:RDF>
        <cc:Work
           rdf:about="">
          <dc:format>
						image/svg+xml
					</dc:format>
          <dc:type
             rdf:resource="http://purl.org/dc/dcmitype/StillImage" />
        </cc:Work>
      </rdf:RDF>
    </metadata>
    <g
       id="g2171eyebrow"
       transform="translate(0,2)">
      <path
         d="m 153.55624,179.31291 c 13.45112,1.27707 31.28311,6.24712 32.21117,10.22801 -11.82792,3.27925 -29.97805,-7.3842 -40.02117,-6.43321 -10.06394,0.95297 -13.30983,3.85342 -21.44878,7.53246 5.26845,-4.50534 15.7873,-12.60627 29.25878,-11.32726 z"
         id="path3488eyebrow"
         sodipodi:nodetypes="cczcz"
         style="fill:#1a1a1a;fill-opacity:1;fill-rule:evenodd;stroke:none" />
      <path
         d="m 248.50863,179.31291 c -13.45112,1.27707 -31.28311,6.24712 -32.21117,10.22801 11.82792,3.27925 29.97805,-7.3842 40.02117,-6.43321 10.06394,0.95297 13.30983,3.85342 21.44878,7.53246 -5.26845,-4.50534 -15.7873,-12.60627 -29.25878,-11.32726 z"
         id="path2169eyebrow"
         sodipodi:nodetypes="cczcz"
         style="fill:#1a1a1a;fill-opacity:1;fill-rule:evenodd;stroke:none" />
    </g>
  </g>
  <g
     memaker:file="hair"
     id="g65"
     style="fill:#490000;fill-opacity:1"
     transform="matrix(0.9472783,0,0,1,13.521947,-13.268169)">
    <defs
       id="defs2755hair" />
    <sodipodi:namedview
       bordercolor="#666666"
       borderopacity="1.0"
       gridtolerance="10000"
       guidetolerance="10"
       height="400px"
       id="basehair"
       inkscape:current-layer="svg2753"
       inkscape:cx="200"
       inkscape:cy="200"
       inkscape:document-units="px"
       inkscape:pageopacity="0.0"
       inkscape:pageshadow="2"
       inkscape:window-height="732"
       inkscape:window-width="1090"
       inkscape:window-x="91"
       inkscape:window-y="146"
       inkscape:zoom="1.3"
       objecttolerance="10"
       pagecolor="#ffffff"
       width="400px" />
    <metadata
       id="metadata2758hair">
      <rdf:RDF>
        <cc:Work
           rdf:about="">
          <dc:format>
						image/svg+xml
					</dc:format>
          <dc:type
             rdf:resource="http://purl.org/dc/dcmitype/StillImage" />
        </cc:Work>
      </rdf:RDF>
    </metadata>
    <path
       d="m 315.1176,152.39847 c 16.34784,69.59459 -2.05606,184.23007 -28.85335,199.70546 -8.11796,4.68811 -17.02151,-38.04707 3.66522,-84.31761 24.13261,-63.77025 20.70816,-78.27842 5.58147,-76.11349 0.67813,-19.27228 -39.11641,-71.40573 -105.37297,-61.25338 -25.60016,32.47816 -54.88037,-7.77116 -62.33163,11.83716 -7.76814,20.44223 -28.109856,111.42118 -9.86877,145.50468 -5.65369,24.21909 8.32578,91.90546 -16.52512,69.46656 C 86.780978,330.84941 72.421135,227.99251 73.218969,187.99232 c 0.797834,-40.00019 18.488437,-71.55055 40.183081,-92.665451 21.69465,-21.1149 54.6635,-30.822614 88.8201,-32.243923 62.86032,10.451954 96.54761,19.720925 112.89545,89.315524 z"
       id="path2263hair"
       sodipodi:nodetypes="cscccscczzcz"
       style="fill:#490000;fill-opacity:1;fill-rule:evenodd;stroke:#000000;stroke-width:2.93124794999999994;stroke-linecap:round;stroke-linejoin:round;stroke-miterlimit:4;stroke-opacity:1;stroke-dasharray:none;stroke-dashoffset:0;display:inline" />
  </g>
  <g
     transform="matrix(0.8664143,0,0,0.9541268,30.88251,-20.278285)"
     style="display:inline"
     id="g3298ear">
    <g
       id="g3288ear">
      <path
         style="fill:#deaa87;fill-opacity:1;fill-rule:evenodd;stroke:#000000;stroke-width:2.81657481;stroke-linecap:round;stroke-linejoin:round;stroke-miterlimit:4;stroke-opacity:1;stroke-dashoffset:0"
         sodipodi:nodetypes="cccc"
         id="path2285ear"
         d="m 109.40812,279.41683 c -11.915339,5.42072 -16.481413,-0.20497 -18.19168,-16.54738 -6.06994,-14.16256 -20.428512,-39.8785 -6.074948,-59.81835 10.654994,-5.92929 12.492338,2.25544 17.501048,6.36226" />
      <path
         style="fill:none;stroke:#000000;stroke-width:1.03181887px;stroke-linecap:butt;stroke-linejoin:miter;stroke-opacity:1"
         sodipodi:nodetypes="ccc"
         id="path3260ear"
         d="m 86.942856,217.19523 c 9.154572,-11.21471 16.734154,17.5674 11.324864,33.56759 -0.693366,9.4667 4.42272,10.01911 7.32275,11.48462" />
    </g>
    <g
       transform="matrix(-1,0,0,1,398.37571,0)"
       id="g3292ear">
      <path
         style="fill:#deaa87;fill-opacity:1;fill-rule:evenodd;stroke:#000000;stroke-width:2.81657481;stroke-linecap:round;stroke-linejoin:round;stroke-miterlimit:4;stroke-opacity:1;stroke-dashoffset:0"
         sodipodi:nodetypes="cccc"
         id="path3294ear"
         d="m 109.40812,279.41683 c -11.915339,5.42072 -16.481413,-0.20497 -18.19168,-16.54738 -6.06994,-14.16256 -20.428512,-39.8785 -6.074948,-59.81835 10.654994,-5.92929 12.492338,2.25544 17.501048,6.36226" />
      <path
         style="fill:none;stroke:#000000;stroke-width:1.03181887px;stroke-linecap:butt;stroke-linejoin:miter;stroke-opacity:1"
         sodipodi:nodetypes="ccc"
         id="path3296ear"
         d="m 86.942856,217.19523 c 9.154572,-11.21471 16.734154,17.5674 11.324864,33.56759 -0.693366,9.4667 4.42272,10.01911 7.32275,11.48462" />
    </g>
  </g>
</svg>
