<?xml version="1.0" encoding="UTF-8" standalone="no"?>
<!-- Created with Inkscape (http://www.inkscape.org/) -->

<svg
   xmlns:dc="http://purl.org/dc/elements/1.1/"
   xmlns:cc="http://creativecommons.org/ns#"
   xmlns:rdf="http://www.w3.org/1999/02/22-rdf-syntax-ns#"
   xmlns:svg="http://www.w3.org/2000/svg"
   xmlns="http://www.w3.org/2000/svg"
   xmlns:sodipodi="http://sodipodi.sourceforge.net/DTD/sodipodi-0.dtd"
   xmlns:inkscape="http://www.inkscape.org/namespaces/inkscape"
   width="64px"
   height="64px"
   id="svg5391"
   version="1.1"
   inkscape:version="0.47 r22583"
   sodipodi:docname="ur1.svg">
  <defs
     id="defs5393">
    <inkscape:perspective
       sodipodi:type="inkscape:persp3d"
       inkscape:vp_x="0 : 32 : 1"
       inkscape:vp_y="0 : 1000 : 0"
       inkscape:vp_z="64 : 32 : 1"
       inkscape:persp3d-origin="32 : 21.333333 : 1"
       id="perspective5399" />
    <inkscape:perspective
       id="perspective5384"
       inkscape:persp3d-origin="0.5 : 0.33333333 : 1"
       inkscape:vp_z="1 : 0.5 : 1"
       inkscape:vp_y="0 : 1000 : 0"
       inkscape:vp_x="0 : 0.5 : 1"
       sodipodi:type="inkscape:persp3d" />
    <inkscape:perspective
       id="perspective5443"
       inkscape:persp3d-origin="0.5 : 0.33333333 : 1"
       inkscape:vp_z="1 : 0.5 : 1"
       inkscape:vp_y="0 : 1000 : 0"
       inkscape:vp_x="0 : 0.5 : 1"
       sodipodi:type="inkscape:persp3d" />
    <inkscape:perspective
       id="perspective5492"
       inkscape:persp3d-origin="0.5 : 0.33333333 : 1"
       inkscape:vp_z="1 : 0.5 : 1"
       inkscape:vp_y="0 : 1000 : 0"
       inkscape:vp_x="0 : 0.5 : 1"
       sodipodi:type="inkscape:persp3d" />
    <inkscape:perspective
       id="perspective5541"
       inkscape:persp3d-origin="0.5 : 0.33333333 : 1"
       inkscape:vp_z="1 : 0.5 : 1"
       inkscape:vp_y="0 : 1000 : 0"
       inkscape:vp_x="0 : 0.5 : 1"
       sodipodi:type="inkscape:persp3d" />
    <inkscape:perspective
       id="perspective5590"
       inkscape:persp3d-origin="0.5 : 0.33333333 : 1"
       inkscape:vp_z="1 : 0.5 : 1"
       inkscape:vp_y="0 : 1000 : 0"
       inkscape:vp_x="0 : 0.5 : 1"
       sodipodi:type="inkscape:persp3d" />
    <inkscape:perspective
       id="perspective5639"
       inkscape:persp3d-origin="0.5 : 0.33333333 : 1"
       inkscape:vp_z="1 : 0.5 : 1"
       inkscape:vp_y="0 : 1000 : 0"
       inkscape:vp_x="0 : 0.5 : 1"
       sodipodi:type="inkscape:persp3d" />
    <inkscape:perspective
       id="perspective5714"
       inkscape:persp3d-origin="0.5 : 0.33333333 : 1"
       inkscape:vp_z="1 : 0.5 : 1"
       inkscape:vp_y="0 : 1000 : 0"
       inkscape:vp_x="0 : 0.5 : 1"
       sodipodi:type="inkscape:persp3d" />
    <inkscape:perspective
       id="perspective5763"
       inkscape:persp3d-origin="0.5 : 0.33333333 : 1"
       inkscape:vp_z="1 : 0.5 : 1"
       inkscape:vp_y="0 : 1000 : 0"
       inkscape:vp_x="0 : 0.5 : 1"
       sodipodi:type="inkscape:persp3d" />
    <inkscape:perspective
       id="perspective5812"
       inkscape:persp3d-origin="0.5 : 0.33333333 : 1"
       inkscape:vp_z="1 : 0.5 : 1"
       inkscape:vp_y="0 : 1000 : 0"
       inkscape:vp_x="0 : 0.5 : 1"
       sodipodi:type="inkscape:persp3d" />
  </defs>
  <sodipodi:namedview
     id="base"
     pagecolor="#ffffff"
     bordercolor="#666666"
     borderopacity="1.0"
     inkscape:pageopacity="0.0"
     inkscape:pageshadow="2"
     inkscape:zoom="0.97227183"
     inkscape:cx="32"
     inkscape:cy="32"
     inkscape:current-layer="layer1"
     showgrid="true"
     inkscape:document-units="px"
     inkscape:grid-bbox="true"
     inkscape:window-width="447"
     inkscape:window-height="359"
     inkscape:window-x="159"
     inkscape:window-y="147"
     inkscape:window-maximized="0" />
  <metadata
     id="metadata5396">
    <rdf:RDF>
      <cc:Work
         rdf:about="">
        <dc:format>image/svg+xml</dc:format>
        <dc:type
           rdf:resource="http://purl.org/dc/dcmitype/StillImage" />
        <dc:title></dc:title>
      </cc:Work>
    </rdf:RDF>
  </metadata>
  <g
     id="layer1"
     inkscape:label="Layer 1"
     inkscape:groupmode="layer">
    <path
       style="fill:#e9c6af;fill-opacity:1;stroke:#000000;stroke-width:0.36192101px;stroke-linecap:butt;stroke-linejoin:miter;stroke-opacity:1"
       d="m 28.375588,19.68773 c -0.16838,2.241017 -0.512609,5.657698 -0.305837,6.713825 -0.242623,2.450815 0.794405,4.813967 0.614194,7.264283 0.04694,2.823568 0.225341,5.646494 0.100812,8.468626 0.0723,1.741092 0.09685,3.48876 -0.152589,5.216686 -0.08743,2.179239 0.281167,4.348534 0.191368,6.527663 1.031818,1.304159 2.832158,0.47824 3.290275,-0.885832 0.723809,-1.3431 1.188298,-2.810285 1.78623,-4.200318 0.707308,-3.530174 2.871127,-6.67719 3.069354,-10.322131 1.01,-2.841809 0.379841,-5.884552 0.533946,-8.820562 -0.03849,-3.026184 0.738084,-6.054734 0.881401,-9.077737"
       id="path2868"
       sodipodi:nodetypes="ccccccccccc" />
    <path
       style="fill:#e9c6af;fill-opacity:1;stroke:#000000;stroke-width:0.36192101px;stroke-linecap:butt;stroke-linejoin:miter;stroke-opacity:1"
       d="M 28.596332,19.963214 C 28.656557,17.797767 27.114874,15.927042 27.312628,13.733149 27.141526,11.497691 26.570977,9.3346924 25.733485,7.2573349 24.727848,5.19248 26.963543,3.3672729 28.79074,4.6625715 c 2.343025,-0.3026642 4.653179,-0.2794873 6.963867,-0.7978989 2.035684,-0.6197449 5.213098,-0.6654874 4.478984,2.334663 -0.01728,3.4460919 0.09414,6.9405814 -0.826198,10.2983664 -0.477628,1.878722 -0.938646,4.180852 -1.564398,5.349931 -0.484433,1.945959 -3.114677,1.346376 -4.646643,1.227756 -2.143505,-2.88e-4 -3.552252,-1.445932 -4.60002,-3.112175 z"
       id="path2836" />
    <path
       style="fill:#800000;fill-opacity:1;stroke:#000000;stroke-width:0.36192101px;stroke-linecap:butt;stroke-linejoin:miter;stroke-opacity:1"
       d="m 31.651284,52.650616 c 0.552267,-1.513395 0.04536,-3.158367 0.237054,-4.727353 0.199334,-3.143002 0.84094,-6.285407 0.453797,-9.439309 0.121292,-3.803111 1.098668,-7.714746 -0.14131,-11.441673 -0.379131,-1.298877 -0.804,-2.662781 -0.519255,-4.023055 -0.213755,-1.962698 -0.03434,-3.934219 0.20011,-5.879595 -0.11508,-1.41558 -0.600033,-4.091259 1.640183,-3.958982 1.871572,0.452771 -0.163873,2.669485 0.03984,3.920053 -0.514806,2.441865 -0.408115,4.961367 0.149878,7.383538 0.524147,2.868425 1.201318,5.859454 0.296393,8.729091 -0.407087,1.672274 -1.007936,3.391666 -0.66272,5.128771 -0.606669,3.931191 -0.474768,5.366932 -0.588606,9.501297 -0.134049,0.765144 -0.837855,3.780567 -1.105366,4.807217 z"
       id="path2834"
       sodipodi:nodetypes="ccccccccccccc" />
  </g>
</svg>
