<?xml version="1.0" encoding="UTF-8" standalone="no"?>
<!-- Created with Inkscape (http://www.inkscape.org/) -->

<svg
   xmlns:dc="http://purl.org/dc/elements/1.1/"
   xmlns:cc="http://creativecommons.org/ns#"
   xmlns:rdf="http://www.w3.org/1999/02/22-rdf-syntax-ns#"
   xmlns:svg="http://www.w3.org/2000/svg"
   xmlns="http://www.w3.org/2000/svg"
   xmlns:sodipodi="http://sodipodi.sourceforge.net/DTD/sodipodi-0.dtd"
   xmlns:inkscape="http://www.inkscape.org/namespaces/inkscape"
   width="64px"
   height="64px"
   id="svg5391"
   version="1.1"
   inkscape:version="0.47 r22583"
   sodipodi:docname="lr2.svg">
  <defs
     id="defs5393">
    <inkscape:perspective
       sodipodi:type="inkscape:persp3d"
       inkscape:vp_x="0 : 32 : 1"
       inkscape:vp_y="0 : 1000 : 0"
       inkscape:vp_z="64 : 32 : 1"
       inkscape:persp3d-origin="32 : 21.333333 : 1"
       id="perspective5399" />
    <inkscape:perspective
       id="perspective5384"
       inkscape:persp3d-origin="0.5 : 0.33333333 : 1"
       inkscape:vp_z="1 : 0.5 : 1"
       inkscape:vp_y="0 : 1000 : 0"
       inkscape:vp_x="0 : 0.5 : 1"
       sodipodi:type="inkscape:persp3d" />
    <inkscape:perspective
       id="perspective5443"
       inkscape:persp3d-origin="0.5 : 0.33333333 : 1"
       inkscape:vp_z="1 : 0.5 : 1"
       inkscape:vp_y="0 : 1000 : 0"
       inkscape:vp_x="0 : 0.5 : 1"
       sodipodi:type="inkscape:persp3d" />
    <inkscape:perspective
       id="perspective5492"
       inkscape:persp3d-origin="0.5 : 0.33333333 : 1"
       inkscape:vp_z="1 : 0.5 : 1"
       inkscape:vp_y="0 : 1000 : 0"
       inkscape:vp_x="0 : 0.5 : 1"
       sodipodi:type="inkscape:persp3d" />
    <inkscape:perspective
       id="perspective5541"
       inkscape:persp3d-origin="0.5 : 0.33333333 : 1"
       inkscape:vp_z="1 : 0.5 : 1"
       inkscape:vp_y="0 : 1000 : 0"
       inkscape:vp_x="0 : 0.5 : 1"
       sodipodi:type="inkscape:persp3d" />
    <inkscape:perspective
       id="perspective5590"
       inkscape:persp3d-origin="0.5 : 0.33333333 : 1"
       inkscape:vp_z="1 : 0.5 : 1"
       inkscape:vp_y="0 : 1000 : 0"
       inkscape:vp_x="0 : 0.5 : 1"
       sodipodi:type="inkscape:persp3d" />
    <inkscape:perspective
       id="perspective5639"
       inkscape:persp3d-origin="0.5 : 0.33333333 : 1"
       inkscape:vp_z="1 : 0.5 : 1"
       inkscape:vp_y="0 : 1000 : 0"
       inkscape:vp_x="0 : 0.5 : 1"
       sodipodi:type="inkscape:persp3d" />
    <inkscape:perspective
       id="perspective5714"
       inkscape:persp3d-origin="0.5 : 0.33333333 : 1"
       inkscape:vp_z="1 : 0.5 : 1"
       inkscape:vp_y="0 : 1000 : 0"
       inkscape:vp_x="0 : 0.5 : 1"
       sodipodi:type="inkscape:persp3d" />
    <inkscape:perspective
       id="perspective5763"
       inkscape:persp3d-origin="0.5 : 0.33333333 : 1"
       inkscape:vp_z="1 : 0.5 : 1"
       inkscape:vp_y="0 : 1000 : 0"
       inkscape:vp_x="0 : 0.5 : 1"
       sodipodi:type="inkscape:persp3d" />
    <inkscape:perspective
       id="perspective5812"
       inkscape:persp3d-origin="0.5 : 0.33333333 : 1"
       inkscape:vp_z="1 : 0.5 : 1"
       inkscape:vp_y="0 : 1000 : 0"
       inkscape:vp_x="0 : 0.5 : 1"
       sodipodi:type="inkscape:persp3d" />
    <inkscape:perspective
       id="perspective5861"
       inkscape:persp3d-origin="0.5 : 0.33333333 : 1"
       inkscape:vp_z="1 : 0.5 : 1"
       inkscape:vp_y="0 : 1000 : 0"
       inkscape:vp_x="0 : 0.5 : 1"
       sodipodi:type="inkscape:persp3d" />
    <inkscape:perspective
       id="perspective5910"
       inkscape:persp3d-origin="0.5 : 0.33333333 : 1"
       inkscape:vp_z="1 : 0.5 : 1"
       inkscape:vp_y="0 : 1000 : 0"
       inkscape:vp_x="0 : 0.5 : 1"
       sodipodi:type="inkscape:persp3d" />
  </defs>
  <sodipodi:namedview
     id="base"
     pagecolor="#ffffff"
     bordercolor="#666666"
     borderopacity="1.0"
     inkscape:pageopacity="0.0"
     inkscape:pageshadow="2"
     inkscape:zoom="0.97227183"
     inkscape:cx="32"
     inkscape:cy="32"
     inkscape:current-layer="layer1"
     showgrid="true"
     inkscape:document-units="px"
     inkscape:grid-bbox="true"
     inkscape:window-width="447"
     inkscape:window-height="359"
     inkscape:window-x="159"
     inkscape:window-y="147"
     inkscape:window-maximized="0" />
  <metadata
     id="metadata5396">
    <rdf:RDF>
      <cc:Work
         rdf:about="">
        <dc:format>image/svg+xml</dc:format>
        <dc:type
           rdf:resource="http://purl.org/dc/dcmitype/StillImage" />
        <dc:title></dc:title>
      </cc:Work>
    </rdf:RDF>
  </metadata>
  <g
     id="layer1"
     inkscape:label="Layer 1"
     inkscape:groupmode="layer">
    <path
       style="fill:#e9c6af;fill-opacity:1;stroke:#000000;stroke-width:0.33289903px;stroke-linecap:butt;stroke-linejoin:miter;stroke-opacity:1"
       d="m 23.792409,22.583304 c 0.538519,-1.045767 -0.246707,7.511361 -0.01579,8.669652 1.21914,4.902303 1.233729,9.864177 1.509276,14.841102 1.010543,3.651827 -0.733529,7.215533 0.402142,10.847362 -0.696023,2.394965 0.856455,4.896562 3.050276,2.495662 3.986208,-4.556048 4.666847,-10.702517 5.944848,-16.33006 1.086613,-4.058121 1.866898,-8.167565 3.128181,-12.182476 0.977079,-4.041889 -0.467592,-6.064461 0.754646,-10.162614"
       id="path2864"
       sodipodi:nodetypes="cccccccc" />
    <path
       style="fill:#e9c6af;fill-opacity:1;stroke:#000000;stroke-width:0.33289903px;stroke-linecap:butt;stroke-linejoin:miter;stroke-opacity:1"
       d="m 24.056364,22.299185 c 0.249292,0.847771 -0.19194,-0.831754 -0.261814,-1.120538 -0.4406,-2.170403 -1.499319,-4.144709 -2.208581,-6.227565 -0.327658,-1.291552 -0.506239,-2.641347 -0.440007,-3.968303 0.200528,-1.5402694 1.376226,-2.8442092 2.867794,-3.3255223 2.33153,-1.0211936 4.951402,-1.2570473 7.216624,-2.4424566 1.14914,-0.5999088 1.838211,-3.0453081 3.298684,-2.2736136 1.982799,1.0384534 3.782275,2.4993527 4.889362,4.4416826 0.849474,1.1414664 1.477531,2.6462179 0.989576,4.0551079 -0.183446,1.437793 -0.352351,1.948686 -0.347639,3.564521 -0.894494,1.626546 -0.765709,3.579357 -1.614575,5.222964 -0.189689,1.564347 -1.815564,2.258986 -2.94263,3.116812 -1.911275,1.534756 -4.550541,1.511339 -6.885148,1.368139 -1.137099,-0.206185 -2.492458,-0.06826 -3.41903,-0.831252 -0.479603,-0.451556 -0.78526,-1.038819 -1.142616,-1.579976 z"
       id="path2840"
       sodipodi:nodetypes="ccccccccccccccc" />
    <path
       style="fill:#800000;fill-opacity:1;stroke:#000000;stroke-width:0.33289903px;stroke-linecap:butt;stroke-linejoin:miter;stroke-opacity:1"
       d="m 29.505651,46.751039 c 0.679271,-3.406451 0.793514,-6.953685 0.556954,-10.440014 -0.228021,-4.643538 1.478405,-9.244581 -0.116007,-13.751704 -0.64994,-1.870955 -1.04741,-3.941189 -0.675341,-5.912057 0.110883,-1.439933 2.470678,-3.690401 3.158872,-1.416515 0.890176,3.313894 0.191927,6.740277 0.158222,10.1045 -0.13408,2.715684 -0.549543,5.398472 -0.737867,8.110416 -0.22303,2.972691 -0.132775,6.008143 -0.785359,8.90928 -0.361507,4.890218 -2.440773,11.556041 -4.280672,16.1093 0.798809,-6.254097 2.34099,-10.113071 2.721198,-11.713206 z"
       id="path2830"
       sodipodi:nodetypes="cccccccccc" />
  </g>
</svg>
