<?xml version="1.0" encoding="UTF-8" standalone="no"?>
<!-- Created with Inkscape (http://www.inkscape.org/) -->

<svg
   xmlns:dc="http://purl.org/dc/elements/1.1/"
   xmlns:cc="http://creativecommons.org/ns#"
   xmlns:rdf="http://www.w3.org/1999/02/22-rdf-syntax-ns#"
   xmlns:svg="http://www.w3.org/2000/svg"
   xmlns="http://www.w3.org/2000/svg"
   xmlns:sodipodi="http://sodipodi.sourceforge.net/DTD/sodipodi-0.dtd"
   xmlns:inkscape="http://www.inkscape.org/namespaces/inkscape"
   width="64px"
   height="64px"
   id="svg5391"
   version="1.1"
   inkscape:version="0.47 r22583"
   sodipodi:docname="lr3.svg">
  <defs
     id="defs5393">
    <inkscape:perspective
       sodipodi:type="inkscape:persp3d"
       inkscape:vp_x="0 : 32 : 1"
       inkscape:vp_y="0 : 1000 : 0"
       inkscape:vp_z="64 : 32 : 1"
       inkscape:persp3d-origin="32 : 21.333333 : 1"
       id="perspective5399" />
    <inkscape:perspective
       id="perspective5384"
       inkscape:persp3d-origin="0.5 : 0.33333333 : 1"
       inkscape:vp_z="1 : 0.5 : 1"
       inkscape:vp_y="0 : 1000 : 0"
       inkscape:vp_x="0 : 0.5 : 1"
       sodipodi:type="inkscape:persp3d" />
    <inkscape:perspective
       id="perspective5443"
       inkscape:persp3d-origin="0.5 : 0.33333333 : 1"
       inkscape:vp_z="1 : 0.5 : 1"
       inkscape:vp_y="0 : 1000 : 0"
       inkscape:vp_x="0 : 0.5 : 1"
       sodipodi:type="inkscape:persp3d" />
    <inkscape:perspective
       id="perspective5492"
       inkscape:persp3d-origin="0.5 : 0.33333333 : 1"
       inkscape:vp_z="1 : 0.5 : 1"
       inkscape:vp_y="0 : 1000 : 0"
       inkscape:vp_x="0 : 0.5 : 1"
       sodipodi:type="inkscape:persp3d" />
    <inkscape:perspective
       id="perspective5541"
       inkscape:persp3d-origin="0.5 : 0.33333333 : 1"
       inkscape:vp_z="1 : 0.5 : 1"
       inkscape:vp_y="0 : 1000 : 0"
       inkscape:vp_x="0 : 0.5 : 1"
       sodipodi:type="inkscape:persp3d" />
    <inkscape:perspective
       id="perspective5590"
       inkscape:persp3d-origin="0.5 : 0.33333333 : 1"
       inkscape:vp_z="1 : 0.5 : 1"
       inkscape:vp_y="0 : 1000 : 0"
       inkscape:vp_x="0 : 0.5 : 1"
       sodipodi:type="inkscape:persp3d" />
    <inkscape:perspective
       id="perspective5639"
       inkscape:persp3d-origin="0.5 : 0.33333333 : 1"
       inkscape:vp_z="1 : 0.5 : 1"
       inkscape:vp_y="0 : 1000 : 0"
       inkscape:vp_x="0 : 0.5 : 1"
       sodipodi:type="inkscape:persp3d" />
    <inkscape:perspective
       id="perspective5714"
       inkscape:persp3d-origin="0.5 : 0.33333333 : 1"
       inkscape:vp_z="1 : 0.5 : 1"
       inkscape:vp_y="0 : 1000 : 0"
       inkscape:vp_x="0 : 0.5 : 1"
       sodipodi:type="inkscape:persp3d" />
    <inkscape:perspective
       id="perspective5763"
       inkscape:persp3d-origin="0.5 : 0.33333333 : 1"
       inkscape:vp_z="1 : 0.5 : 1"
       inkscape:vp_y="0 : 1000 : 0"
       inkscape:vp_x="0 : 0.5 : 1"
       sodipodi:type="inkscape:persp3d" />
    <inkscape:perspective
       id="perspective5812"
       inkscape:persp3d-origin="0.5 : 0.33333333 : 1"
       inkscape:vp_z="1 : 0.5 : 1"
       inkscape:vp_y="0 : 1000 : 0"
       inkscape:vp_x="0 : 0.5 : 1"
       sodipodi:type="inkscape:persp3d" />
    <inkscape:perspective
       id="perspective5861"
       inkscape:persp3d-origin="0.5 : 0.33333333 : 1"
       inkscape:vp_z="1 : 0.5 : 1"
       inkscape:vp_y="0 : 1000 : 0"
       inkscape:vp_x="0 : 0.5 : 1"
       sodipodi:type="inkscape:persp3d" />
    <inkscape:perspective
       id="perspective5910"
       inkscape:persp3d-origin="0.5 : 0.33333333 : 1"
       inkscape:vp_z="1 : 0.5 : 1"
       inkscape:vp_y="0 : 1000 : 0"
       inkscape:vp_x="0 : 0.5 : 1"
       sodipodi:type="inkscape:persp3d" />
    <inkscape:perspective
       id="perspective5959"
       inkscape:persp3d-origin="0.5 : 0.33333333 : 1"
       inkscape:vp_z="1 : 0.5 : 1"
       inkscape:vp_y="0 : 1000 : 0"
       inkscape:vp_x="0 : 0.5 : 1"
       sodipodi:type="inkscape:persp3d" />
  </defs>
  <sodipodi:namedview
     id="base"
     pagecolor="#ffffff"
     bordercolor="#666666"
     borderopacity="1.0"
     inkscape:pageopacity="0.0"
     inkscape:pageshadow="2"
     inkscape:zoom="0.97227183"
     inkscape:cx="32"
     inkscape:cy="32"
     inkscape:current-layer="layer1"
     showgrid="true"
     inkscape:document-units="px"
     inkscape:grid-bbox="true"
     inkscape:window-width="447"
     inkscape:window-height="359"
     inkscape:window-x="159"
     inkscape:window-y="147"
     inkscape:window-maximized="0" />
  <metadata
     id="metadata5396">
    <rdf:RDF>
      <cc:Work
         rdf:about="">
        <dc:format>image/svg+xml</dc:format>
        <dc:type
           rdf:resource="http://purl.org/dc/dcmitype/StillImage" />
        <dc:title></dc:title>
      </cc:Work>
    </rdf:RDF>
  </metadata>
  <g
     id="layer1"
     inkscape:label="Layer 1"
     inkscape:groupmode="layer">
    <path
       style="fill:#e9c6af;fill-opacity:1;stroke:#000000;stroke-width:0.36020321px;stroke-linecap:butt;stroke-linejoin:miter;stroke-opacity:1"
       d="m 30.498802,21.80688 c -0.513271,-0.883837 -0.572201,7.132263 -0.41636,8.195237 0.819951,3.941107 1.712288,7.909423 1.241355,11.958968 -0.414318,4.373176 1.730535,8.653964 0.253601,12.973196 -1.722382,3.12785 0.1695,8.036574 3.358476,3.933692 2.638775,-2.853493 3.943367,-6.749909 4.481065,-10.516252 0.989115,-4.235178 1.3128,-8.756375 1.639846,-13.153692 1.043414,-3.439037 0.803254,-6.949302 0.842316,-10.461814 0.183686,-1.119256 0.618398,-2.190051 1.225248,-3.151863"
       id="path2862"
       sodipodi:nodetypes="ccccccccc" />
    <path
       style="fill:#e9c6af;fill-opacity:1;stroke:#000000;stroke-width:0.36020321px;stroke-linecap:butt;stroke-linejoin:miter;stroke-opacity:1"
       d="m 29.462621,18.27194 c -0.187467,-2.473003 -1.934635,-4.225464 -2.594227,-6.522296 -1.593916,-2.9029332 1.062159,-5.1937207 3.165796,-6.8774329 2.415894,0.082583 4.573087,-0.9825136 6.781395,-2.1018746 1.812888,0.1750486 3.619709,2.0331486 5.678475,2.3548621 3.086052,1.0666287 3.728196,4.8848234 2.603319,7.5597734 -0.904466,2.539423 -1.359726,5.16686 -2.261379,7.711398 -0.705185,2.214432 -3.470175,2.230017 -5.420251,2.499682 -2.185479,-0.395627 -4.779419,0.700321 -6.647736,-0.833081 -0.833042,-1.323746 -0.548727,-0.936329 -1.305392,-3.791031 z"
       id="path2842"
       sodipodi:nodetypes="cccccccccc" />
    <path
       style="fill:#800000;fill-opacity:1;stroke:#000000;stroke-width:0.36020321px;stroke-linecap:butt;stroke-linejoin:miter;stroke-opacity:1"
       d="m 32.78759,57.932836 c -0.05486,1.143517 0.984429,-1.913278 1.108988,-2.494303 0.23769,-2.386417 0.403809,-4.415028 0.869718,-6.763658 0.332876,-1.515825 0.705915,-3.475983 0.784102,-5.010215 -0.145633,-3.96689 0.253995,-7.397111 -0.330174,-11.319664 -0.637045,-2.319029 -0.932605,-4.726615 -0.886535,-7.12741 1.097615,-3.051255 -0.357521,-6.196691 -0.201954,-9.289003 0.104453,-1.457218 2.223903,-2.565294 3.253398,-1.248404 0.67335,1.515657 -0.0042,3.270079 0.09474,4.886893 -0.217149,2.212423 -0.153533,4.438742 -0.269091,6.650924 -0.326878,2.99485 -1.078092,6.101767 -0.110564,9.059553 0.328309,3.421162 1.214914,7.091817 -0.449304,10.32878 -0.897942,2.514814 -1.109338,5.210839 -1.910488,7.746497 -0.311619,1.633873 -1.031165,3.192654 -1.95284,4.58001 z"
       id="path2826"
       sodipodi:nodetypes="cccccccccccccc" />
  </g>
</svg>
