<?xml version="1.0" encoding="UTF-8" standalone="no"?>
<!-- Created with Inkscape (http://www.inkscape.org/) -->

<svg
   xmlns:dc="http://purl.org/dc/elements/1.1/"
   xmlns:cc="http://creativecommons.org/ns#"
   xmlns:rdf="http://www.w3.org/1999/02/22-rdf-syntax-ns#"
   xmlns:svg="http://www.w3.org/2000/svg"
   xmlns="http://www.w3.org/2000/svg"
   xmlns:sodipodi="http://sodipodi.sourceforge.net/DTD/sodipodi-0.dtd"
   xmlns:inkscape="http://www.inkscape.org/namespaces/inkscape"
   width="64px"
   height="64px"
   id="svg5391"
   version="1.1"
   inkscape:version="0.47 r22583"
   sodipodi:docname="lr6.svg">
  <defs
     id="defs5393">
    <inkscape:perspective
       sodipodi:type="inkscape:persp3d"
       inkscape:vp_x="0 : 32 : 1"
       inkscape:vp_y="0 : 1000 : 0"
       inkscape:vp_z="64 : 32 : 1"
       inkscape:persp3d-origin="32 : 21.333333 : 1"
       id="perspective5399" />
    <inkscape:perspective
       id="perspective5384"
       inkscape:persp3d-origin="0.5 : 0.33333333 : 1"
       inkscape:vp_z="1 : 0.5 : 1"
       inkscape:vp_y="0 : 1000 : 0"
       inkscape:vp_x="0 : 0.5 : 1"
       sodipodi:type="inkscape:persp3d" />
    <inkscape:perspective
       id="perspective5443"
       inkscape:persp3d-origin="0.5 : 0.33333333 : 1"
       inkscape:vp_z="1 : 0.5 : 1"
       inkscape:vp_y="0 : 1000 : 0"
       inkscape:vp_x="0 : 0.5 : 1"
       sodipodi:type="inkscape:persp3d" />
    <inkscape:perspective
       id="perspective5492"
       inkscape:persp3d-origin="0.5 : 0.33333333 : 1"
       inkscape:vp_z="1 : 0.5 : 1"
       inkscape:vp_y="0 : 1000 : 0"
       inkscape:vp_x="0 : 0.5 : 1"
       sodipodi:type="inkscape:persp3d" />
    <inkscape:perspective
       id="perspective5541"
       inkscape:persp3d-origin="0.5 : 0.33333333 : 1"
       inkscape:vp_z="1 : 0.5 : 1"
       inkscape:vp_y="0 : 1000 : 0"
       inkscape:vp_x="0 : 0.5 : 1"
       sodipodi:type="inkscape:persp3d" />
    <inkscape:perspective
       id="perspective5590"
       inkscape:persp3d-origin="0.5 : 0.33333333 : 1"
       inkscape:vp_z="1 : 0.5 : 1"
       inkscape:vp_y="0 : 1000 : 0"
       inkscape:vp_x="0 : 0.5 : 1"
       sodipodi:type="inkscape:persp3d" />
    <inkscape:perspective
       id="perspective5639"
       inkscape:persp3d-origin="0.5 : 0.33333333 : 1"
       inkscape:vp_z="1 : 0.5 : 1"
       inkscape:vp_y="0 : 1000 : 0"
       inkscape:vp_x="0 : 0.5 : 1"
       sodipodi:type="inkscape:persp3d" />
    <inkscape:perspective
       id="perspective5714"
       inkscape:persp3d-origin="0.5 : 0.33333333 : 1"
       inkscape:vp_z="1 : 0.5 : 1"
       inkscape:vp_y="0 : 1000 : 0"
       inkscape:vp_x="0 : 0.5 : 1"
       sodipodi:type="inkscape:persp3d" />
    <inkscape:perspective
       id="perspective5763"
       inkscape:persp3d-origin="0.5 : 0.33333333 : 1"
       inkscape:vp_z="1 : 0.5 : 1"
       inkscape:vp_y="0 : 1000 : 0"
       inkscape:vp_x="0 : 0.5 : 1"
       sodipodi:type="inkscape:persp3d" />
    <inkscape:perspective
       id="perspective5812"
       inkscape:persp3d-origin="0.5 : 0.33333333 : 1"
       inkscape:vp_z="1 : 0.5 : 1"
       inkscape:vp_y="0 : 1000 : 0"
       inkscape:vp_x="0 : 0.5 : 1"
       sodipodi:type="inkscape:persp3d" />
    <inkscape:perspective
       id="perspective5861"
       inkscape:persp3d-origin="0.5 : 0.33333333 : 1"
       inkscape:vp_z="1 : 0.5 : 1"
       inkscape:vp_y="0 : 1000 : 0"
       inkscape:vp_x="0 : 0.5 : 1"
       sodipodi:type="inkscape:persp3d" />
    <inkscape:perspective
       id="perspective5910"
       inkscape:persp3d-origin="0.5 : 0.33333333 : 1"
       inkscape:vp_z="1 : 0.5 : 1"
       inkscape:vp_y="0 : 1000 : 0"
       inkscape:vp_x="0 : 0.5 : 1"
       sodipodi:type="inkscape:persp3d" />
    <inkscape:perspective
       id="perspective5959"
       inkscape:persp3d-origin="0.5 : 0.33333333 : 1"
       inkscape:vp_z="1 : 0.5 : 1"
       inkscape:vp_y="0 : 1000 : 0"
       inkscape:vp_x="0 : 0.5 : 1"
       sodipodi:type="inkscape:persp3d" />
    <inkscape:perspective
       id="perspective6034"
       inkscape:persp3d-origin="0.5 : 0.33333333 : 1"
       inkscape:vp_z="1 : 0.5 : 1"
       inkscape:vp_y="0 : 1000 : 0"
       inkscape:vp_x="0 : 0.5 : 1"
       sodipodi:type="inkscape:persp3d" />
    <inkscape:perspective
       id="perspective6083"
       inkscape:persp3d-origin="0.5 : 0.33333333 : 1"
       inkscape:vp_z="1 : 0.5 : 1"
       inkscape:vp_y="0 : 1000 : 0"
       inkscape:vp_x="0 : 0.5 : 1"
       sodipodi:type="inkscape:persp3d" />
    <inkscape:perspective
       id="perspective6132"
       inkscape:persp3d-origin="0.5 : 0.33333333 : 1"
       inkscape:vp_z="1 : 0.5 : 1"
       inkscape:vp_y="0 : 1000 : 0"
       inkscape:vp_x="0 : 0.5 : 1"
       sodipodi:type="inkscape:persp3d" />
  </defs>
  <sodipodi:namedview
     id="base"
     pagecolor="#ffffff"
     bordercolor="#666666"
     borderopacity="1.0"
     inkscape:pageopacity="0.0"
     inkscape:pageshadow="2"
     inkscape:zoom="0.97227183"
     inkscape:cx="32"
     inkscape:cy="32"
     inkscape:current-layer="layer1"
     showgrid="true"
     inkscape:document-units="px"
     inkscape:grid-bbox="true"
     inkscape:window-width="447"
     inkscape:window-height="359"
     inkscape:window-x="903"
     inkscape:window-y="145"
     inkscape:window-maximized="0" />
  <metadata
     id="metadata5396">
    <rdf:RDF>
      <cc:Work
         rdf:about="">
        <dc:format>image/svg+xml</dc:format>
        <dc:type
           rdf:resource="http://purl.org/dc/dcmitype/StillImage" />
        <dc:title></dc:title>
      </cc:Work>
    </rdf:RDF>
  </metadata>
  <g
     id="layer1"
     inkscape:label="Layer 1"
     inkscape:groupmode="layer">
    <path
       style="fill:#e9c6af;fill-opacity:1;stroke:#000000;stroke-width:0.42676872px;stroke-linecap:butt;stroke-linejoin:miter;stroke-opacity:1"
       d="m 19.213217,22.046178 c -1.049394,5.812043 0.337233,14.422126 -2.132089,19.981019 -0.612891,4.13121 -2.186082,7.975793 -3.856569,11.804907 -2.809695,5.742143 4.759556,2.110169 6.441782,-0.134077 5.066504,-3.056606 8.721923,-7.702417 11.422424,-12.805452 1.082442,-2.207579 2.238202,-2.961165 1.017392,-0.118151 -0.610385,4.298533 0.378627,9.339617 -1.748983,12.967699 -1.356033,2.312981 -4.340049,9.884061 0.948258,7.780326 3.928276,-2.455623 6.505966,-6.275428 8.346289,-10.371868 3.413328,-5.491501 5.502612,-11.832101 5.531025,-18.283533 0.312755,-3.54411 0.355465,-6.672677 2.383368,-9.736878"
       id="path2856"
       sodipodi:nodetypes="ccccccscccc" />
    <path
       style="fill:#e9c6af;fill-opacity:1;stroke:#000000;stroke-width:0.42676872px;stroke-linecap:butt;stroke-linejoin:miter;stroke-opacity:1"
       d="m 18.594554,18.910682 c -1.293235,-2.957841 -2.720111,-6.364153 -0.555821,-9.3253365 1.063032,-2.9084063 4.335696,-4.1440562 7.273643,-3.5999069 2.298403,0.6313669 2.808137,-1.6153375 5.98686,-0.1857446 4.481953,-1.7798785 6.750518,-0.9096788 9.992613,-0.502035 3.305394,-1.3336584 7.911165,-1.5466272 9.775368,1.9576016 0.620664,3.6021764 -1.995149,6.8207544 -1.828239,10.4836994 -0.3906,3.253336 -1.684237,7.007664 -5.416315,7.712505 -3.100018,1.228166 -6.630764,0.960864 -9.939493,0.950964 -3.047577,0.553787 -6.022455,-0.742515 -9.083111,-0.713149 -1.358069,-0.17482 -2.792861,-1.160218 -3.93239,-2.440379 -1.105184,-1.241579 -2.059996,-3.010002 -2.270359,-4.335578"
       id="path2848"
       sodipodi:nodetypes="ccccccccccsc" />
    <path
       style="fill:#800000;fill-opacity:1;stroke:#000000;stroke-width:0.42676872px;stroke-linecap:butt;stroke-linejoin:miter;stroke-opacity:1"
       d="m 15.100493,54.980091 c -1.746951,1.224884 3.377815,-3.539736 3.569938,-5.142746 2.337912,-2.67177 4.583241,-5.406766 4.905219,-9.047067 1.217164,-4.090236 1.617534,-7.847809 2.301118,-12.024123 0.242883,-3.000473 -3.619059,-7.994386 1.473143,-7.979294 2.655173,-0.690433 5.171649,2.114499 8.159295,0.688798 1.291176,0.358856 4.062967,-1.936117 6.336391,-0.86158 1.919149,4.858029 -1.739763,8.059235 -2.347822,12.51605 -0.904369,5.023143 0.03112,10.404179 -1.504674,15.272017 -1.835841,3.699661 -2.46953,8.076139 -5.823214,10.979635 -2.995586,2.233668 2.312017,-3.18448 2.278444,-4.96057 1.892376,-4.638821 3.890826,-9.279739 3.58075,-14.469443 -0.595731,-3.569261 -2.166549,-11.040006 -7.018259,-8.794058 -2.879021,3.228143 -3.691121,7.633157 -6.016371,11.275124 -2.198917,4.267764 -4.359044,7.561049 -7.247413,11.447344 -0.01513,0.09626 -3.856822,2.229728 -2.646545,1.099913 z"
       id="path2820"
       sodipodi:nodetypes="cccccccccccccccc" />
  </g>
</svg>
