<?xml version="1.0" encoding="UTF-8" standalone="no"?>
<!-- Created with Inkscape (http://www.inkscape.org/) -->

<svg
   xmlns:dc="http://purl.org/dc/elements/1.1/"
   xmlns:cc="http://creativecommons.org/ns#"
   xmlns:rdf="http://www.w3.org/1999/02/22-rdf-syntax-ns#"
   xmlns:svg="http://www.w3.org/2000/svg"
   xmlns="http://www.w3.org/2000/svg"
   xmlns:sodipodi="http://sodipodi.sourceforge.net/DTD/sodipodi-0.dtd"
   xmlns:inkscape="http://www.inkscape.org/namespaces/inkscape"
   width="64px"
   height="64px"
   id="svg5391"
   version="1.1"
   inkscape:version="0.47 r22583"
   sodipodi:docname="lr7.svg">
  <defs
     id="defs5393">
    <inkscape:perspective
       sodipodi:type="inkscape:persp3d"
       inkscape:vp_x="0 : 32 : 1"
       inkscape:vp_y="0 : 1000 : 0"
       inkscape:vp_z="64 : 32 : 1"
       inkscape:persp3d-origin="32 : 21.333333 : 1"
       id="perspective5399" />
    <inkscape:perspective
       id="perspective5384"
       inkscape:persp3d-origin="0.5 : 0.33333333 : 1"
       inkscape:vp_z="1 : 0.5 : 1"
       inkscape:vp_y="0 : 1000 : 0"
       inkscape:vp_x="0 : 0.5 : 1"
       sodipodi:type="inkscape:persp3d" />
    <inkscape:perspective
       id="perspective5443"
       inkscape:persp3d-origin="0.5 : 0.33333333 : 1"
       inkscape:vp_z="1 : 0.5 : 1"
       inkscape:vp_y="0 : 1000 : 0"
       inkscape:vp_x="0 : 0.5 : 1"
       sodipodi:type="inkscape:persp3d" />
    <inkscape:perspective
       id="perspective5492"
       inkscape:persp3d-origin="0.5 : 0.33333333 : 1"
       inkscape:vp_z="1 : 0.5 : 1"
       inkscape:vp_y="0 : 1000 : 0"
       inkscape:vp_x="0 : 0.5 : 1"
       sodipodi:type="inkscape:persp3d" />
    <inkscape:perspective
       id="perspective5541"
       inkscape:persp3d-origin="0.5 : 0.33333333 : 1"
       inkscape:vp_z="1 : 0.5 : 1"
       inkscape:vp_y="0 : 1000 : 0"
       inkscape:vp_x="0 : 0.5 : 1"
       sodipodi:type="inkscape:persp3d" />
    <inkscape:perspective
       id="perspective5590"
       inkscape:persp3d-origin="0.5 : 0.33333333 : 1"
       inkscape:vp_z="1 : 0.5 : 1"
       inkscape:vp_y="0 : 1000 : 0"
       inkscape:vp_x="0 : 0.5 : 1"
       sodipodi:type="inkscape:persp3d" />
    <inkscape:perspective
       id="perspective5639"
       inkscape:persp3d-origin="0.5 : 0.33333333 : 1"
       inkscape:vp_z="1 : 0.5 : 1"
       inkscape:vp_y="0 : 1000 : 0"
       inkscape:vp_x="0 : 0.5 : 1"
       sodipodi:type="inkscape:persp3d" />
    <inkscape:perspective
       id="perspective5714"
       inkscape:persp3d-origin="0.5 : 0.33333333 : 1"
       inkscape:vp_z="1 : 0.5 : 1"
       inkscape:vp_y="0 : 1000 : 0"
       inkscape:vp_x="0 : 0.5 : 1"
       sodipodi:type="inkscape:persp3d" />
    <inkscape:perspective
       id="perspective5763"
       inkscape:persp3d-origin="0.5 : 0.33333333 : 1"
       inkscape:vp_z="1 : 0.5 : 1"
       inkscape:vp_y="0 : 1000 : 0"
       inkscape:vp_x="0 : 0.5 : 1"
       sodipodi:type="inkscape:persp3d" />
    <inkscape:perspective
       id="perspective5812"
       inkscape:persp3d-origin="0.5 : 0.33333333 : 1"
       inkscape:vp_z="1 : 0.5 : 1"
       inkscape:vp_y="0 : 1000 : 0"
       inkscape:vp_x="0 : 0.5 : 1"
       sodipodi:type="inkscape:persp3d" />
    <inkscape:perspective
       id="perspective5861"
       inkscape:persp3d-origin="0.5 : 0.33333333 : 1"
       inkscape:vp_z="1 : 0.5 : 1"
       inkscape:vp_y="0 : 1000 : 0"
       inkscape:vp_x="0 : 0.5 : 1"
       sodipodi:type="inkscape:persp3d" />
    <inkscape:perspective
       id="perspective5910"
       inkscape:persp3d-origin="0.5 : 0.33333333 : 1"
       inkscape:vp_z="1 : 0.5 : 1"
       inkscape:vp_y="0 : 1000 : 0"
       inkscape:vp_x="0 : 0.5 : 1"
       sodipodi:type="inkscape:persp3d" />
    <inkscape:perspective
       id="perspective5959"
       inkscape:persp3d-origin="0.5 : 0.33333333 : 1"
       inkscape:vp_z="1 : 0.5 : 1"
       inkscape:vp_y="0 : 1000 : 0"
       inkscape:vp_x="0 : 0.5 : 1"
       sodipodi:type="inkscape:persp3d" />
    <inkscape:perspective
       id="perspective6034"
       inkscape:persp3d-origin="0.5 : 0.33333333 : 1"
       inkscape:vp_z="1 : 0.5 : 1"
       inkscape:vp_y="0 : 1000 : 0"
       inkscape:vp_x="0 : 0.5 : 1"
       sodipodi:type="inkscape:persp3d" />
    <inkscape:perspective
       id="perspective6083"
       inkscape:persp3d-origin="0.5 : 0.33333333 : 1"
       inkscape:vp_z="1 : 0.5 : 1"
       inkscape:vp_y="0 : 1000 : 0"
       inkscape:vp_x="0 : 0.5 : 1"
       sodipodi:type="inkscape:persp3d" />
    <inkscape:perspective
       id="perspective6132"
       inkscape:persp3d-origin="0.5 : 0.33333333 : 1"
       inkscape:vp_z="1 : 0.5 : 1"
       inkscape:vp_y="0 : 1000 : 0"
       inkscape:vp_x="0 : 0.5 : 1"
       sodipodi:type="inkscape:persp3d" />
    <inkscape:perspective
       id="perspective6181"
       inkscape:persp3d-origin="0.5 : 0.33333333 : 1"
       inkscape:vp_z="1 : 0.5 : 1"
       inkscape:vp_y="0 : 1000 : 0"
       inkscape:vp_x="0 : 0.5 : 1"
       sodipodi:type="inkscape:persp3d" />
  </defs>
  <sodipodi:namedview
     id="base"
     pagecolor="#ffffff"
     bordercolor="#666666"
     borderopacity="1.0"
     inkscape:pageopacity="0.0"
     inkscape:pageshadow="2"
     inkscape:zoom="0.97227183"
     inkscape:cx="32"
     inkscape:cy="32"
     inkscape:current-layer="layer1"
     showgrid="true"
     inkscape:document-units="px"
     inkscape:grid-bbox="true"
     inkscape:window-width="447"
     inkscape:window-height="359"
     inkscape:window-x="903"
     inkscape:window-y="145"
     inkscape:window-maximized="0" />
  <metadata
     id="metadata5396">
    <rdf:RDF>
      <cc:Work
         rdf:about="">
        <dc:format>image/svg+xml</dc:format>
        <dc:type
           rdf:resource="http://purl.org/dc/dcmitype/StillImage" />
        <dc:title></dc:title>
      </cc:Work>
    </rdf:RDF>
  </metadata>
  <g
     id="layer1"
     inkscape:label="Layer 1"
     inkscape:groupmode="layer">
    <path
       style="fill:#e9c6af;fill-opacity:1;stroke:#000000;stroke-width:0.48028323px;stroke-linecap:butt;stroke-linejoin:miter;stroke-opacity:1"
       d="m 20.011002,22.713103 c 0.2031,-1.024841 -0.01301,5.409197 -0.176687,5.906479 -0.447841,1.55787 -1.081757,3.059522 -1.193232,4.69553 -0.61382,4.695517 -0.128982,9.756756 -2.617173,14.016862 -0.706764,1.717079 -1.528726,3.68869 -0.909875,5.540604 0.840888,1.45426 1.744925,-0.157571 2.855145,-0.707702 3.956166,-1.904103 8.068052,-4.531858 10.831879,-7.890606 0.937,-1.522013 2.01918,-2.876079 3.400583,-4.078234 1.139375,2.255264 -4.885961,6.432607 -6.668375,8.16849 -2.554941,1.132165 -10.165331,4.610076 -3.613123,5.315899 3.718276,-0.236844 7.58992,-0.950501 10.565868,-3.303796 1.851324,-1.297767 3.255586,-3.077149 4.774485,-4.698125 2.950683,-2.4916 6.453253,-4.874189 7.710868,-8.67154 0.428875,-1.48291 0.422634,-3.037361 0.562312,-4.562028 0.06215,-2.023987 -0.290189,-4.135531 0.447823,-6.080393"
       id="lr8_root"
       sodipodi:nodetypes="ccccccccccccccc"
       inkscape:label="lr8_root" />
    <path
       style="fill:#e9c6af;fill-opacity:1;stroke:#000000;stroke-width:0.48028323px;stroke-linecap:butt;stroke-linejoin:miter;stroke-opacity:1"
       d="m 19.798114,22.372336 c -0.769224,-3.642032 -0.994508,-9.36731 -1.640317,-13.0256695 -0.165561,-1.9298797 1.928857,-2.9000951 3.573031,-3.142388 1.652933,-0.2858598 3.278178,-0.6267558 4.838671,0.00596 1.986216,0.08215 4.173142,-1.3268441 5.990217,0.00655 0.880394,1.2231388 2.608003,1.2478067 3.903817,0.6607697 1.598913,-0.5599725 3.17453,-1.9170848 4.955531,-1.3201984 1.093353,1.2048265 2.671738,0.2725693 4.087095,0.861043 3.764949,1.041247 6.522859,5.3948672 4.993189,9.0984062 -1.771203,2.662714 -1.958713,5.94153 -3.272616,8.794104 -0.577588,1.698089 -2.575798,2.18096 -4.188917,1.83111 -1.818454,-0.527455 -3.638507,0.150858 -5.425571,-0.112236 -2.872307,-0.490583 -5.876499,-1.000252 -8.59812,-1.98732 -2.977547,-0.104227 -6.240544,-1.158231 -9.199192,-1.405904"
       id="path2850"
       sodipodi:nodetypes="cccccccccccccc" />
    <path
       style="fill:#800000;fill-opacity:1;stroke:#000000;stroke-width:0.48028323px;stroke-linecap:butt;stroke-linejoin:miter;stroke-opacity:1"
       d="m 21.874326,51.995696 c 1.841724,-0.3196 8.865317,-4.669315 12.566204,-7.590898 3.354877,-2.285451 4.977596,-6.123325 5.358776,-9.992119 0.838025,-3.505019 -1.385369,-7.103027 0.626342,-10.523197 0.838261,-1.879379 1.22819,-4.297743 -1.168307,-2.454471 -1.605557,-3.320775 -4.901242,2.796193 -7.407286,-0.508243 -2.057108,-2.057518 -4.091027,1.230965 -5.600213,-1.936251 -1.487269,-0.882011 0.312372,3.700657 -0.995275,4.978913 -1.62431,5.101192 -1.529414,10.523311 -2.477144,15.75323 -0.12528,4.138977 -1.466838,8.511276 -5.145425,10.929236 -1.940428,0.8399 -2.921632,2.599745 0.06752,1.161797 2.719688,-1.14313 4.469436,-3.954016 6.500903,-7.303871 1.560861,-3.590661 2.788267,-7.334794 3.432182,-11.180795 0.541384,-3.457298 5.590594,-6.045955 7.990282,-2.713083 1.779254,3.256678 1.560284,7.832969 -0.09741,11.102708 -2.148144,3.319666 -5.565174,5.073145 -9.22126,6.826635 -1.594533,0.91721 -2.488775,3.465105 -4.429887,3.450409 z"
       id="lr8_pulp"
       sodipodi:nodetypes="ccccccccccccccccc"
       inkscape:label="lr8_pulp" />
  </g>
</svg>
