<?xml version="1.0" encoding="UTF-8" standalone="no"?>
<!-- Created with Inkscape (http://www.inkscape.org/) -->

<svg
   xmlns:dc="http://purl.org/dc/elements/1.1/"
   xmlns:cc="http://creativecommons.org/ns#"
   xmlns:rdf="http://www.w3.org/1999/02/22-rdf-syntax-ns#"
   xmlns:svg="http://www.w3.org/2000/svg"
   xmlns="http://www.w3.org/2000/svg"
   xmlns:sodipodi="http://sodipodi.sourceforge.net/DTD/sodipodi-0.dtd"
   xmlns:inkscape="http://www.inkscape.org/namespaces/inkscape"
   width="702.65686"
   height="451.09378"
   id="svg2"
   version="1.1"
   inkscape:version="0.47 r22583"
   sodipodi:docname="teeth.svg">
  <defs
     id="defs4">
    <linearGradient
       id="linearGradient5330">
      <stop
         style="stop-color:#5a0000;stop-opacity:1;"
         offset="0"
         id="stop5332" />
      <stop
         id="stop5374"
         offset="0.0625"
         style="stop-color:#810000;stop-opacity:0.9372549;" />
      <stop
         id="stop5372"
         offset="0.125"
         style="stop-color:#a80000;stop-opacity:0.8745098;" />
      <stop
         id="stop5370"
         offset="0.25"
         style="stop-color:#c00000;stop-opacity:0.74901961;" />
      <stop
         id="stop5368"
         offset="0.5"
         style="stop-color:#ab0000;stop-opacity:0.49803922;" />
      <stop
         style="stop-color:#800000;stop-opacity:0;"
         offset="1"
         id="stop5334" />
    </linearGradient>
    <linearGradient
       id="linearGradient5795">
      <stop
         id="stop5833"
         offset="0"
         style="stop-color:#ff0000;stop-opacity:0.49803922;" />
      <stop
         style="stop-color:#ff0000;stop-opacity:0.24705882;"
         offset="0.5"
         id="stop5835" />
      <stop
         style="stop-color:#ff0000;stop-opacity:0;"
         offset="1"
         id="stop5799" />
    </linearGradient>
    <inkscape:perspective
       sodipodi:type="inkscape:persp3d"
       inkscape:vp_x="0 : 526.18109 : 1"
       inkscape:vp_y="0 : 1000 : 0"
       inkscape:vp_z="744.09448 : 526.18109 : 1"
       inkscape:persp3d-origin="372.04724 : 350.78739 : 1"
       id="perspective10" />
  </defs>
  <sodipodi:namedview
     id="base"
     pagecolor="#ffffff"
     bordercolor="#666666"
     borderopacity="1.0"
     inkscape:pageopacity="0.0"
     inkscape:pageshadow="2"
     inkscape:zoom="0.84852814"
     inkscape:cx="207.0086"
     inkscape:cy="236.2315"
     inkscape:document-units="px"
     inkscape:current-layer="layer2"
     showgrid="false"
     inkscape:window-width="1338"
     inkscape:window-height="701"
     inkscape:window-x="0"
     inkscape:window-y="25"
     inkscape:window-maximized="0" />
  <metadata
     id="metadata7">
    <rdf:RDF>
      <cc:Work
         rdf:about="">
        <dc:format>image/svg+xml</dc:format>
        <dc:type
           rdf:resource="http://purl.org/dc/dcmitype/StillImage" />
        <dc:title />
      </cc:Work>
    </rdf:RDF>
  </metadata>
  <g
     inkscape:groupmode="layer"
     id="layer3"
     inkscape:label="roots"
     transform="translate(-22.552991,-39.238964)">
    <path
       style="fill:#e9c6af;fill-opacity:1;stroke:#000000;stroke-width:1.26048826999999997px;stroke-linecap:butt;stroke-linejoin:miter;stroke-opacity:1"
       d="m 42.385061,333.72695 c 0.533031,-2.68966 -0.03413,14.19627 -0.463708,15.50137 -1.175345,4.08858 -2.839037,8.02962 -3.1316,12.32327 -1.610949,12.32324 -0.338508,25.6063 -6.868689,36.78682 -1.85488,4.50642 -4.012092,9.68085 -2.387937,14.54114 2.206884,3.81666 4.579503,-0.41354 7.493239,-1.85734 10.382831,-4.99726 21.174347,-11.89372 28.427922,-20.70865 2.459129,-3.99448 5.299277,-7.54818 8.924727,-10.7032 2.990253,5.91887 -12.823054,16.88218 -17.500942,21.43795 -6.705363,2.97133 -26.678591,12.099 -9.482527,13.95141 9.758498,-0.62159 19.919505,-2.49456 27.729789,-8.67071 4.85874,-3.40595 8.54418,-8.07588 12.530485,-12.33008 7.743975,-6.53913 16.93636,-12.79216 20.23693,-22.75819 1.12557,-3.89185 1.10919,-7.97146 1.47577,-11.9729 0.16311,-5.31189 -0.76159,-10.85357 1.1753,-15.9578"
       id="lr8_root"
       sodipodi:nodetypes="ccccccccccccccc"
       inkscape:label="lr8_root" />
    <path
       style="fill:#e9c6af;fill-opacity:1;stroke:#000000;stroke-width:1.26048826999999997px;stroke-linecap:butt;stroke-linejoin:miter;stroke-opacity:1"
       d="m 133.20162,342.19075 c -3.09945,17.16622 0.99604,42.59665 -6.29726,59.01519 -1.81021,12.20178 -6.45673,23.55701 -11.39062,34.86653 -8.29861,16.95978 14.05765,6.23251 19.02621,-0.39601 14.96424,-9.02787 25.76075,-22.74956 33.73685,-37.82171 3.19706,-6.52021 6.61067,-8.74598 3.00493,-0.34895 -1.80281,12.69597 1.1183,27.58514 -5.16573,38.30091 -4.00513,6.83153 -12.81861,29.19319 2.80074,22.97968 11.60241,-7.25284 19.21578,-18.53487 24.65129,-30.63396 10.08148,-16.2195 16.25231,-34.94686 16.33623,-54.00157 0.92374,-10.46776 1.04989,-19.70818 7.03943,-28.75848"
       id="path2856"
       sodipodi:nodetypes="ccccccscccc" />
    <path
       style="fill:#e9c6af;fill-opacity:1;stroke:#000000;stroke-width:1.26048826999999997px;stroke-linecap:butt;stroke-linejoin:miter;stroke-opacity:1"
       d="m 241.66217,356.29083 c 2.22142,18.00854 0.88662,44.3611 1.04619,61.62516 -0.85684,14.84383 -3.92646,27.23319 -9.54203,39.93512 -6.13496,13.47607 1.6675,29.22946 13.26645,14.59597 18.87495,-17.48635 29.47727,-36.9389 39.88567,-64.8481 8.41515,-5.84221 8.6595,18.06868 9.43507,24.4114 -2.07254,16.22431 -6.06622,32.14693 -7.54637,48.48213 1.52246,19.87216 21.94721,-4.76368 26.84545,-11.70845 12.81406,-11.47736 18.97426,-27.08709 20.83219,-43.81809 3.12543,-23.47004 -4.00824,-46.77932 -1.92209,-70.24132"
       id="path2858"
       sodipodi:nodetypes="cccccccccc" />
    <path
       style="fill:#e9c6af;fill-opacity:1;stroke:#000000;stroke-width:1.26048826999999997px;stroke-linecap:butt;stroke-linejoin:miter;stroke-opacity:1"
       d="m 364.39228,357.75691 c 0.98178,-4.67682 -0.0623,19.81703 0.43668,23.76355 0.83303,15.56328 1.36696,31.10034 2.5751,46.64125 -0.74248,11.10066 3.52617,22.09591 1.67708,33.33884 2.0393,8.16183 4.34674,40.00274 15.25733,14.83653 10.68306,-8.47189 8.07249,-14.18242 14.72372,-25.51058 5.33169,-10.91641 6.36426,-24.31173 7.59624,-36.50357 1.80575,-11.51135 -1.9398,-23.09129 0.1642,-34.58738 -0.22143,-8.00921 -2.11908,-16.7536 2.69714,-23.92633"
       id="path2860"
       sodipodi:nodetypes="ccccccccc" />
    <path
       style="fill:#e9c6af;fill-opacity:1;stroke:#000000;stroke-width:1.26048826999999997px;stroke-linecap:butt;stroke-linejoin:miter;stroke-opacity:1"
       d="m 440.87739,348.24785 c -1.79613,-3.09288 -2.00236,24.95851 -1.45701,28.67826 2.86933,13.79144 5.99196,27.67809 4.34397,41.84899 -1.44985,15.30341 6.05582,30.28352 0.88745,45.39816 -6.02727,10.94554 0.59315,28.12304 11.75259,13.76549 9.23409,-9.98546 13.79934,-23.62051 15.68097,-36.80038 3.46127,-14.8205 4.59399,-30.64189 5.73843,-46.02978 3.6513,-12.0345 2.81091,-24.31826 2.94759,-36.60988 0.6428,-3.9167 2.164,-7.66382 4.2876,-11.02957"
       id="path2862"
       sodipodi:nodetypes="ccccccccc" />
    <path
       style="fill:#e9c6af;fill-opacity:1;stroke:#000000;stroke-width:1.26048826999999997px;stroke-linecap:butt;stroke-linejoin:miter;stroke-opacity:1"
       d="m 507.4697,346.47092 c 2.03905,-3.95969 -0.93413,28.441 -0.0598,32.82675 4.61615,18.56207 4.67139,37.3497 5.71472,56.19432 3.82632,13.82727 -2.77743,27.32088 1.52267,41.07243 -2.63542,9.06829 3.24288,18.54033 11.54956,9.44957 15.09337,-17.25101 17.67054,-40.52399 22.50956,-61.83211 4.11435,-15.36566 7.06882,-30.92565 11.84454,-46.1277 3.69961,-15.3042 -1.77049,-22.96246 2.85739,-38.4797"
       id="path2864"
       sodipodi:nodetypes="cccccccc" />
    <path
       style="fill:#e9c6af;fill-opacity:1;stroke:#000000;stroke-width:1.26048826999999997px;stroke-linecap:butt;stroke-linejoin:miter;stroke-opacity:1"
       d="m 585.07509,346.48177 c -0.37411,-0.70942 1.70922,21.34966 3.07043,27.3738 2.77578,12.78783 2.31855,25.11723 2.0168,38.10091 -0.66398,15.46578 0.73658,30.97305 -1.01809,46.43785 -1.51053,11.85226 12.23502,20.34777 18.83629,8.08303 10.80149,-14.63949 11.83179,-33.59452 14.542,-50.858 -1.21471,-18.11746 0.4503,-36.24304 -1.05191,-54.35031 -2.78489,-8.16926 0.51189,-15.99135 0.84309,-24.22225"
       id="path2866"
       sodipodi:nodetypes="cccccccc" />
    <path
       style="fill:#e9c6af;fill-opacity:1;stroke:#000000;stroke-width:1.26048826999999997px;stroke-linecap:butt;stroke-linejoin:miter;stroke-opacity:1"
       d="m 646.01665,332.96807 c -0.58643,7.80495 -1.7853,19.70447 -1.06516,23.38272 -0.845,8.53563 2.76673,16.76595 2.1391,25.29984 0.16349,9.83384 0.78481,19.66545 0.3511,29.49429 0.25182,6.06383 0.33729,12.15056 -0.53143,18.16853 -0.30449,7.58979 0.97924,15.14495 0.66649,22.73436 3.59359,4.54209 9.86376,1.6656 11.45928,-3.08515 2.52086,-4.67771 4.13857,-9.78758 6.22103,-14.62875 2.46339,-12.29479 9.99948,-23.25513 10.68986,-35.94963 3.5176,-9.89737 1.3229,-20.49455 1.85961,-30.72 -0.13404,-10.53951 2.57058,-21.08726 3.06972,-31.61569"
       id="path2868"
       sodipodi:nodetypes="ccccccccccc" />
    <path
       style="fill:#e9c6af;fill-opacity:1;stroke:#000000;stroke-width:1.26048826999999997px;stroke-linecap:butt;stroke-linejoin:miter;stroke-opacity:1"
       d="m 33.555799,214.17033 c 0.530892,-8.88209 4.792454,-21.23188 4.003966,-30.34596 1.124143,-11.47727 -2.491527,-22.66694 -3.351007,-34.04839 -2.764289,-5.80807 -3.387171,-16.31189 6.537313,-10.90782 8.474265,5.33265 8.259049,16.99567 12.951464,25.0568 1.096153,4.7339 6.61671,19.8582 2.482386,7.00712 -2.744908,-9.93678 -8.86046,-25.17848 -16.298142,-32.7532 -1.724955,-6.76349 -2.848283,-10.62155 2.550754,-12.47118 2.568111,-0.14631 13.038781,13.35659 6.694565,12.04948 0.957111,-2.93597 15.302537,2.71362 19.279122,8.14602 4.839862,7.97729 15.074563,11.62653 17.709705,21.08583 5.714393,8.55632 9.578577,18.09399 9.19706,28.45155 0.439359,7.32171 3.439239,11.72424 5.470955,18.65586"
       id="path3893"
       sodipodi:nodetypes="ccccccccccccc" />
    <path
       style="fill:#e9c6af;fill-opacity:1;stroke:#000000;stroke-width:1.26048826999999997px;stroke-linecap:butt;stroke-linejoin:miter;stroke-opacity:1"
       d="m 122.6292,209.75901 c 0.27558,-11.19227 -0.40705,-22.5174 -0.71324,-33.59754 -1.50415,-17.51797 -4.72104,-34.92702 -10.04305,-51.7316 3.01742,-15.44755 15.27183,2.46849 19.51779,8.2878 9.81079,11.18043 13.59495,25.01669 20.09747,38.14229 -4.70919,-13.11727 -11.13899,-27.82254 -19.74611,-38.39682 -7.17663,-9.67745 -8.06966,-21.65375 -4.7537,-31.41407 7.10253,-3.0378 9.93859,1.23617 15.23655,12.08017 -1.19937,10.39633 11.15314,18.82404 12.47615,29.06811 4.84338,10.65238 0.32276,22.30669 0.79056,33.50151 1.07201,-14.44938 2.16073,-28.15333 -3.61064,-39.83667 -0.85823,-7.47903 -17.46792,-22.15224 -4.30523,-23.58191 12.02729,4.19256 16.70581,17.33003 25.61474,25.73135 7.76377,10.78219 16.30709,22.69218 15.9844,36.38786 4.3876,11.29234 0.73038,23.32379 4.55225,34.31974"
       id="path3895"
       sodipodi:nodetypes="ccccccccccccccc" />
    <path
       style="fill:#e9c6af;fill-opacity:1;stroke:#000000;stroke-width:1.26048826999999997px;stroke-linecap:butt;stroke-linejoin:miter;stroke-opacity:1"
       d="m 227.7488,209.70676 c 1.01132,-19.64748 -5.57319,-43.74548 -11.11284,-62.37924 -0.36895,-11.986 -18.26295,-35.24175 -0.43324,-39.59718 6.50977,11.75164 9.77299,7.69255 16.55061,19.50004 4.42525,5.80547 10.20951,39.22941 20.5936,43.55175 -11.5334,-6.9057 -15.71057,-30.98699 -20.39397,-43.30648 3.20036,-11.69128 -1.91289,-16.54527 -3.64526,-28.775935 -4.54268,-9.661828 2.54025,-26.341582 10.41154,-10.356213 11.23191,9.84614 23.29653,19.777958 24.08291,36.623738 -0.28122,15.35517 -0.81065,37.32156 -1.92604,44.48313 2.2465,-19.0129 0.78946,-32.99397 2.04191,-47.31796 1.22675,-8.84046 -14.31877,-26.641203 -1.11508,-28.102988 10.34174,9.363298 20.8009,19.698758 26.65472,32.643728 8.32866,18.25061 8.23414,38.48753 12.69147,57.67024 0.8185,7.05692 4.22052,13.44202 4.62969,20.52143"
       id="path3897"
       sodipodi:nodetypes="ccccccccccccccc" />
    <path
       style="fill:#e9c6af;fill-opacity:1;stroke:#000000;stroke-width:1.26048826999999997px;stroke-linecap:butt;stroke-linejoin:miter;stroke-opacity:1"
       d="m 338.92458,206.40909 c 3.20544,-12.73644 -6.65812,-33.40781 -5.17985,-46.29342 -1.24827,-15.41953 -1.02564,-30.90778 -0.71619,-46.35781 2.75167,-7.99853 0.0679,-21.918521 8.73426,-25.566818 5.7635,8.205233 9.71476,18.084908 14.93151,26.932208 4.91174,13.57113 2.11792,28.94455 9.71066,41.7877 6.15326,13.65946 9.17409,34.55402 15.44556,48.11396"
       id="path3899"
       sodipodi:nodetypes="ccccccc" />
    <path
       style="fill:#e9c6af;fill-opacity:1;stroke:#000000;stroke-width:1.26048826999999997px;stroke-linecap:butt;stroke-linejoin:miter;stroke-opacity:1"
       d="m 404.92823,205.31707 c -3.29845,-13.61936 -1.8461,-18.55267 -2.53285,-35.22606 -3.58534,-26.39628 -3.43563,-46.40084 -4.86412,-72.947736 -1.67795,-8.268488 8.10258,-22.094906 10.91961,-6.820153 2.52803,13.661239 2.24622,23.058769 3.17522,38.204249 0.82044,8.93904 0.8561,1.35422 0.97317,9.77766 -0.54394,-17.68438 -1.59453,-15.89686 -2.135,-32.90321 0.51628,-10.517643 2.70151,-21.455714 0.14202,-31.689919 -1.57127,-12.797052 11.6365,5.470945 11.93434,10.46521 3.36534,13.910644 13.81916,24.652839 16.59002,38.704369 3.41967,17.19273 2.93295,35.10122 8.93452,51.8256 0.3091,9.35178 7.82783,15.38 6.87213,24.83274"
       id="path3901"
       sodipodi:nodetypes="cccccccccccc" />
    <path
       style="fill:#e9c6af;fill-opacity:1;stroke:#000000;stroke-width:1.26048826999999997px;stroke-linecap:butt;stroke-linejoin:miter;stroke-opacity:1"
       d="m 479.99503,182.49464 c -3.03272,-14.91957 -6.62214,-38.36389 -10.38772,-53.18036 -2.35153,-16.63771 -0.65105,-33.668693 -4.80951,-50.090771 0.93818,-11.276143 -4.83193,-33.713102 7.63489,-37.203098 9.87548,10.15695 10.93596,27.131503 20.49089,38.836684 7.43834,22.232345 19.28351,42.604905 27.45266,64.558355 3.46378,11.40412 5.47854,23.35255 9.11472,34.76657"
       id="path3903"
       sodipodi:nodetypes="ccccccc" />
    <path
       style="fill:#e9c6af;fill-opacity:1;stroke:#000000;stroke-width:1.26048826999999997px;stroke-linecap:butt;stroke-linejoin:miter;stroke-opacity:1"
       d="m 562.14419,180.41512 c 1.36432,-15.23485 -5.39301,-38.42094 -5.58166,-53.50679 -0.48206,-12.42958 -0.49851,-24.95833 -5.28297,-36.453021 1.458,-8.965803 -12.11651,-25.104942 -1.08656,-28.441129 5.29836,7.508838 11.08973,15.447285 18.56367,20.596809 6.47187,12.242176 10.41492,25.470101 17.02658,37.646781 6.78261,16.77966 9.63052,34.82149 15.86154,51.81455 1.31409,4.23024 1.61107,4.86975 3.0636,9.05633"
       id="path3905"
       sodipodi:nodetypes="cccccccc" />
    <path
       style="fill:#e9c6af;fill-opacity:1;stroke:#000000;stroke-width:1.25300086000000022px;stroke-linecap:butt;stroke-linejoin:miter;stroke-opacity:1"
       d="m 638.10555,178.70695 c -3.32601,-21.1176 -5.30973,-50.74302 -5.16836,-72.03969 0.2898,-12.78379 -5.44471,-25.296962 -1.30883,-37.90282 0.46696,-11.002642 5.89664,-38.696121 20.67681,-22.015917 5.5446,11.608455 10.68459,23.604488 18.19778,34.320855 8.26633,15.943654 15.78933,32.308792 20.30929,49.675592 5.28706,11.76114 7.47219,28.37925 9.17941,40.86231"
       id="path3907"
       sodipodi:nodetypes="ccccccc" />
  </g>
  <g
     inkscape:label="teeth"
     inkscape:groupmode="layer"
     id="layer1"
     transform="translate(-22.552991,-39.238964)">
    <path
       style="fill:#e9c6af;fill-opacity:1;stroke:#000000;stroke-width:1.26048826999999997px;stroke-linecap:butt;stroke-linejoin:miter;stroke-opacity:1"
       d="m 646.78545,333.92752 c 0.20975,-7.54176 -5.15958,-14.05707 -4.47085,-21.6979 -0.59591,-7.78559 -2.583,-15.31882 -5.49979,-22.55378 -3.50241,-7.19142 4.28401,-13.5482 10.64772,-9.03697 8.16022,-1.05411 16.20596,-0.97339 24.25356,-2.7789 7.08982,-2.15843 18.15603,-2.31774 15.59928,8.1311 -0.0602,12.00195 0.32787,24.17246 -2.87746,35.86686 -1.66347,6.54316 -3.26909,14.56095 -5.44844,18.63259 -1.68717,6.77733 -10.84771,4.68912 -16.1832,4.27599 -7.46534,-10e-4 -12.37168,-5.03585 -16.02082,-10.83899 z"
       id="path2836" />
    <path
       style="fill:#e9c6af;fill-opacity:1;stroke:#000000;stroke-width:1.26048826999999997px;stroke-linecap:butt;stroke-linejoin:miter;stroke-opacity:1"
       d="m 585.31452,344.07121 c -2.19903,-6.91943 -5.49709,-31.4221 -7.95203,-38.32098 -1.49157,-5.85635 -4.35804,-12.61903 -1.64746,-18.52887 3.64107,-10.14417 13.49546,-0.54733 21.35686,-3.31519 7.24365,0.52789 14.0234,-1.75817 21.23853,-2.15439 9.7532,-5.42752 14.35608,5.36494 12.61702,13.16907 -2.30555,6.22492 -2.60869,12.68806 -3.29431,19.19846 -0.71099,7.45553 -3.34544,14.3736 -5.67773,21.39138 -0.0695,8.43621 -7.99407,11.22994 -15.06658,13.05678 -6.68574,1.88743 -14.9857,-0.77153 -21.46366,-4.42222"
       id="path2838"
       sodipodi:nodetypes="cccccccccc" />
    <path
       style="fill:#e9c6af;fill-opacity:1;stroke:#000000;stroke-width:1.26048826999999997px;stroke-linecap:butt;stroke-linejoin:miter;stroke-opacity:1"
       d="m 508.46914,345.39513 c 0.94392,3.21 -0.72676,-3.14935 -0.99133,-4.2428 -1.66829,-8.21801 -5.67702,-15.69352 -8.36257,-23.58004 -1.24064,-4.89032 -1.91682,-10.0012 -1.66604,-15.02558 0.75928,-5.83207 5.21094,-10.76931 10.85861,-12.59175 8.8281,-3.86665 18.74798,-4.75969 27.32501,-9.24812 4.3511,-2.27148 6.9602,-11.53074 12.49013,-8.60881 7.50767,3.93201 14.3212,9.46355 18.51307,16.818 3.21645,4.32204 5.59452,10.01963 3.74693,15.35424 -0.6946,5.44406 -1.33414,7.3785 -1.3163,13.4967 -3.38691,6.15875 -2.89928,13.55287 -6.11342,19.77622 -0.71824,5.92324 -6.87445,8.55342 -11.14197,11.80149 -7.23685,5.8112 -17.23016,5.72253 -26.06991,5.18032 -4.30551,-0.7807 -9.43744,-0.25846 -12.94581,-3.14745 -1.81597,-1.70977 -2.97331,-3.93338 -4.3264,-5.98242 z"
       id="path2840"
       sodipodi:nodetypes="ccccccccccccccc" />
    <path
       style="fill:#e9c6af;fill-opacity:1;stroke:#000000;stroke-width:1.26048826999999997px;stroke-linecap:butt;stroke-linejoin:miter;stroke-opacity:1"
       d="m 437.25139,335.87775 c -0.656,-8.65398 -6.77003,-14.78651 -9.07817,-22.824 -5.57773,-10.15847 3.7169,-18.17481 11.07831,-24.06676 8.45414,0.28899 16.00298,-3.43819 23.73069,-7.35526 6.34398,0.61256 12.66674,7.11476 19.87114,8.24056 10.79929,3.73254 13.04639,17.09386 9.11002,26.45453 -3.16508,8.88641 -4.7582,18.08081 -7.91343,26.98512 -2.46772,7.74914 -12.14346,7.80368 -18.96752,8.74734 -7.64782,-1.38445 -16.72502,2.45069 -23.26296,-2.91527 -2.91513,-4.63229 -1.92022,-3.27657 -4.56808,-13.26626 z"
       id="path2842"
       sodipodi:nodetypes="cccccccccc" />
    <path
       style="fill:#e9c6af;fill-opacity:1;stroke:#000000;stroke-width:1.26048826999999997px;stroke-linecap:butt;stroke-linejoin:miter;stroke-opacity:1"
       d="m 363.02425,343.99253 c 0.0115,-10.50203 -7.99654,-18.77691 -8.86271,-29.07242 7.21322,-13.87624 0.52611,-22.17554 19.37617,-20.13035 8.23816,-1.8856 15.47486,-7.40249 24.47649,-6.34618 6.8853,3.42418 15.1335,6.17109 20.56076,12.10219 7.46932,6.49193 0.65479,16.36844 1.37912,24.38444 -3.49263,9.96955 -8.41717,20.88461 -12.55806,30.42607 -7.94723,3.4804 -16.9497,0.25045 -25.30035,2.14625 -9.03717,-0.17819 -18.49946,5.05588 -19.20815,-13.28735"
       id="path2844"
       sodipodi:nodetypes="ccccccccc" />
    <path
       style="fill:#e9c6af;fill-opacity:1;stroke:#000000;stroke-width:1.26048826999999997px;stroke-linecap:butt;stroke-linejoin:miter;stroke-opacity:1"
       d="M 242.47627,354.28267 C 231.93604,337.08019 229.4683,339.42679 230.5262,327.7381 c 1.07497,-9.46316 -2.42322,-24.63667 7.60921,-29.61974 10.77254,-0.77558 15.92635,-8.52701 28.3154,-5.69603 12.87262,3.71431 21.19594,-1.57001 31.77982,-3.22379 10.59252,-0.15502 21.08217,0.43742 31.60558,3.60554 11.29674,2.69743 31.3963,12.39164 19.47437,26.12356 -4.73914,10.58085 -5.6444,22.72232 -11.60271,32.62757 -9.83135,10.05243 -25.22762,6.04465 -37.81905,8.29879 -19.50424,-3.05738 -42.24652,5.8249 -57.41253,-5.49673"
       id="path2846"
       sodipodi:nodetypes="cccccccccc" />
    <path
       style="fill:#e9c6af;fill-opacity:1;stroke:#000000;stroke-width:1.26048826999999997px;stroke-linecap:butt;stroke-linejoin:miter;stroke-opacity:1"
       d="m 131.37436,332.92986 c -3.81965,-8.73617 -8.03402,-18.79693 -1.64165,-27.54297 3.13973,-8.59016 12.80575,-12.23974 21.48316,-10.63256 6.78848,1.86478 8.29401,-4.771 17.68257,-0.54861 13.23773,-5.25697 19.93808,-2.68679 29.51381,-1.48279 9.76269,-3.93904 23.36613,-4.56805 28.87217,5.78191 1.83317,10.63924 -5.8928,20.14553 -5.39982,30.96426 -1.15366,9.60894 -4.9745,20.69757 -15.99743,22.77937 -9.1561,3.62747 -19.58438,2.83797 -29.35692,2.80872 -9.00121,1.63565 -17.7877,-2.19306 -26.82754,-2.10632 -4.01114,-0.51635 -8.24889,-3.42678 -11.61456,-7.20782 -3.26423,-3.66707 -6.08433,-8.89023 -6.70565,-12.80539"
       id="path2848"
       sodipodi:nodetypes="ccccccccccsc" />
    <path
       style="fill:#e9c6af;fill-opacity:1;stroke:#000000;stroke-width:1.26048826999999997px;stroke-linecap:butt;stroke-linejoin:miter;stroke-opacity:1"
       d="m 41.826346,332.83262 c -2.018806,-9.5584 -2.610056,-24.58421 -4.304961,-34.18546 -0.434508,-5.06491 5.062224,-7.61121 9.377307,-8.2471 4.338069,-0.75023 8.603476,-1.6449 12.69894,0.0157 5.21276,0.2156 10.95228,-3.48226 15.721135,0.0172 2.310565,3.21009 6.844624,3.27483 10.245446,1.73417 4.196296,-1.46963 8.331453,-5.03133 13.005634,-3.46482 2.869473,3.16203 7.011893,0.71535 10.726453,2.25978 9.88099,2.73272 17.11904,14.15866 13.10447,23.87848 -4.64847,6.98821 -5.14058,15.59336 -8.58888,23.07985 -1.51586,4.45658 -6.7601,5.72386 -10.99368,4.80569 -4.772477,-1.38435 -9.54915,0.39586 -14.239243,-0.29462 -7.538278,-1.28752 -15.422686,-2.62513 -22.565495,-5.21566 -7.814479,-0.27354 -16.37811,-3.03974 -24.14299,-3.68975"
       id="path2850"
       sodipodi:nodetypes="cccccccccccccc" />
    <path
       style="fill:#e9c6af;fill-opacity:1;stroke:#000000;stroke-width:1.26048826999999997px;stroke-linecap:butt;stroke-linejoin:miter;stroke-opacity:1"
       d="m 638.35489,180.64577 c 1.15315,-2.59345 0.52699,11.56697 -0.42368,15.76259 -2.43291,14.41343 -5.8195,30.47496 1.86037,43.90247 10.36487,5.91466 23.87252,5.58648 35.66349,6.93594 11.60702,-1.56722 22.78124,-4.03048 34.53342,-3.80679 12.32436,1.50913 18.03774,-9.27089 12.43028,-19.44491 -2.93015,-16.88668 -9.33756,-33.26326 -18.48874,-47.81141 -9.34753,-12.6547 -25.48708,-17.79504 -40.75144,-19.01464 -10.93529,3.16146 -19.23204,12.90641 -24.28224,23.19192"
       id="path3877"
       sodipodi:nodetypes="ccccccccc" />
    <path
       style="fill:#e9c6af;fill-opacity:1;stroke:#000000;stroke-width:1.26048826999999997px;stroke-linecap:butt;stroke-linejoin:miter;stroke-opacity:1"
       d="m 600.84631,178.66984 c -9.00929,-3.24163 -28.64907,-10.3018 -35.93193,-1.56671 -6.38112,7.52326 -4.02587,18.25353 -6.10148,27.29257 -0.79556,7.83906 -2.22524,15.72234 -3.29583,23.68696 -0.29146,8.41642 5.5573,16.92686 14.72596,17.11225 9.23184,0.66272 18.44948,2.50193 27.5623,2.88888 7.55404,-1.76028 18.93894,-0.89266 27.73583,-5.04178 11.44415,-1.06073 3.41287,-14.97995 2.10699,-21.48619 -1.53023,-9.54305 -9.35322,-15.61654 -13.5832,-23.76416 -4.61498,-5.79887 -4.80418,-16.47206 -13.6263,-18.85687"
       id="path3879"
       sodipodi:nodetypes="cccccccccc" />
    <path
       style="fill:#e9c6af;fill-opacity:1;stroke:#000000;stroke-width:1.26048826999999997px;stroke-linecap:butt;stroke-linejoin:miter;stroke-opacity:1"
       d="m 529.49454,180.77191 c 5.42514,2.19396 -13.16034,-8.03215 -19.92932,-8.46325 -10.20339,2.31592 -31.2814,5.95894 -30.07003,12.70373 -1.54554,9.28146 -3.27892,16.80698 -4.23637,26.67769 -2.93676,7.82055 -12.14171,28.23771 2.65809,33.25038 8.92722,3.97751 18.35984,6.62125 25.88752,12.92331 8.64768,3.48714 19.64358,9.08018 27.98863,2.0774 7.12188,-6.7913 16.78869,-12.07541 21.15083,-21.04554 -0.85148,-11.17337 -5.49161,-22.25694 -9.72387,-32.7151 -5.10054,-7.87434 -11.48929,-19.29531 -14.07023,-25.68748"
       id="path3881"
       sodipodi:nodetypes="cccccccccc" />
    <path
       style="fill:#e9c6af;fill-opacity:1;stroke:#000000;stroke-width:1.26048826999999997px;stroke-linecap:butt;stroke-linejoin:miter;stroke-opacity:1"
       d="m 381.18907,205.05397 c 8.37839,3.36732 -11.80945,-5.84211 -15.00106,-3.71947 -7.53488,0.60945 -14.88211,2.4195 -22.47002,2.52286 -10.26065,1.95074 -4.99017,12.37361 -9.85174,18.2924 -3.39919,9.52839 -5.12844,19.48916 -5.36819,29.57268 -0.7438,2.55067 0.33507,0.45936 0.0348,8.15457 5.4299,8.09743 13.9356,9.31596 23.07044,8.27026 7.56648,-0.11492 12.8845,1.94587 22.70861,-0.96968 6.53058,-4.6825 11.7974,-10.92908 17.23182,-16.76639 5.7497,-7.18221 1.72288,-16.85712 -0.83748,-24.54322 -2.98985,-6.92893 -2.79033,-16.38273 -9.54241,-21.03413"
       id="path3883"
       sodipodi:nodetypes="ccccccccccc" />
    <path
       style="fill:#e9c6af;fill-opacity:1;stroke:#000000;stroke-width:1.26048826999999997px;stroke-linecap:butt;stroke-linejoin:miter;stroke-opacity:1"
       d="m 405.08088,204.68637 c 3.83877,-7.7744 -3.17032,7.1836 -2.02706,9.97057 -0.92221,4.82702 -2.16768,9.32552 -2.70171,12.19907 -3.76043,6.82165 -6.447,15.22442 -1.57603,23.19264 5.03472,5.15629 10.85033,9.36606 16.91235,13.03662 8.40566,-2.16229 15.9594,3.98637 24.29359,2.83429 10.30513,-3.73623 17.1093,-12.9103 24.34807,-20.54877 6.27313,-6.58238 0.9319,-15.54775 -1.31591,-22.69175 -4.09294,-8.69846 -2.43501,-21.15431 -12.00488,-26.49623 -9.45102,-4.91179 -19.88332,0.28582 -29.85619,-0.76736 -6.21556,-0.41682 -14.92247,2.60487 -16.2542,9.14466"
       id="path3885"
       sodipodi:nodetypes="ccccccccccc" />
    <path
       style="fill:#e9c6af;fill-opacity:1;stroke:#000000;stroke-width:1.26048826999999997px;stroke-linecap:butt;stroke-linejoin:miter;stroke-opacity:1"
       d="m 224.74737,215.19927 c 3.64393,-6.59294 -3.08063,9.4852 -4.30796,16.4111 -2.98567,8.74286 -4.43355,20.25958 0.27333,28.9332 5.69502,10.57798 17.72836,14.94262 28.84704,9.68473 10.45251,5.92539 14.30348,-2.94592 28.45354,-0.37495 10.48432,0.76689 13.01946,-7.6167 23.78234,-4.17578 10.75692,-1.66941 22.49444,-13.08141 21.8948,-23.87348 -2.74084,-11.69429 -7.5618,-23.09422 -13.77525,-33.43577 -6.69685,-9.64842 -20.34809,-6.25568 -30.57651,-6.61131 -10.09943,2.09613 -20.40953,1.90341 -30.52002,4.22364 -16.02169,-1.01813 -17.0307,-6.19002 -23.94258,9.02935"
       id="path3887"
       sodipodi:nodetypes="ccccccccccc" />
    <path
       style="fill:#e9c6af;fill-opacity:1;stroke:#000000;stroke-width:1.26048826999999997px;stroke-linecap:butt;stroke-linejoin:miter;stroke-opacity:1"
       d="m 115.56518,221.93159 c -2.56756,12.11585 -0.99475,18.9888 -2.08993,30.17764 2.41689,9.16463 10.97234,17.35268 19.0697,20.53232 9.61497,-2.24907 16.05594,1.06706 24.87809,-1.48352 10.83852,-2.88954 18.19965,2.0653 26.8346,-2.40936 11.89558,-2.51648 17.61624,2.72535 26.03863,-7.09728 6.76402,-9.33217 -0.35219,-19.5376 -2.38674,-29.04877 -2.69407,-11.3407 -8.14446,-25.46011 -21.57606,-27.35476 -12.96783,0.93486 -26.09134,2.06125 -39.08319,1.42685 -10.05293,0.49567 -15.64342,-1.27159 -24.34682,2.23787 -4.18351,3.81432 -6.44055,11.4733 -7.7024,13.32369"
       id="path3889"
       sodipodi:nodetypes="ccccccccccc" />
    <path
       style="fill:#e9c6af;fill-opacity:1;stroke:#000000;stroke-width:1.26048826999999997px;stroke-linecap:butt;stroke-linejoin:miter;stroke-opacity:1"
       d="m 35.710871,213.93417 c -12.764873,7.3437 -9.975574,27.55229 -11.401485,36.62205 -3.599155,5.90305 1.982666,14.27267 8.912172,13.51084 6.137084,-0.43377 11.244106,5.57537 17.456704,3.54894 4.710332,-1.81801 10.03354,-0.61 14.921672,-1.82076 3.647455,-0.66602 6.763228,-4.01967 10.586108,-1.80909 3.84711,1.49512 8.260769,4.49489 12.373327,1.98436 4.395748,-2.49409 9.250921,-5.90177 14.613631,-4.41916 5.29416,-0.8557 7.04589,-6.70376 7.49509,-11.21462 1.04836,-6.9831 -0.22034,-14.11145 -3.18842,-20.51283 -1.91501,-4.00645 -3.77851,-8.03052 -4.87206,-12.34079 -0.9425,-3.54541 -3.765014,-6.49538 -7.514184,-7.17599 -6.138711,-1.7122 -12.595532,-1.85684 -18.765011,-3.44731 -6.796944,-0.96173 -13.417422,1.88221 -20.211196,1.30942 -6.914634,0.27024 -13.633966,4.43269 -20.377786,5.60591"
       id="path3891"
       sodipodi:nodetypes="ccccccccccccccc" />
  </g>
  <g
     inkscape:groupmode="layer"
     id="layer2"
     inkscape:label="pulps"
     style="opacity:0.79220779"
     transform="translate(-22.552991,-39.238964)">
    <path
       style="opacity:1;fill:#800000;fill-opacity:1;stroke:#000000;stroke-width:1.26048826999999997px;stroke-linecap:butt;stroke-linejoin:miter;stroke-opacity:1"
       d="m 47.275299,410.5782 c 4.833546,-0.83878 23.266743,-12.25447 32.979605,-19.92207 8.804768,-5.9981 13.063545,-16.07048 14.063941,-26.22401 2.199369,-9.19881 -3.635857,-18.64167 1.643813,-27.6178 2.199989,-4.93237 3.223347,-11.27929 -3.066185,-6.44168 -4.213733,-8.71527 -12.863154,7.33852 -19.44019,-1.33387 -5.398815,-5.39989 -10.73677,3.23063 -14.697581,-5.08163 -3.903292,-2.31481 0.819811,9.71226 -2.612068,13.067 -4.26295,13.38792 -4.0139,27.6181 -6.501187,41.34386 -0.328791,10.86262 -3.84967,22.33758 -13.504003,28.68344 -5.092594,2.20429 -7.667733,6.82295 0.177206,3.0491 7.137732,-3.00011 11.729893,-10.37719 17.061415,-19.16878 4.096428,-9.42358 7.317718,-19.24994 9.007652,-29.34365 1.420845,-9.07357 14.672337,-15.86742 20.970243,-7.1204 4.669596,8.54705 4.094917,20.55738 -0.255656,29.13871 -5.637736,8.71236 -14.605622,13.31431 -24.200905,17.91629 -4.184802,2.40719 -6.531711,9.09406 -11.6261,9.05549 z"
       id="lr8_pulp"
       sodipodi:nodetypes="ccccccccccccccccc"
       inkscape:label="lr8_pulp" />
    <path
       style="opacity:1;fill:#800000;fill-opacity:1;stroke:#000000;stroke-width:1.26048826999999997px;stroke-linecap:butt;stroke-linejoin:miter;stroke-opacity:1"
       d="m 121.05443,439.46313 c -5.15973,3.61776 9.97659,-10.45484 10.54404,-15.18943 6.90517,-7.89124 13.53689,-15.96923 14.48787,-26.72108 3.59497,-12.08078 4.77749,-23.179 6.7965,-35.514 0.71737,-8.8621 -10.68912,-23.61193 4.35102,-23.56735 7.84222,-2.03924 15.27479,6.24531 24.09899,2.03441 3.81357,1.0599 12.00023,-5.71845 18.71493,-2.54473 5.66833,14.34848 -5.1385,23.80345 -6.93444,36.96693 -2.67111,14.83618 0.0919,30.7294 -4.44415,45.10687 -5.42227,10.92718 -7.29391,23.85339 -17.19923,32.42904 -8.84765,6.59729 6.82869,-9.40556 6.72953,-14.65135 5.58925,-13.70106 11.4918,-27.40829 10.57597,-42.73642 -1.75953,-10.54203 -6.39904,-32.60734 -20.72887,-25.9738 -8.50337,9.53452 -10.90196,22.54501 -17.76973,33.30179 -6.49464,12.6051 -12.87471,22.33204 -21.40569,33.81045 -0.0447,0.28431 -11.39137,6.58564 -7.81674,3.24867 z"
       id="path2820"
       sodipodi:nodetypes="cccccccccccccccc" />
    <path
       style="opacity:1;fill:#800000;fill-opacity:1;stroke:#000000;stroke-width:1.26048826999999997px;stroke-linecap:butt;stroke-linejoin:miter;stroke-opacity:1"
       d="m 238.22037,471.53882 c 4.69996,-2.9678 10.56092,-20.43775 13.92771,-30.22741 4.65565,-12.765 11.62648,-25.20471 13.55226,-38.72839 -1.86597,-17.83102 -1.1944,-35.64404 -4.34062,-53.39311 -1.35948,-14.40894 8.58282,-19.7424 19.26672,-13.77724 12.69023,-1.72174 26.58135,-6.10988 40.8355,-5.85709 10.39878,7.53634 -4.01643,25.26327 -2.08028,37.21879 1.2707,15.78321 5.57131,28.54202 2.26044,43.39493 -0.70886,16.34423 -0.19199,31.02328 -11.0443,47.20972 -5.03483,8.33233 -11.92974,19.62868 -18.26798,25.12069 13.75711,-22.4646 29.96562,-47.21071 23.30748,-75.08445 -1.7478,-12.68982 0.18321,-30.68891 -15.57922,-34.05183 -16.78503,-2.36329 -25.01269,15.83573 -28.04291,29.10324 -4.97676,19.34197 -12.67018,39.0862 -23.50294,55.82517 -3.38667,4.19425 -4.68468,13.14092 -10.29186,13.24698 z"
       id="path2822"
       sodipodi:nodetypes="ccccccccccccccc" />
    <path
       style="opacity:1;fill:#800000;fill-opacity:1;stroke:#000000;stroke-width:1.26048826999999997px;stroke-linecap:butt;stroke-linejoin:miter;stroke-opacity:1"
       d="m 448.88674,474.66635 c -0.192,4.0016 3.44489,-6.69529 3.88076,-8.72852 0.83176,-8.35098 1.41309,-15.44987 3.04349,-23.66862 1.16484,-5.30445 2.47025,-12.16379 2.74385,-17.53265 -0.50962,-13.88166 0.88883,-25.88531 -1.15539,-39.61182 -2.22927,-8.11517 -3.26354,-16.54023 -3.10232,-24.94153 3.84096,-10.6775 -1.25111,-21.68458 -0.70673,-32.50576 0.36552,-5.09936 7.78229,-8.97694 11.38488,-4.36864 2.35632,5.30386 -0.0153,11.44325 0.33154,17.1011 -0.75987,7.74211 -0.53727,15.53285 -0.94164,23.27412 -1.14386,10.48012 -3.77265,21.35241 -0.38691,31.70283 1.14888,11.97195 4.25145,24.81697 -1.57227,36.14434 -3.14226,8.80029 -3.882,18.23471 -6.68553,27.10795 -1.09047,5.71754 -3.60844,11.17231 -6.83373,16.0272 z"
       id="path2826"
       sodipodi:nodetypes="cccccccccccccc" />
    <path
       style="opacity:1;fill:#800000;fill-opacity:1;stroke:#000000;stroke-width:1.26048826999999997px;stroke-linecap:butt;stroke-linejoin:miter;stroke-opacity:1"
       d="m 378.66462,477.79389 c 1.06321,-1.80489 4.88824,-22.06052 5.38955,-31.22763 0.89905,-24.55884 3.76691,-48.5021 3.35714,-73.44041 1.3353,-17.30517 -1.20226,-27.16274 -2.98182,-41.27141 2.31379,-14.50464 15.33329,0.98589 9.84362,9.39966 -2.45689,17.92402 1.82878,36.78592 -1.86804,54.59982 -1.20362,19.19977 -4.87912,37.66658 -5.83243,56.90372 -2.75907,8.30804 -4.75355,16.85384 -7.90807,25.03625 l 5e-5,0 z"
       id="path2828"
       sodipodi:nodetypes="ccccccccc" />
    <path
       style="opacity:1;fill:#800000;fill-opacity:1;stroke:#000000;stroke-width:1.26048826999999997px;stroke-linecap:butt;stroke-linejoin:miter;stroke-opacity:1"
       d="m 529.10231,437.97958 c 2.57199,-12.89818 3.00456,-26.32942 2.10885,-39.53005 -0.86338,-17.58228 5.59783,-35.00366 -0.43925,-52.06942 -2.46093,-7.08418 -3.96591,-14.92291 -2.55711,-22.3854 0.41985,-5.45216 9.35497,-13.97332 11.96075,-5.36349 3.37056,12.54772 0.72671,25.52137 0.59909,38.25966 -0.50768,10.28266 -2.08079,20.44076 -2.79386,30.70926 -0.84448,11.25579 -0.50274,22.74922 -2.97368,33.73408 -1.36881,18.51631 -9.24174,43.75577 -16.20833,60.99622 3.02461,-23.6805 8.86392,-38.29211 10.30354,-44.35086 z"
       id="path2830"
       sodipodi:nodetypes="cccccccccc" />
    <path
       style="opacity:1;fill:#800000;fill-opacity:1;stroke:#000000;stroke-width:1.26048826999999997px;stroke-linecap:butt;stroke-linejoin:miter;stroke-opacity:1"
       d="m 604.22658,464.24125 c -0.90454,-17.53598 -0.77629,-36.07588 0.26639,-53.44639 0.58694,-17.04801 -1.54532,-31.81862 -2.5629,-48.79135 -1.96599,-20.75013 -2.15851,-30.48928 -1.86797,-45.38099 4.11195,-9.33916 11.32405,4.56245 7.2042,10.44634 -0.61144,12.47579 4.47243,24.82023 2.61714,37.42742 -0.99289,19.28074 -0.82335,38.13709 -0.84485,57.48163 0.29283,15.77619 -1.95947,26.09577 -4.81201,42.26334 z"
       id="path2832"
       sodipodi:nodetypes="cccccccc" />
    <path
       style="opacity:1;fill:#800000;fill-opacity:1;stroke:#000000;stroke-width:1.26048826999999997px;stroke-linecap:butt;stroke-linejoin:miter;stroke-opacity:1"
       d="m 657.42515,447.77028 c 1.92342,-5.27081 0.15798,-10.99987 0.82561,-16.46429 0.69423,-10.94636 2.9288,-21.89064 1.58047,-32.87496 0.42243,-13.24537 3.82641,-26.8687 -0.49215,-39.84874 -1.32043,-4.52369 -2.80015,-9.27386 -1.80845,-14.01138 -0.74446,-6.83563 -0.11957,-13.70199 0.69694,-20.47729 -0.4008,-4.93014 -2.08978,-14.24892 5.71238,-13.78823 6.51826,1.5769 -0.57073,9.29721 0.13876,13.65265 -1.79295,8.50446 -1.42137,17.27931 0.52199,25.71518 1.82549,9.99007 4.18392,20.40714 1.03227,30.40143 -1.41779,5.82415 -3.51041,11.8124 -2.3081,17.86234 -2.11289,13.69144 -1.65351,18.6918 -2.04998,33.09085 -0.46686,2.66482 -2.91806,13.16685 -3.84974,16.74244 z"
       id="path2834"
       sodipodi:nodetypes="ccccccccccccc" />
    <path
       style="opacity:1;fill:#800000;fill-opacity:1;stroke:#000000;stroke-width:1.26048826999999997px;stroke-linecap:butt;stroke-linejoin:miter;stroke-opacity:1"
       d="m 37.736081,145.29395 c 5.824439,8.72653 3.861995,21.56496 6.812863,29.4351 3.934872,15.13823 4.690238,19.69217 3.072732,29.46084 1.288793,9.54242 -2.554548,18.87176 -6.164322,27.29564 5.541083,3.99692 7.483458,7.04666 13.884532,1.37025 6.676962,-3.41371 12.681237,-0.56444 19.448946,-1.38471 6.531097,6.30756 11.923763,1.11378 9.260971,-6.36471 -2.248392,-8.76698 -0.0021,-17.65643 -3.373245,-26.27773 -4.132745,-13.00074 -4.490385,-27.41236 -12.199137,-39.07421 -2.257323,-6.49254 -7.639917,-22.443 -13.544844,-19.77062 7.157126,8.6853 9.389884,19.98908 12.65824,30.3944 0.688534,7.25622 7.645907,22.60547 -0.27975,25.10982 -5.702216,-8.22946 -4.681697,-19.50452 -7.591227,-28.98177 -4.345533,-8.98609 -4.730521,-19.62796 -11.233847,-27.54232 -0.854806,-4.76555 -11.086842,-15.2093 -5.830884,-4.9686 6.564234,9.99279 6.209859,22.0696 11.419746,32.38478 4.978714,8.99234 4.830325,19.09332 5.2649,29.06356 -2.536138,11.21008 -7.618226,-8.07011 -9.295099,-12.05868 -2.087263,-10.69807 -4.259283,-21.48562 -7.757138,-31.66224 -0.677179,-2.13577 -5.153933,-4.10625 -4.553437,-6.4288 z"
       id="path3859"
       sodipodi:nodetypes="cccccccccccccccccccc" />
    <path
       style="opacity:1;fill:#800000;fill-opacity:1;stroke:#000000;stroke-width:1.26048826999999997px;stroke-linecap:butt;stroke-linejoin:miter;stroke-opacity:1"
       d="m 116.26222,125.53854 c 1.51153,4.12439 9.35456,18.00769 12.13687,26.2004 2.89413,20.25881 11.21351,40.46357 6.81636,61.17793 -0.52677,7.88607 -7.58525,21.52339 5.36021,16.89747 3.84623,11.27101 13.88105,-12.83455 19.98683,0.10244 5.94577,-10.21841 11.84795,0.44881 18.61389,-0.36552 3.32533,-11.6266 -3.41783,-24.29335 -1.07916,-36.53356 -0.0148,-18.22689 -4.32732,-36.56243 -11.7927,-53.21683 -3.86629,-7.06884 -17.58925,-21.00277 -18.65629,-21.47593 7.44296,10.56865 12.4466,22.0535 15.76891,34.26247 6.08272,11.03128 10.53315,24.97381 3.46501,36.6116 -12.51738,7.18227 -10.95141,-17.66603 -14.38112,-25.6083 -3.51986,-11.55283 -4.67409,-23.92351 -9.56388,-34.96225 -5.1429,-5.02257 -8.74717,-21.74304 -12.95778,-20.74801 4.37959,15.11398 12.77075,28.93297 15.44599,44.57608 5.33332,10.8628 8.63193,24.03858 2.6626,35.41614 -11.50193,8.01883 -9.03504,-17.41886 -14.88972,-23.1472 -0.53381,-14.81262 -8.73494,-25.70837 -15.90955,-37.83358 l -1.02647,-1.3534 0,0 z"
       id="path3861" />
    <path
       style="opacity:1;fill:#800000;fill-opacity:1;stroke:#000000;stroke-width:1.26048826999999997px;stroke-linecap:butt;stroke-linejoin:miter;stroke-opacity:1"
       d="m 211.76698,113.06144 c 4.65032,17.68154 7.4591,30.09966 14.35361,43.37184 4.97471,16.63553 13.8896,26.31466 17.97399,41.16599 4.15269,12.19379 -1.69238,25.90755 -0.72203,36.74176 5.14716,-4.67137 12.48797,2.21033 17.35263,-7.02119 6.95497,-2.2137 12.99408,6.2502 21.89931,2.19682 12.49569,11.28666 8.16249,-10.22658 2.00496,-15.88473 -6.61117,-12.76889 -1.36134,-27.18672 -2.78767,-40.76137 0.69837,-21.74531 2.65008,-45.52135 -10.96911,-64.25731 -2.7818,-7.6167 -15.03556,-15.544181 -6.31801,-3.11336 5.44254,12.10771 9.58155,24.80302 12.77973,37.57625 2.29333,14.94976 0.61522,30.54817 -7.17076,43.83468 -6.65807,-10.92691 -10.84158,-22.58638 -14.44763,-34.57829 -1.2149,-13.51005 -8.33731,-25.39027 -10.41124,-38.74028 -2.23039,-6.50064 -8.71034,-21.783863 -11.64545,-22.218041 3.56846,11.807851 9.25802,23.160811 12.37273,35.139491 6.71918,17.87942 11.06644,37.98806 5.6703,56.73085 -9.12749,13.14822 -13.05079,-7.73282 -17.98496,-18.0728 -1.13311,-6.65059 -9.09282,-23.00709 -15.631,-39.37931 -0.89596,-3.41642 -1.15615,-14.86076 -6.3194,-12.731 z"
       id="path3863"
       sodipodi:nodetypes="cccccccccccccccccccc" />
    <path
       style="opacity:1;fill:#800000;fill-opacity:1;stroke:#000000;stroke-width:1.26048826999999997px;stroke-linecap:butt;stroke-linejoin:miter;stroke-opacity:1"
       d="m 340.16781,94.345772 c 4.05327,15.501568 3.63828,31.239928 7.17066,46.870788 2.12301,23.69343 5.03081,47.52716 3.31089,71.24771 -5.36617,9.32614 11.5555,28.87256 14.61414,12.31977 3.3669,-16.52376 -6.4962,-31.59391 -8.41588,-47.69202 -1.21405,-13.84536 -2.62689,-27.70925 -6.32016,-41.24689 -2.65785,-13.19679 -3.97125,-33.15496 -10.35964,-41.499358 l 0,0 -1e-5,0 z"
       id="path3865"
       sodipodi:nodetypes="ccccccccc" />
    <path
       style="opacity:1;fill:#800000;fill-opacity:1;stroke:#000000;stroke-width:1.26048826999999997px;stroke-linecap:butt;stroke-linejoin:miter;stroke-opacity:1"
       d="m 402.9696,101.2673 c 1.27231,15.17365 1.17024,39.5545 5.83456,55.61357 6.41401,27.23091 6.17856,32.2128 10.75987,57.92371 -0.39993,16.97286 26.0727,18.25512 19.82529,-0.80169 -4.37411,-23.35185 -3.61932,-47.26643 -8.38474,-71.49455 -2.41123,-20.15559 -7.11048,-24.58162 -10.0803,-45.051176 -0.85987,-7.007275 -1.5429,-12.77524 -5.33393,-17.975908 2.39323,13.358678 3.77931,27.799554 7.00773,40.851844 2.31156,15.96183 1.46548,30.30708 4.85613,46.13757 1.20026,6.27727 -4.35222,23.19147 -8.92541,9.53882 -5.70902,-10.76037 -1.79147,-3.61277 -10.45611,-33.92294 L 403.71996,88.033322 402.9696,101.2673 z"
       id="path3867"
       sodipodi:nodetypes="ccccccccccccc" />
    <path
       style="opacity:1;fill:#800000;fill-opacity:1;stroke:#000000;stroke-width:1.26048826999999997px;stroke-linecap:butt;stroke-linejoin:miter;stroke-opacity:1"
       d="m 469.62982,52.755428 c 7.51783,20.106808 13.28231,40.728608 16.22724,61.958642 5.77937,13.06559 5.56094,27.2871 7.87542,41.1109 1.46694,13.08545 11.69167,26.62902 8.98129,39.10655 -10.60215,10.87154 15.2904,32.06132 14.20445,11.07869 3.37347,-16.09535 -10.81859,-27.24987 -14.02437,-41.74434 -3.52877,-17.83324 -9.19933,-35.67832 -11.48933,-53.76655 -4.28007,-17.624413 -10.12992,-31.159183 -14.37016,-50.34088 -1.23188,-2.011591 -3.75036,-9.011176 -7.40454,-7.403012 z"
       id="path3869"
       sodipodi:nodetypes="ccccccccc" />
    <path
       style="opacity:1;fill:#800000;fill-opacity:1;stroke:#000000;stroke-width:1.26048826999999997px;stroke-linecap:butt;stroke-linejoin:miter;stroke-opacity:1"
       d="m 548.15595,71.471085 c -5.27621,-6.576327 2.30241,5.826249 4.93155,6.829854 6.07409,11.611205 8.76878,24.591251 14.00425,36.537511 1.62317,13.16819 5.75316,25.7152 7.37277,38.78495 0.62368,15.51838 3.51898,30.95134 2.2373,46.52558 -0.0469,12.01177 22.39069,4.36087 12.76698,-5.85972 -4.12598,-10.31902 -5.47189,-21.20854 -8.71356,-31.88725 -3.85415,-18.40334 -8.18152,-36.69957 -12.54851,-54.96856 -6.68977,-11.054126 -6.21669,-26.35331 -17.46171,-34.534092 -0.92945,1.54615 -3.79736,-4.729838 -2.58907,-1.428273 z"
       id="path3871" />
    <path
       style="opacity:1;fill:#800000;fill-opacity:1;stroke:#000000;stroke-width:1.26048826999999997px;stroke-linecap:butt;stroke-linejoin:miter;stroke-opacity:1"
       d="m 640.47722,48.596378 c 2.80812,19.822179 8.43796,39.105932 10.90902,58.974192 4.60769,15.76626 7.12512,32.09706 12.41618,47.70734 4.48686,13.65515 -0.73046,31.81949 4.58149,42.78789 8.70086,-0.94952 23.92776,-1.81464 14.54624,-14.97379 -7.97417,-13.51547 -12.39976,-28.31092 -13.9403,-43.79852 -1.4072,-16.68971 -12.20541,-30.56611 -14.03371,-47.095377 -3.24484,-15.096372 -7.94232,-29.960988 -13.16637,-44.515234 -0.64856,-0.600859 -1.77428,0.200873 -1.31255,0.913499 z"
       id="path3873" />
  </g>
</svg>
