<?xml version="1.0" encoding="UTF-8" standalone="no"?>
<!-- Created with Inkscape (http://www.inkscape.org/) -->

<svg
   xmlns:dc="http://purl.org/dc/elements/1.1/"
   xmlns:cc="http://creativecommons.org/ns#"
   xmlns:rdf="http://www.w3.org/1999/02/22-rdf-syntax-ns#"
   xmlns:svg="http://www.w3.org/2000/svg"
   xmlns="http://www.w3.org/2000/svg"
   xmlns:sodipodi="http://sodipodi.sourceforge.net/DTD/sodipodi-0.dtd"
   xmlns:inkscape="http://www.inkscape.org/namespaces/inkscape"
   width="64px"
   height="64px"
   id="svg5391"
   version="1.1"
   inkscape:version="0.47 r22583"
   sodipodi:docname="ur2.svg">
  <defs
     id="defs5393">
    <inkscape:perspective
       sodipodi:type="inkscape:persp3d"
       inkscape:vp_x="0 : 32 : 1"
       inkscape:vp_y="0 : 1000 : 0"
       inkscape:vp_z="64 : 32 : 1"
       inkscape:persp3d-origin="32 : 21.333333 : 1"
       id="perspective5399" />
    <inkscape:perspective
       id="perspective5384"
       inkscape:persp3d-origin="0.5 : 0.33333333 : 1"
       inkscape:vp_z="1 : 0.5 : 1"
       inkscape:vp_y="0 : 1000 : 0"
       inkscape:vp_x="0 : 0.5 : 1"
       sodipodi:type="inkscape:persp3d" />
    <inkscape:perspective
       id="perspective5443"
       inkscape:persp3d-origin="0.5 : 0.33333333 : 1"
       inkscape:vp_z="1 : 0.5 : 1"
       inkscape:vp_y="0 : 1000 : 0"
       inkscape:vp_x="0 : 0.5 : 1"
       sodipodi:type="inkscape:persp3d" />
    <inkscape:perspective
       id="perspective5492"
       inkscape:persp3d-origin="0.5 : 0.33333333 : 1"
       inkscape:vp_z="1 : 0.5 : 1"
       inkscape:vp_y="0 : 1000 : 0"
       inkscape:vp_x="0 : 0.5 : 1"
       sodipodi:type="inkscape:persp3d" />
    <inkscape:perspective
       id="perspective5541"
       inkscape:persp3d-origin="0.5 : 0.33333333 : 1"
       inkscape:vp_z="1 : 0.5 : 1"
       inkscape:vp_y="0 : 1000 : 0"
       inkscape:vp_x="0 : 0.5 : 1"
       sodipodi:type="inkscape:persp3d" />
    <inkscape:perspective
       id="perspective5590"
       inkscape:persp3d-origin="0.5 : 0.33333333 : 1"
       inkscape:vp_z="1 : 0.5 : 1"
       inkscape:vp_y="0 : 1000 : 0"
       inkscape:vp_x="0 : 0.5 : 1"
       sodipodi:type="inkscape:persp3d" />
    <inkscape:perspective
       id="perspective5639"
       inkscape:persp3d-origin="0.5 : 0.33333333 : 1"
       inkscape:vp_z="1 : 0.5 : 1"
       inkscape:vp_y="0 : 1000 : 0"
       inkscape:vp_x="0 : 0.5 : 1"
       sodipodi:type="inkscape:persp3d" />
    <inkscape:perspective
       id="perspective5714"
       inkscape:persp3d-origin="0.5 : 0.33333333 : 1"
       inkscape:vp_z="1 : 0.5 : 1"
       inkscape:vp_y="0 : 1000 : 0"
       inkscape:vp_x="0 : 0.5 : 1"
       sodipodi:type="inkscape:persp3d" />
  </defs>
  <sodipodi:namedview
     id="base"
     pagecolor="#ffffff"
     bordercolor="#666666"
     borderopacity="1.0"
     inkscape:pageopacity="0.0"
     inkscape:pageshadow="2"
     inkscape:zoom="2.75"
     inkscape:cx="32"
     inkscape:cy="32"
     inkscape:current-layer="layer1"
     showgrid="true"
     inkscape:document-units="px"
     inkscape:grid-bbox="true"
     inkscape:window-width="447"
     inkscape:window-height="359"
     inkscape:window-x="873"
     inkscape:window-y="184"
     inkscape:window-maximized="0" />
  <metadata
     id="metadata5396">
    <rdf:RDF>
      <cc:Work
         rdf:about="">
        <dc:format>image/svg+xml</dc:format>
        <dc:type
           rdf:resource="http://purl.org/dc/dcmitype/StillImage" />
        <dc:title />
      </cc:Work>
    </rdf:RDF>
  </metadata>
  <g
     id="layer1"
     inkscape:label="Layer 1"
     inkscape:groupmode="layer">
    <path
       style="fill:#e9c6af;fill-opacity:1;stroke:#000000;stroke-width:0.36081064px;stroke-linecap:butt;stroke-linejoin:miter;stroke-opacity:1"
       d="M 27.362335,41.257456 C 27.752867,36.896529 25.818603,30.259588 25.764603,25.941313 25.626614,22.383386 25.621906,18.797072 24.25237,15.506755 24.669717,12.940323 20.784058,8.3205469 23.941346,7.3655744 c 1.516638,2.1493801 3.174398,4.4217346 5.313789,5.8957696 1.852552,3.504282 2.981237,7.290732 4.873803,10.776268 1.9415,4.803123 2.756705,9.967537 4.540314,14.831744 0.376154,1.210892 0.461164,1.39395 0.876945,2.592345"
       id="path3905"
       sodipodi:nodetypes="cccccccc" />
    <path
       style="fill:#e9c6af;fill-opacity:1;stroke:#000000;stroke-width:0.36081064px;stroke-linecap:butt;stroke-linejoin:miter;stroke-opacity:1"
       d="m 38.440689,40.757874 c -2.578879,-0.927905 -8.200702,-2.948856 -10.285397,-0.448465 -1.826574,2.153509 -1.152391,5.225013 -1.746528,7.812409 -0.227727,2.243906 -0.636968,4.500468 -0.943421,6.780314 -0.08343,2.409172 1.590759,4.845258 4.215258,4.898325 2.642584,0.189702 5.281103,0.71617 7.889618,0.826933 2.162319,-0.503874 5.42121,-0.255521 7.939291,-1.443193 3.275851,-0.303631 0.976923,-4.287962 0.603119,-6.150351 -0.438023,-2.731667 -2.677329,-4.470183 -3.888147,-6.802413 -1.321023,-1.659907 -1.37518,-4.715073 -3.900483,-5.397717"
       id="path3879"
       sodipodi:nodetypes="cccccccccc" />
    <path
       style="fill:#800000;fill-opacity:1;stroke:#000000;stroke-width:0.36081064px;stroke-linecap:butt;stroke-linejoin:miter;stroke-opacity:1"
       d="m 23.358246,10.072582 c -1.510297,-1.8824518 0.659058,1.667745 1.411641,1.955024 1.738688,3.32367 2.510034,7.039165 4.00867,10.458743 0.464628,3.769352 1.646824,7.360892 2.110432,11.102065 0.178526,4.442085 1.007296,8.859719 0.640419,13.317794 -0.01343,3.43833 6.409262,1.248286 3.654507,-1.677325 -1.181049,-2.953786 -1.566311,-6.070875 -2.494229,-9.127622 -1.103238,-5.267894 -2.341933,-10.50513 -3.59197,-15.734569 -1.914924,-3.164207 -1.779506,-7.543549 -4.998357,-9.885271 -0.266052,0.44258 -1.086982,-1.3539006 -0.741113,-0.408839 z"
       id="path3871" />
  </g>
</svg>
