<?xml version="1.0" encoding="UTF-8" standalone="no"?>
<!-- Created with Inkscape (http://www.inkscape.org/) -->

<svg
   xmlns:dc="http://purl.org/dc/elements/1.1/"
   xmlns:cc="http://creativecommons.org/ns#"
   xmlns:rdf="http://www.w3.org/1999/02/22-rdf-syntax-ns#"
   xmlns:svg="http://www.w3.org/2000/svg"
   xmlns="http://www.w3.org/2000/svg"
   xmlns:sodipodi="http://sodipodi.sourceforge.net/DTD/sodipodi-0.dtd"
   xmlns:inkscape="http://www.inkscape.org/namespaces/inkscape"
   width="64px"
   height="64px"
   id="svg5391"
   version="1.1"
   inkscape:version="0.47 r22583"
   sodipodi:docname="ur6.svg">
  <defs
     id="defs5393">
    <inkscape:perspective
       sodipodi:type="inkscape:persp3d"
       inkscape:vp_x="0 : 32 : 1"
       inkscape:vp_y="0 : 1000 : 0"
       inkscape:vp_z="64 : 32 : 1"
       inkscape:persp3d-origin="32 : 21.333333 : 1"
       id="perspective5399" />
    <inkscape:perspective
       id="perspective5384"
       inkscape:persp3d-origin="0.5 : 0.33333333 : 1"
       inkscape:vp_z="1 : 0.5 : 1"
       inkscape:vp_y="0 : 1000 : 0"
       inkscape:vp_x="0 : 0.5 : 1"
       sodipodi:type="inkscape:persp3d" />
    <inkscape:perspective
       id="perspective5443"
       inkscape:persp3d-origin="0.5 : 0.33333333 : 1"
       inkscape:vp_z="1 : 0.5 : 1"
       inkscape:vp_y="0 : 1000 : 0"
       inkscape:vp_x="0 : 0.5 : 1"
       sodipodi:type="inkscape:persp3d" />
    <inkscape:perspective
       id="perspective5492"
       inkscape:persp3d-origin="0.5 : 0.33333333 : 1"
       inkscape:vp_z="1 : 0.5 : 1"
       inkscape:vp_y="0 : 1000 : 0"
       inkscape:vp_x="0 : 0.5 : 1"
       sodipodi:type="inkscape:persp3d" />
  </defs>
  <sodipodi:namedview
     id="base"
     pagecolor="#ffffff"
     bordercolor="#666666"
     borderopacity="1.0"
     inkscape:pageopacity="0.0"
     inkscape:pageshadow="2"
     inkscape:zoom="3.5341797"
     inkscape:cx="32"
     inkscape:cy="26.676822"
     inkscape:current-layer="layer1"
     showgrid="true"
     inkscape:document-units="px"
     inkscape:grid-bbox="true"
     inkscape:window-width="543"
     inkscape:window-height="432"
     inkscape:window-x="810"
     inkscape:window-y="290"
     inkscape:window-maximized="0" />
  <metadata
     id="metadata5396">
    <rdf:RDF>
      <cc:Work
         rdf:about="">
        <dc:format>image/svg+xml</dc:format>
        <dc:type
           rdf:resource="http://purl.org/dc/dcmitype/StillImage" />
        <dc:title />
      </cc:Work>
    </rdf:RDF>
  </metadata>
  <g
     id="layer1"
     inkscape:label="Layer 1"
     inkscape:groupmode="layer">
    <path
       style="fill:#e9c6af;fill-opacity:1;stroke:#000000;stroke-width:0.44549841px;stroke-linecap:butt;stroke-linejoin:miter;stroke-opacity:1"
       d="M 19.568581,42.240633 C 19.975656,36.143365 17.325265,28.664951 15.095452,22.882273 14.946943,19.162617 7.7442701,11.945582 14.921064,10.593947 c 2.620305,3.646926 3.933814,2.387255 6.661934,6.051513 1.781246,1.801632 4.109518,12.174195 8.289313,13.515562 -4.642412,-2.14307 -6.323802,-9.616297 -8.208959,-13.439447 1.288206,-3.628193 -0.769975,-5.134548 -1.467285,-8.9301329 -1.828515,-2.9983876 1.022499,-8.17467187 4.19084,-3.2138779 4.521057,3.0555855 9.377294,6.1377608 9.693826,11.3655668 -0.113186,4.765222 -0.326302,11.582127 -0.775268,13.8046 0.904259,-5.900337 0.317774,-10.239129 0.821908,-14.684341 0.49379,-2.74349 -5.763574,-8.2676547 -0.44884,-8.7212958 4.162745,2.9057443 8.372754,6.1131818 10.729028,10.1304398 3.352442,5.663773 3.314394,11.943964 5.108555,17.896999 0.329461,2.189997 1.69884,4.171507 1.863538,6.368485"
       id="path3897"
       sodipodi:nodetypes="ccccccccccccccc" />
    <path
       style="fill:#e9c6af;fill-opacity:1;stroke:#000000;stroke-width:0.44549841px;stroke-linecap:butt;stroke-linejoin:miter;stroke-opacity:1"
       d="m 18.360449,43.945142 c 1.466749,-2.046009 -1.240013,2.943573 -1.734036,5.092912 -1.201789,2.713201 -1.784588,6.287223 0.110014,8.978936 2.292351,3.282701 7.135999,4.637194 11.611477,3.005495 4.207332,1.838847 5.757421,-0.914217 11.453085,-0.116359 4.220139,0.237992 5.24058,-2.363716 9.572841,-1.295883 4.329864,-0.518075 9.054438,-4.059599 8.813071,-7.408738 -1.103239,-3.629129 -3.043767,-7.166906 -5.544799,-10.376235 -2.695609,-2.994226 -8.19049,-1.941345 -12.307621,-2.05171 -4.065211,0.6505 -8.215221,0.590693 -12.284884,1.310737 -6.449033,-0.31596 -6.855178,-1.92097 -9.637341,2.802108"
       id="path3887"
       sodipodi:nodetypes="ccccccccccc" />
    <path
       style="fill:#800000;fill-opacity:1;stroke:#000000;stroke-width:0.44549841px;stroke-linecap:butt;stroke-linejoin:miter;stroke-opacity:1"
       d="m 13.135597,12.248366 c 1.871841,5.48717 3.002427,9.340928 5.777597,13.459729 2.002415,5.16256 5.590827,8.166317 7.234871,12.77518 1.671536,3.784141 -0.681214,8.039978 -0.290631,11.402193 2.071829,-1.449681 5.026644,0.685939 6.984762,-2.178908 2.799506,-0.686985 5.230361,1.939644 8.814883,0.681746 5.029753,3.502627 3.285557,-3.173648 0.807035,-4.929562 -2.66112,-3.962611 -0.547965,-8.436946 -1.12209,-12.649614 0.281107,-6.748295 1.066708,-14.126794 -4.415272,-19.941187 -1.119727,-2.3637154 -6.052098,-4.8238788 -2.543118,-0.96618 2.190724,3.757427 3.856752,7.697205 5.14408,11.661165 0.92311,4.639409 0.247638,9.480117 -2.886364,13.603365 -2.68,-3.390986 -4.363941,-7.009309 -5.815445,-10.730798 -0.48902,-4.192619 -3.355923,-7.879448 -4.190721,-12.022402 -0.897772,-2.017366 -3.506075,-6.7602591 -4.687513,-6.8949996 1.436374,3.6643704 3.726528,7.1875726 4.980258,10.9049576 2.704596,5.548581 4.454452,11.788962 2.282403,17.605476 -3.673986,4.080332 -5.25319,-2.399754 -7.239286,-5.608593 -0.456099,-2.0639 -3.660033,-7.139869 -6.291772,-12.220714 -0.360641,-1.060229 -0.465374,-4.611791 -2.543677,-3.950854 z"
       id="path3863"
       sodipodi:nodetypes="cccccccccccccccccccc" />
  </g>
</svg>
